<?xml version="1.0" encoding="utf-8" standalone="no"?>
<!DOCTYPE svg PUBLIC "-//W3C//DTD SVG 1.1//EN"
  "http://www.w3.org/Graphics/SVG/1.1/DTD/svg11.dtd">
<svg xmlns:xlink="http://www.w3.org/1999/xlink" width="648pt" height="396pt" viewBox="0 0 648 396" xmlns="http://www.w3.org/2000/svg" version="1.1">
 <metadata>
  <rdf:RDF xmlns:dc="http://purl.org/dc/elements/1.1/" xmlns:cc="http://creativecommons.org/ns#" xmlns:rdf="http://www.w3.org/1999/02/22-rdf-syntax-ns#">
   <cc:Work>
    <dc:type rdf:resource="http://purl.org/dc/dcmitype/StillImage"/>
    <dc:date>2022-12-08T09:25:55.903569</dc:date>
    <dc:format>image/svg+xml</dc:format>
    <dc:creator>
     <cc:Agent>
      <dc:title>Matplotlib v3.5.3, https://matplotlib.org/</dc:title>
     </cc:Agent>
    </dc:creator>
   </cc:Work>
  </rdf:RDF>
 </metadata>
 <defs>
  <style type="text/css">*{stroke-linejoin: round; stroke-linecap: butt}</style>
 </defs>
 <g id="figure_1">
  <g id="patch_1">
   <path d="M 0 396 
L 648 396 
L 648 0 
L 0 0 
z
" style="fill: #ffffff"/>
  </g>
  <g id="axes_1">
   <g id="patch_2">
    <path d="M 90.38 324.52 
L 626.4 324.52 
L 626.4 45.6 
L 90.38 45.6 
z
" style="fill: #ffffff"/>
   </g>
   <g id="PolyCollection_1">
    <defs>
     <path id="me2dfeda83a" d="M 114.744545 -153.341353 
L 114.744545 -102.583358 
L 124.689258 -90.958345 
L 134.63397 -88.747949 
L 144.578683 -86.511748 
L 154.523395 -85.439208 
L 164.468108 -86.235072 
L 174.41282 -85.2065 
L 184.357532 -86.527121 
L 194.302245 -84.315406 
L 204.246957 -84.343367 
L 214.19167 -84.368232 
L 224.136382 -85.423098 
L 234.081095 -86.331258 
L 244.025807 -85.704921 
L 253.970519 -85.745177 
L 263.915232 -85.698174 
L 273.859944 -86.575045 
L 283.804657 -86.098493 
L 293.749369 -88.108451 
L 303.694082 -89.1168 
L 313.638794 -88.335819 
L 323.583506 -90.275825 
L 333.528219 -88.901993 
L 343.472931 -89.803694 
L 353.417644 -89.249675 
L 363.362356 -89.863927 
L 373.307069 -89.992194 
L 383.251781 -90.247237 
L 393.196494 -91.473158 
L 403.141206 -92.573424 
L 413.085918 -94.438748 
L 423.030631 -91.793267 
L 432.975343 -92.879198 
L 442.920056 -94.944336 
L 452.864768 -94.962119 
L 462.809481 -95.532122 
L 472.754193 -94.530147 
L 482.698905 -94.788431 
L 492.643618 -97.841446 
L 502.58833 -96.970695 
L 512.533043 -95.910582 
L 522.477755 -96.041729 
L 532.422468 -97.332099 
L 542.36718 -98.25981 
L 552.311892 -97.430379 
L 562.256605 -99.596244 
L 572.201317 -97.500556 
L 582.14603 -97.319942 
L 592.090742 -97.835312 
L 602.035455 -101.079426 
L 602.035455 -107.527501 
L 602.035455 -107.527501 
L 592.090742 -104.995312 
L 582.14603 -103.089678 
L 572.201317 -104.82472 
L 562.256605 -111.692149 
L 552.311892 -106.228905 
L 542.36718 -107.41658 
L 532.422468 -104.793044 
L 522.477755 -104.746501 
L 512.533043 -106.566193 
L 502.58833 -108.412002 
L 492.643618 -108.899653 
L 482.698905 -108.694091 
L 472.754193 -108.371943 
L 462.809481 -107.277679 
L 452.864768 -107.232402 
L 442.920056 -109.950815 
L 432.975343 -105.314379 
L 423.030631 -104.37706 
L 413.085918 -109.666312 
L 403.141206 -108.934128 
L 393.196494 -110.293582 
L 383.251781 -107.570262 
L 373.307069 -105.999674 
L 363.362356 -106.873887 
L 353.417644 -108.216711 
L 343.472931 -108.725714 
L 333.528219 -108.090042 
L 323.583506 -112.525049 
L 313.638794 -109.19496 
L 303.694082 -111.495941 
L 293.749369 -109.853185 
L 283.804657 -107.643165 
L 273.859944 -110.369677 
L 263.915232 -109.830302 
L 253.970519 -109.288047 
L 244.025807 -110.851558 
L 234.081095 -112.320083 
L 224.136382 -111.851727 
L 214.19167 -111.701351 
L 204.246957 -112.421409 
L 194.302245 -113.133896 
L 184.357532 -116.893492 
L 174.41282 -115.831365 
L 164.468108 -118.978741 
L 154.523395 -118.312899 
L 144.578683 -120.779175 
L 134.63397 -128.617191 
L 124.689258 -130.276695 
L 114.744545 -153.341353 
z
" style="stroke: #ff0000; stroke-opacity: 0.4"/>
    </defs>
    <g clip-path="url(#p390aec1dc5)">
     <use xlink:href="#me2dfeda83a" x="0" y="396" style="fill: #ff0000; fill-opacity: 0.4; stroke: #ff0000; stroke-opacity: 0.4"/>
    </g>
   </g>
   <g id="PolyCollection_2">
    <defs>
     <path id="macccf437fb" d="M 114.744545 -334.386915 
L 114.744545 -193.343137 
L 124.689258 -139.258778 
L 134.63397 -116.047726 
L 144.578683 -108.136309 
L 154.523395 -109.205631 
L 164.468108 -115.041266 
L 174.41282 -103.107164 
L 184.357532 -93.630027 
L 194.302245 -106.514797 
L 204.246957 -100.838056 
L 214.19167 -103.833053 
L 224.136382 -108.500481 
L 234.081095 -103.948117 
L 244.025807 -108.745115 
L 253.970519 -106.424344 
L 263.915232 -106.638911 
L 273.859944 -101.182285 
L 283.804657 -102.728314 
L 293.749369 -105.458062 
L 303.694082 -111.883064 
L 313.638794 -111.275462 
L 323.583506 -106.896267 
L 333.528219 -109.891404 
L 343.472931 -116.477396 
L 353.417644 -114.016268 
L 363.362356 -119.442001 
L 373.307069 -116.805208 
L 383.251781 -117.744399 
L 393.196494 -121.326914 
L 403.141206 -118.876232 
L 413.085918 -117.961039 
L 423.030631 -124.290735 
L 432.975343 -116.923411 
L 442.920056 -120.176314 
L 452.864768 -122.691216 
L 462.809481 -128.278618 
L 472.754193 -130.933058 
L 482.698905 -126.918858 
L 492.643618 -132.644226 
L 502.58833 -127.240246 
L 512.533043 -120.800786 
L 522.477755 -127.896891 
L 532.422468 -126.462614 
L 542.36718 -121.379088 
L 552.311892 -125.617678 
L 562.256605 -129.733624 
L 572.201317 -124.174121 
L 582.14603 -121.076495 
L 592.090742 -125.846181 
L 602.035455 -128.585454 
L 602.035455 -186.472329 
L 602.035455 -186.472329 
L 592.090742 -188.267504 
L 582.14603 -188.978857 
L 572.201317 -192.819386 
L 562.256605 -212.705587 
L 552.311892 -190.84445 
L 542.36718 -198.871545 
L 532.422468 -185.457043 
L 522.477755 -212.003446 
L 512.533043 -183.849115 
L 502.58833 -202.827121 
L 492.643618 -213.862947 
L 482.698905 -191.592785 
L 472.754193 -195.536345 
L 462.809481 -189.426145 
L 452.864768 -206.521112 
L 442.920056 -193.08391 
L 432.975343 -194.825702 
L 423.030631 -190.466208 
L 413.085918 -212.248255 
L 403.141206 -188.09507 
L 393.196494 -189.925839 
L 383.251781 -216.475384 
L 373.307069 -180.046816 
L 363.362356 -186.60936 
L 353.417644 -186.540333 
L 343.472931 -216.329503 
L 333.528219 -216.158095 
L 323.583506 -187.688724 
L 313.638794 -204.430176 
L 303.694082 -202.841841 
L 293.749369 -191.554036 
L 283.804657 -225.75241 
L 273.859944 -211.600859 
L 263.915232 -190.901005 
L 253.970519 -175.791972 
L 244.025807 -195.41097 
L 234.081095 -198.397294 
L 224.136382 -193.977908 
L 214.19167 -196.395984 
L 204.246957 -186.900172 
L 194.302245 -176.264525 
L 184.357532 -174.750005 
L 174.41282 -215.606955 
L 164.468108 -189.180993 
L 154.523395 -208.639223 
L 144.578683 -224.615716 
L 134.63397 -188.042106 
L 124.689258 -265.613525 
L 114.744545 -334.386915 
z
" style="stroke: #0000ff; stroke-opacity: 0.4"/>
    </defs>
    <g clip-path="url(#p390aec1dc5)">
     <use xlink:href="#macccf437fb" x="0" y="396" style="fill: #0000ff; fill-opacity: 0.4; stroke: #0000ff; stroke-opacity: 0.4"/>
    </g>
   </g>
   <g id="PolyCollection_3">
    <defs>
     <path id="m6583082e04" d="M 114.744545 -148.23731 
L 114.744545 -100.579077 
L 124.689258 -85.032966 
L 134.63397 -84.61305 
L 144.578683 -84.911947 
L 154.523395 -86.351955 
L 164.468108 -84.158182 
L 174.41282 -85.277185 
L 184.357532 -84.88463 
L 194.302245 -84.336606 
L 204.246957 -85.650913 
L 214.19167 -87.334961 
L 224.136382 -85.642133 
L 234.081095 -88.05455 
L 244.025807 -88.090221 
L 253.970519 -86.997364 
L 263.915232 -87.112875 
L 273.859944 -89.620809 
L 283.804657 -89.965088 
L 293.749369 -90.224837 
L 303.694082 -92.177803 
L 313.638794 -94.259873 
L 323.583506 -93.633754 
L 333.528219 -94.763972 
L 343.472931 -94.065974 
L 353.417644 -96.198577 
L 363.362356 -97.145251 
L 373.307069 -97.77306 
L 383.251781 -98.745543 
L 393.196494 -98.293521 
L 403.141206 -101.890069 
L 413.085918 -97.84298 
L 423.030631 -98.53932 
L 432.975343 -98.83148 
L 442.920056 -98.168968 
L 452.864768 -99.590811 
L 462.809481 -99.622862 
L 472.754193 -98.817452 
L 482.698905 -101.736286 
L 492.643618 -100.129113 
L 502.58833 -100.757552 
L 512.533043 -99.315758 
L 522.477755 -100.552186 
L 532.422468 -100.40481 
L 542.36718 -102.213293 
L 552.311892 -101.068741 
L 562.256605 -102.136689 
L 572.201317 -103.430188 
L 582.14603 -102.884954 
L 592.090742 -103.388881 
L 602.035455 -105.33229 
L 602.035455 -112.854463 
L 602.035455 -112.854463 
L 592.090742 -110.846696 
L 582.14603 -112.818712 
L 572.201317 -111.806879 
L 562.256605 -110.729501 
L 552.311892 -115.158794 
L 542.36718 -114.161188 
L 532.422468 -113.915702 
L 522.477755 -114.162103 
L 512.533043 -112.122855 
L 502.58833 -113.386038 
L 492.643618 -114.302529 
L 482.698905 -115.944968 
L 472.754193 -115.16439 
L 462.809481 -116.686828 
L 452.864768 -116.343536 
L 442.920056 -116.863283 
L 432.975343 -118.410057 
L 423.030631 -117.165138 
L 413.085918 -119.75464 
L 403.141206 -124.976902 
L 393.196494 -119.251028 
L 383.251781 -120.863825 
L 373.307069 -122.440273 
L 363.362356 -120.31102 
L 353.417644 -118.673272 
L 343.472931 -119.173724 
L 333.528219 -119.150461 
L 323.583506 -117.380799 
L 313.638794 -119.729162 
L 303.694082 -116.7407 
L 293.749369 -116.268042 
L 283.804657 -115.756755 
L 273.859944 -114.502214 
L 263.915232 -111.214556 
L 253.970519 -111.848792 
L 244.025807 -114.643384 
L 234.081095 -115.278479 
L 224.136382 -113.303721 
L 214.19167 -115.773927 
L 204.246957 -113.874064 
L 194.302245 -112.579807 
L 184.357532 -114.353339 
L 174.41282 -117.223722 
L 164.468108 -114.84999 
L 154.523395 -120.085493 
L 144.578683 -118.684592 
L 134.63397 -120.094441 
L 124.689258 -120.085638 
L 114.744545 -148.23731 
z
" style="stroke: #008000; stroke-opacity: 0.4"/>
    </defs>
    <g clip-path="url(#p390aec1dc5)">
     <use xlink:href="#m6583082e04" x="0" y="396" style="fill: #008000; fill-opacity: 0.4; stroke: #008000; stroke-opacity: 0.4"/>
    </g>
   </g>
   <g id="PolyCollection_4">
    <defs>
     <path id="m5d807d62b8" d="M 114.744545 -337.721818 
L 114.744545 -199.858109 
L 124.689258 -177.565137 
L 134.63397 -156.890129 
L 144.578683 -148.670068 
L 154.523395 -131.814495 
L 164.468108 -114.76662 
L 174.41282 -109.431839 
L 184.357532 -100.967113 
L 194.302245 -98.917569 
L 204.246957 -94.695989 
L 214.19167 -92.35829 
L 224.136382 -94.770667 
L 234.081095 -92.278891 
L 244.025807 -94.058877 
L 253.970519 -88.970317 
L 263.915232 -91.668581 
L 273.859944 -90.506644 
L 283.804657 -90.013529 
L 293.749369 -92.143745 
L 303.694082 -91.322215 
L 313.638794 -92.083668 
L 323.583506 -92.241269 
L 333.528219 -91.751328 
L 343.472931 -94.816891 
L 353.417644 -92.140122 
L 363.362356 -94.132863 
L 373.307069 -96.761436 
L 383.251781 -95.619176 
L 393.196494 -84.99849 
L 403.141206 -95.388652 
L 413.085918 -95.521201 
L 423.030631 -93.771519 
L 432.975343 -96.874007 
L 442.920056 -96.889265 
L 452.864768 -94.200789 
L 462.809481 -98.362673 
L 472.754193 -95.96485 
L 482.698905 -99.868636 
L 492.643618 -96.077508 
L 502.58833 -98.785536 
L 512.533043 -101.439873 
L 522.477755 -97.796198 
L 532.422468 -97.496488 
L 542.36718 -98.97754 
L 552.311892 -100.081816 
L 562.256605 -99.786764 
L 572.201317 -100.35149 
L 582.14603 -100.100819 
L 592.090742 -104.021043 
L 602.035455 -99.824869 
L 602.035455 -110.82238 
L 602.035455 -110.82238 
L 592.090742 -112.204286 
L 582.14603 -109.328242 
L 572.201317 -111.743059 
L 562.256605 -110.831595 
L 552.311892 -106.839498 
L 542.36718 -105.713416 
L 532.422468 -104.773572 
L 522.477755 -107.740268 
L 512.533043 -117.822807 
L 502.58833 -111.736299 
L 492.643618 -140.427117 
L 482.698905 -115.011884 
L 472.754193 -113.794359 
L 462.809481 -113.21796 
L 452.864768 -106.858511 
L 442.920056 -113.148927 
L 432.975343 -118.539598 
L 423.030631 -109.851884 
L 413.085918 -113.665201 
L 403.141206 -112.580006 
L 393.196494 -140.136154 
L 383.251781 -114.688845 
L 373.307069 -117.560194 
L 363.362356 -116.392804 
L 353.417644 -124.01123 
L 343.472931 -117.946012 
L 333.528219 -123.088225 
L 323.583506 -116.28282 
L 313.638794 -115.524275 
L 303.694082 -115.944613 
L 293.749369 -117.49509 
L 283.804657 -129.969319 
L 273.859944 -118.113043 
L 263.915232 -119.097441 
L 253.970519 -131.418024 
L 244.025807 -134.675297 
L 234.081095 -124.26432 
L 224.136382 -142.551296 
L 214.19167 -126.218687 
L 204.246957 -132.846683 
L 194.302245 -143.957004 
L 184.357532 -161.92733 
L 174.41282 -171.415285 
L 164.468108 -192.117349 
L 154.523395 -227.900636 
L 144.578683 -248.748431 
L 134.63397 -274.3148 
L 124.689258 -289.69224 
L 114.744545 -337.721818 
z
" style="stroke: #ff8c00; stroke-opacity: 0.4"/>
    </defs>
    <g clip-path="url(#p390aec1dc5)">
     <use xlink:href="#m5d807d62b8" x="0" y="396" style="fill: #ff8c00; fill-opacity: 0.4; stroke: #ff8c00; stroke-opacity: 0.4"/>
    </g>
   </g>
   <g id="matplotlib.axis_1">
    <g id="xtick_1">
     <g id="line2d_1">
      <defs>
       <path id="m3b1a2b3297" d="M 0 0 
L 0 3.5 
" style="stroke: #000000; stroke-width: 0.8"/>
      </defs>
      <g>
       <use xlink:href="#m3b1a2b3297" x="114.744545" y="324.52" style="stroke: #000000; stroke-width: 0.8"/>
      </g>
     </g>
     <g id="text_1">
      <!-- 0 -->
      <g transform="translate(108.382045 346.716875)scale(0.2 -0.2)">
       <defs>
        <path id="DejaVuSerif-30" d="M 2034 219 
Q 2513 219 2750 744 
Q 2988 1269 2988 2328 
Q 2988 3391 2750 3916 
Q 2513 4441 2034 4441 
Q 1556 4441 1318 3916 
Q 1081 3391 1081 2328 
Q 1081 1269 1318 744 
Q 1556 219 2034 219 
z
M 2034 -91 
Q 1275 -91 848 546 
Q 422 1184 422 2328 
Q 422 3475 848 4112 
Q 1275 4750 2034 4750 
Q 2797 4750 3222 4112 
Q 3647 3475 3647 2328 
Q 3647 1184 3222 546 
Q 2797 -91 2034 -91 
z
" transform="scale(0.015625)"/>
       </defs>
       <use xlink:href="#DejaVuSerif-30"/>
      </g>
     </g>
    </g>
    <g id="xtick_2">
     <g id="line2d_2">
      <g>
       <use xlink:href="#m3b1a2b3297" x="214.19167" y="324.52" style="stroke: #000000; stroke-width: 0.8"/>
      </g>
     </g>
     <g id="text_2">
      <!-- 10 -->
      <g transform="translate(201.46667 346.716875)scale(0.2 -0.2)">
       <defs>
        <path id="DejaVuSerif-31" d="M 909 0 
L 909 331 
L 1722 331 
L 1722 4213 
L 781 3603 
L 781 4013 
L 1919 4750 
L 2350 4750 
L 2350 331 
L 3163 331 
L 3163 0 
L 909 0 
z
" transform="scale(0.015625)"/>
       </defs>
       <use xlink:href="#DejaVuSerif-31"/>
       <use xlink:href="#DejaVuSerif-30" x="63.623047"/>
      </g>
     </g>
    </g>
    <g id="xtick_3">
     <g id="line2d_3">
      <g>
       <use xlink:href="#m3b1a2b3297" x="313.638794" y="324.52" style="stroke: #000000; stroke-width: 0.8"/>
      </g>
     </g>
     <g id="text_3">
      <!-- 20 -->
      <g transform="translate(300.913794 346.716875)scale(0.2 -0.2)">
       <defs>
        <path id="DejaVuSerif-32" d="M 819 3553 
L 469 3553 
L 469 4384 
Q 803 4563 1142 4656 
Q 1481 4750 1806 4750 
Q 2534 4750 2956 4397 
Q 3378 4044 3378 3438 
Q 3378 2753 2422 1800 
Q 2347 1728 2309 1691 
L 1131 513 
L 3078 513 
L 3078 1088 
L 3444 1088 
L 3444 0 
L 434 0 
L 434 341 
L 1850 1753 
Q 2319 2222 2519 2614 
Q 2719 3006 2719 3438 
Q 2719 3909 2473 4175 
Q 2228 4441 1797 4441 
Q 1350 4441 1106 4219 
Q 863 3997 819 3553 
z
" transform="scale(0.015625)"/>
       </defs>
       <use xlink:href="#DejaVuSerif-32"/>
       <use xlink:href="#DejaVuSerif-30" x="63.623047"/>
      </g>
     </g>
    </g>
    <g id="xtick_4">
     <g id="line2d_4">
      <g>
       <use xlink:href="#m3b1a2b3297" x="413.085918" y="324.52" style="stroke: #000000; stroke-width: 0.8"/>
      </g>
     </g>
     <g id="text_4">
      <!-- 30 -->
      <g transform="translate(400.360918 346.716875)scale(0.2 -0.2)">
       <defs>
        <path id="DejaVuSerif-33" d="M 622 4469 
Q 988 4606 1323 4678 
Q 1659 4750 1953 4750 
Q 2638 4750 3022 4454 
Q 3406 4159 3406 3634 
Q 3406 3213 3140 2930 
Q 2875 2647 2388 2547 
Q 2963 2466 3280 2130 
Q 3597 1794 3597 1259 
Q 3597 606 3158 257 
Q 2719 -91 1894 -91 
Q 1528 -91 1179 -12 
Q 831 66 488 225 
L 488 1131 
L 838 1131 
Q 869 681 1141 450 
Q 1413 219 1906 219 
Q 2384 219 2661 495 
Q 2938 772 2938 1253 
Q 2938 1803 2653 2086 
Q 2369 2369 1819 2369 
L 1522 2369 
L 1522 2688 
L 1678 2688 
Q 2225 2688 2498 2914 
Q 2772 3141 2772 3597 
Q 2772 4006 2547 4223 
Q 2322 4441 1900 4441 
Q 1478 4441 1245 4241 
Q 1013 4041 972 3647 
L 622 3647 
L 622 4469 
z
" transform="scale(0.015625)"/>
       </defs>
       <use xlink:href="#DejaVuSerif-33"/>
       <use xlink:href="#DejaVuSerif-30" x="63.623047"/>
      </g>
     </g>
    </g>
    <g id="xtick_5">
     <g id="line2d_5">
      <g>
       <use xlink:href="#m3b1a2b3297" x="512.533043" y="324.52" style="stroke: #000000; stroke-width: 0.8"/>
      </g>
     </g>
     <g id="text_5">
      <!-- 40 -->
      <g transform="translate(499.808043 346.716875)scale(0.2 -0.2)">
       <defs>
        <path id="DejaVuSerif-34" d="M 2234 1581 
L 2234 4063 
L 641 1581 
L 2234 1581 
z
M 3609 0 
L 1484 0 
L 1484 331 
L 2234 331 
L 2234 1247 
L 197 1247 
L 197 1588 
L 2241 4750 
L 2859 4750 
L 2859 1581 
L 3750 1581 
L 3750 1247 
L 2859 1247 
L 2859 331 
L 3609 331 
L 3609 0 
z
" transform="scale(0.015625)"/>
       </defs>
       <use xlink:href="#DejaVuSerif-34"/>
       <use xlink:href="#DejaVuSerif-30" x="63.623047"/>
      </g>
     </g>
    </g>
    <g id="xtick_6">
     <g id="line2d_6">
      <g>
       <use xlink:href="#m3b1a2b3297" x="611.980167" y="324.52" style="stroke: #000000; stroke-width: 0.8"/>
      </g>
     </g>
     <g id="text_6">
      <!-- 50 -->
      <g transform="translate(599.255167 346.716875)scale(0.2 -0.2)">
       <defs>
        <path id="DejaVuSerif-35" d="M 3219 4666 
L 3219 4153 
L 1081 4153 
L 1081 2816 
Q 1244 2928 1461 2984 
Q 1678 3041 1947 3041 
Q 2703 3041 3140 2622 
Q 3578 2203 3578 1478 
Q 3578 738 3136 323 
Q 2694 -91 1894 -91 
Q 1572 -91 1234 -12 
Q 897 66 544 225 
L 544 1131 
L 897 1131 
Q 925 688 1179 453 
Q 1434 219 1894 219 
Q 2388 219 2653 544 
Q 2919 869 2919 1478 
Q 2919 2084 2655 2407 
Q 2391 2731 1894 2731 
Q 1613 2731 1398 2631 
Q 1184 2531 1019 2322 
L 750 2322 
L 750 4666 
L 3219 4666 
z
" transform="scale(0.015625)"/>
       </defs>
       <use xlink:href="#DejaVuSerif-35"/>
       <use xlink:href="#DejaVuSerif-30" x="63.623047"/>
      </g>
     </g>
    </g>
    <g id="text_7">
     <!-- Epochs -->
     <g transform="translate(321.49625 370.073125)scale(0.2 -0.2)">
      <defs>
       <path id="DejaVuSerif-45" d="M 353 0 
L 353 331 
L 947 331 
L 947 4331 
L 353 4331 
L 353 4666 
L 4109 4666 
L 4109 3628 
L 3725 3628 
L 3725 4281 
L 1581 4281 
L 1581 2719 
L 3109 2719 
L 3109 3303 
L 3494 3303 
L 3494 1753 
L 3109 1753 
L 3109 2338 
L 1581 2338 
L 1581 384 
L 3775 384 
L 3775 1038 
L 4159 1038 
L 4159 0 
L 353 0 
z
" transform="scale(0.015625)"/>
       <path id="DejaVuSerif-70" d="M 1313 1825 
L 1313 1497 
Q 1313 897 1542 583 
Q 1772 269 2209 269 
Q 2650 269 2876 622 
Q 3103 975 3103 1663 
Q 3103 2353 2876 2703 
Q 2650 3053 2209 3053 
Q 1772 3053 1542 2737 
Q 1313 2422 1313 1825 
z
M 738 2988 
L 184 2988 
L 184 3322 
L 1313 3322 
L 1313 2803 
Q 1481 3116 1742 3264 
Q 2003 3413 2388 3413 
Q 3000 3413 3387 2928 
Q 3775 2444 3775 1663 
Q 3775 881 3387 395 
Q 3000 -91 2388 -91 
Q 2003 -91 1742 57 
Q 1481 206 1313 519 
L 1313 -997 
L 1856 -997 
L 1856 -1331 
L 184 -1331 
L 184 -997 
L 738 -997 
L 738 2988 
z
" transform="scale(0.015625)"/>
       <path id="DejaVuSerif-6f" d="M 1925 219 
Q 2388 219 2623 584 
Q 2859 950 2859 1663 
Q 2859 2375 2623 2739 
Q 2388 3103 1925 3103 
Q 1463 3103 1227 2739 
Q 991 2375 991 1663 
Q 991 950 1228 584 
Q 1466 219 1925 219 
z
M 1925 -91 
Q 1200 -91 759 389 
Q 319 869 319 1663 
Q 319 2456 758 2934 
Q 1197 3413 1925 3413 
Q 2653 3413 3092 2934 
Q 3531 2456 3531 1663 
Q 3531 869 3092 389 
Q 2653 -91 1925 -91 
z
" transform="scale(0.015625)"/>
       <path id="DejaVuSerif-63" d="M 3291 997 
Q 3169 466 2822 187 
Q 2475 -91 1925 -91 
Q 1200 -91 759 389 
Q 319 869 319 1663 
Q 319 2459 759 2936 
Q 1200 3413 1925 3413 
Q 2241 3413 2553 3339 
Q 2866 3266 3181 3116 
L 3181 2266 
L 2847 2266 
Q 2781 2703 2561 2903 
Q 2341 3103 1931 3103 
Q 1466 3103 1228 2742 
Q 991 2381 991 1663 
Q 991 944 1227 581 
Q 1463 219 1931 219 
Q 2303 219 2525 412 
Q 2747 606 2828 997 
L 3291 997 
z
" transform="scale(0.015625)"/>
       <path id="DejaVuSerif-68" d="M 263 0 
L 263 331 
L 781 331 
L 781 4531 
L 231 4531 
L 231 4863 
L 1356 4863 
L 1356 2731 
Q 1516 3069 1770 3241 
Q 2025 3413 2363 3413 
Q 2913 3413 3172 3097 
Q 3431 2781 3431 2113 
L 3431 331 
L 3944 331 
L 3944 0 
L 2356 0 
L 2356 331 
L 2853 331 
L 2853 1931 
Q 2853 2541 2704 2764 
Q 2556 2988 2175 2988 
Q 1775 2988 1565 2697 
Q 1356 2406 1356 1850 
L 1356 331 
L 1856 331 
L 1856 0 
L 263 0 
z
" transform="scale(0.015625)"/>
       <path id="DejaVuSerif-73" d="M 359 184 
L 359 959 
L 691 959 
Q 703 588 923 403 
Q 1144 219 1575 219 
Q 1963 219 2166 364 
Q 2369 509 2369 788 
Q 2369 1006 2220 1140 
Q 2072 1275 1594 1428 
L 1178 1569 
Q 750 1706 558 1912 
Q 366 2119 366 2438 
Q 366 2894 700 3153 
Q 1034 3413 1625 3413 
Q 1888 3413 2178 3344 
Q 2469 3275 2778 3144 
L 2778 2419 
L 2447 2419 
Q 2434 2741 2221 2922 
Q 2009 3103 1644 3103 
Q 1281 3103 1095 2975 
Q 909 2847 909 2591 
Q 909 2381 1050 2254 
Q 1191 2128 1613 1997 
L 2069 1856 
Q 2541 1709 2748 1489 
Q 2956 1269 2956 922 
Q 2956 450 2595 179 
Q 2234 -91 1600 -91 
Q 1278 -91 972 -22 
Q 666 47 359 184 
z
" transform="scale(0.015625)"/>
      </defs>
      <use xlink:href="#DejaVuSerif-45"/>
      <use xlink:href="#DejaVuSerif-70" x="72.998047"/>
      <use xlink:href="#DejaVuSerif-6f" x="137.011719"/>
      <use xlink:href="#DejaVuSerif-63" x="197.216797"/>
      <use xlink:href="#DejaVuSerif-68" x="253.222656"/>
      <use xlink:href="#DejaVuSerif-73" x="317.626953"/>
     </g>
    </g>
   </g>
   <g id="matplotlib.axis_2">
    <g id="ytick_1">
     <g id="line2d_7">
      <defs>
       <path id="m73de447d04" d="M 0 0 
L -3.5 0 
" style="stroke: #000000; stroke-width: 0.8"/>
      </defs>
      <g>
       <use xlink:href="#m73de447d04" x="90.38" y="296.808991" style="stroke: #000000; stroke-width: 0.8"/>
      </g>
     </g>
     <g id="text_8">
      <!-- 50 -->
      <g transform="translate(57.93 304.407428)scale(0.2 -0.2)">
       <use xlink:href="#DejaVuSerif-35"/>
       <use xlink:href="#DejaVuSerif-30" x="63.623047"/>
      </g>
     </g>
    </g>
    <g id="ytick_2">
     <g id="line2d_8">
      <g>
       <use xlink:href="#m73de447d04" x="90.38" y="233.736057" style="stroke: #000000; stroke-width: 0.8"/>
      </g>
     </g>
     <g id="text_9">
      <!-- 100 -->
      <g transform="translate(45.205 241.334495)scale(0.2 -0.2)">
       <use xlink:href="#DejaVuSerif-31"/>
       <use xlink:href="#DejaVuSerif-30" x="63.623047"/>
       <use xlink:href="#DejaVuSerif-30" x="127.246094"/>
      </g>
     </g>
    </g>
    <g id="ytick_3">
     <g id="line2d_9">
      <g>
       <use xlink:href="#m73de447d04" x="90.38" y="170.663124" style="stroke: #000000; stroke-width: 0.8"/>
      </g>
     </g>
     <g id="text_10">
      <!-- 150 -->
      <g transform="translate(45.205 178.261561)scale(0.2 -0.2)">
       <use xlink:href="#DejaVuSerif-31"/>
       <use xlink:href="#DejaVuSerif-35" x="63.623047"/>
       <use xlink:href="#DejaVuSerif-30" x="127.246094"/>
      </g>
     </g>
    </g>
    <g id="ytick_4">
     <g id="line2d_10">
      <g>
       <use xlink:href="#m73de447d04" x="90.38" y="107.59019" style="stroke: #000000; stroke-width: 0.8"/>
      </g>
     </g>
     <g id="text_11">
      <!-- 200 -->
      <g transform="translate(45.205 115.188628)scale(0.2 -0.2)">
       <use xlink:href="#DejaVuSerif-32"/>
       <use xlink:href="#DejaVuSerif-30" x="63.623047"/>
       <use xlink:href="#DejaVuSerif-30" x="127.246094"/>
      </g>
     </g>
    </g>
    <g id="text_12">
     <!-- FID-Score -->
     <g transform="translate(37.045625 236.702188)rotate(-90)scale(0.2 -0.2)">
      <defs>
       <path id="DejaVuSerif-46" d="M 353 0 
L 353 331 
L 947 331 
L 947 4331 
L 353 4331 
L 353 4666 
L 4172 4666 
L 4172 3628 
L 3788 3628 
L 3788 4281 
L 1581 4281 
L 1581 2719 
L 3175 2719 
L 3175 3303 
L 3559 3303 
L 3559 1753 
L 3175 1753 
L 3175 2338 
L 1581 2338 
L 1581 331 
L 2328 331 
L 2328 0 
L 353 0 
z
" transform="scale(0.015625)"/>
       <path id="DejaVuSerif-49" d="M 1581 331 
L 2175 331 
L 2175 0 
L 353 0 
L 353 331 
L 947 331 
L 947 4331 
L 353 4331 
L 353 4666 
L 2175 4666 
L 2175 4331 
L 1581 4331 
L 1581 331 
z
" transform="scale(0.015625)"/>
       <path id="DejaVuSerif-44" d="M 1581 331 
L 2163 331 
Q 3072 331 3558 850 
Q 4044 1369 4044 2338 
Q 4044 3306 3559 3818 
Q 3075 4331 2163 4331 
L 1581 4331 
L 1581 331 
z
M 353 0 
L 353 331 
L 947 331 
L 947 4331 
L 353 4331 
L 353 4666 
L 2209 4666 
Q 3416 4666 4089 4050 
Q 4763 3434 4763 2338 
Q 4763 1238 4088 619 
Q 3413 0 2209 0 
L 353 0 
z
" transform="scale(0.015625)"/>
       <path id="DejaVuSerif-2d" d="M 281 1959 
L 1881 1959 
L 1881 1472 
L 281 1472 
L 281 1959 
z
" transform="scale(0.015625)"/>
       <path id="DejaVuSerif-53" d="M 594 225 
L 594 1288 
L 953 1284 
Q 969 753 1261 498 
Q 1553 244 2150 244 
Q 2706 244 2998 464 
Q 3291 684 3291 1106 
Q 3291 1444 3114 1625 
Q 2938 1806 2369 1978 
L 1753 2163 
Q 1084 2366 811 2669 
Q 538 2972 538 3500 
Q 538 4094 959 4422 
Q 1381 4750 2144 4750 
Q 2469 4750 2856 4679 
Q 3244 4609 3681 4475 
L 3681 3481 
L 3328 3481 
Q 3275 3975 2998 4195 
Q 2722 4416 2156 4416 
Q 1663 4416 1405 4214 
Q 1147 4013 1147 3628 
Q 1147 3294 1340 3103 
Q 1534 2913 2163 2725 
L 2741 2553 
Q 3375 2363 3645 2067 
Q 3916 1772 3916 1275 
Q 3916 597 3481 253 
Q 3047 -91 2188 -91 
Q 1803 -91 1404 -12 
Q 1006 66 594 225 
z
" transform="scale(0.015625)"/>
       <path id="DejaVuSerif-72" d="M 3059 3328 
L 3059 2497 
L 2728 2497 
Q 2713 2744 2591 2866 
Q 2469 2988 2234 2988 
Q 1809 2988 1582 2694 
Q 1356 2400 1356 1850 
L 1356 331 
L 2022 331 
L 2022 0 
L 263 0 
L 263 331 
L 781 331 
L 781 2994 
L 231 2994 
L 231 3322 
L 1356 3322 
L 1356 2731 
Q 1525 3078 1790 3245 
Q 2056 3413 2438 3413 
Q 2578 3413 2733 3391 
Q 2888 3369 3059 3328 
z
" transform="scale(0.015625)"/>
       <path id="DejaVuSerif-65" d="M 3469 1600 
L 991 1600 
L 991 1575 
Q 991 903 1244 561 
Q 1497 219 1991 219 
Q 2369 219 2611 417 
Q 2853 616 2950 1006 
L 3413 1006 
Q 3275 459 2904 184 
Q 2534 -91 1931 -91 
Q 1203 -91 761 389 
Q 319 869 319 1663 
Q 319 2450 753 2931 
Q 1188 3413 1894 3413 
Q 2647 3413 3050 2948 
Q 3453 2484 3469 1600 
z
M 2791 1931 
Q 2772 2513 2545 2808 
Q 2319 3103 1894 3103 
Q 1497 3103 1269 2806 
Q 1041 2509 991 1931 
L 2791 1931 
z
" transform="scale(0.015625)"/>
      </defs>
      <use xlink:href="#DejaVuSerif-46"/>
      <use xlink:href="#DejaVuSerif-49" x="69.384766"/>
      <use xlink:href="#DejaVuSerif-44" x="108.886719"/>
      <use xlink:href="#DejaVuSerif-2d" x="190.9375"/>
      <use xlink:href="#DejaVuSerif-53" x="224.726562"/>
      <use xlink:href="#DejaVuSerif-63" x="293.232422"/>
      <use xlink:href="#DejaVuSerif-6f" x="349.238281"/>
      <use xlink:href="#DejaVuSerif-72" x="409.443359"/>
      <use xlink:href="#DejaVuSerif-65" x="457.246094"/>
     </g>
    </g>
   </g>
   <g id="line2d_11">
    <path d="M 114.744545 268.037645 
L 124.689258 285.38248 
L 134.63397 287.31743 
L 144.578683 292.354538 
L 154.523395 294.123946 
L 164.468108 293.393094 
L 174.41282 295.481068 
L 184.357532 294.289694 
L 194.302245 297.275349 
L 204.246957 297.617612 
L 214.19167 297.965209 
L 224.136382 297.362588 
L 234.081095 296.67433 
L 244.025807 297.72176 
L 253.970519 298.483388 
L 263.915232 298.235762 
L 273.859944 297.527639 
L 283.804657 299.129171 
L 293.749369 297.019182 
L 303.694082 295.693629 
L 313.638794 297.23461 
L 323.583506 294.599563 
L 333.528219 297.503983 
L 343.472931 296.735296 
L 353.417644 297.266807 
L 363.362356 297.631093 
L 373.307069 298.004066 
L 383.251781 297.09125 
L 393.196494 295.11663 
L 403.141206 295.246224 
L 413.085918 293.94747 
L 423.030631 297.914837 
L 432.975343 296.903211 
L 442.920056 293.552425 
L 452.864768 294.902739 
L 462.809481 294.5951 
L 472.754193 294.548955 
L 482.698905 294.258739 
L 492.643618 292.62945 
L 502.58833 293.308652 
L 512.533043 294.761613 
L 522.477755 295.605885 
L 532.422468 294.937428 
L 542.36718 293.161805 
L 552.311892 294.170358 
L 562.256605 290.355803 
L 572.201317 294.837362 
L 582.14603 295.79519 
L 592.090742 294.584688 
L 602.035455 291.696536 
" clip-path="url(#p390aec1dc5)" style="fill: none; stroke: #ff0000; stroke-width: 1.5; stroke-linecap: square"/>
   </g>
   <g id="line2d_12">
    <path d="M 114.744545 132.134974 
L 124.689258 193.563849 
L 134.63397 243.955084 
L 144.578683 229.623988 
L 154.523395 237.077573 
L 164.468108 243.888871 
L 174.41282 236.64294 
L 184.357532 261.809984 
L 194.302245 254.610339 
L 204.246957 252.130886 
L 214.19167 245.885481 
L 224.136382 244.760805 
L 234.081095 244.827295 
L 244.025807 243.921958 
L 253.970519 254.891842 
L 263.915232 247.230042 
L 273.859944 239.608428 
L 283.804657 231.759638 
L 293.749369 247.493951 
L 303.694082 238.637547 
L 313.638794 238.147181 
L 323.583506 248.707504 
L 333.528219 232.975251 
L 343.472931 229.596551 
L 353.417644 245.7217 
L 363.362356 242.97432 
L 373.307069 247.573988 
L 383.251781 228.890108 
L 393.196494 240.373624 
L 403.141206 242.514349 
L 413.085918 230.895353 
L 423.030631 238.621528 
L 432.975343 240.125443 
L 442.920056 239.369888 
L 452.864768 231.393836 
L 462.809481 237.147618 
L 472.754193 232.765299 
L 482.698905 236.744179 
L 492.643618 222.746414 
L 502.58833 230.966316 
L 512.533043 243.67505 
L 522.477755 226.049831 
L 532.422468 240.040171 
L 542.36718 235.874683 
L 552.311892 237.768936 
L 562.256605 224.780394 
L 572.201317 237.503246 
L 582.14603 240.972324 
L 592.090742 238.943157 
L 602.035455 238.471109 
" clip-path="url(#p390aec1dc5)" style="fill: none; stroke: #0000ff; stroke-width: 1.5; stroke-linecap: square"/>
   </g>
   <g id="line2d_13">
    <path d="M 114.744545 271.591806 
L 124.689258 293.440698 
L 134.63397 293.646255 
L 144.578683 294.201731 
L 154.523395 292.781276 
L 164.468108 296.495914 
L 174.41282 294.749546 
L 184.357532 296.381015 
L 194.302245 297.541793 
L 204.246957 296.237511 
L 214.19167 294.445556 
L 224.136382 296.527073 
L 234.081095 294.333485 
L 244.025807 294.633198 
L 253.970519 296.576922 
L 263.915232 296.836284 
L 273.859944 293.938488 
L 283.804657 293.139078 
L 293.749369 292.753561 
L 303.694082 291.540749 
L 313.638794 289.005483 
L 323.583506 290.492723 
L 333.528219 289.042784 
L 343.472931 289.380151 
L 353.417644 288.564076 
L 363.362356 287.271865 
L 373.307069 285.893334 
L 383.251781 286.195316 
L 393.196494 287.227726 
L 403.141206 282.566514 
L 413.085918 287.20119 
L 423.030631 288.147771 
L 432.975343 287.379231 
L 442.920056 288.483874 
L 452.864768 288.032826 
L 462.809481 287.845155 
L 472.754193 289.009079 
L 482.698905 287.159373 
L 492.643618 288.784179 
L 502.58833 288.928205 
L 512.533043 290.280693 
L 522.477755 288.642856 
L 532.422468 288.839744 
L 542.36718 287.81276 
L 552.311892 287.886232 
L 562.256605 289.566905 
L 572.201317 288.381466 
L 582.14603 288.148167 
L 592.090742 288.882212 
L 602.035455 286.906623 
" clip-path="url(#p390aec1dc5)" style="fill: none; stroke: #008000; stroke-width: 1.5; stroke-linecap: square"/>
   </g>
   <g id="line2d_14">
    <path d="M 114.744545 127.210036 
L 124.689258 162.371311 
L 134.63397 180.397536 
L 144.578683 197.290751 
L 154.523395 216.142435 
L 164.468108 242.558016 
L 174.41282 255.576438 
L 184.357532 264.552779 
L 194.302245 274.562714 
L 204.246957 282.228664 
L 214.19167 286.711511 
L 224.136382 277.339019 
L 234.081095 287.728394 
L 244.025807 281.632913 
L 253.970519 285.80583 
L 263.915232 290.616989 
L 273.859944 291.690156 
L 283.804657 286.008576 
L 293.749369 291.180582 
L 303.694082 292.366586 
L 313.638794 292.196028 
L 323.583506 291.737955 
L 333.528219 288.580224 
L 343.472931 289.618549 
L 353.417644 287.924324 
L 363.362356 290.737166 
L 373.307069 288.839185 
L 383.251781 290.845989 
L 393.196494 283.432678 
L 403.141206 292.015671 
L 413.085918 291.406799 
L 423.030631 294.188298 
L 432.975343 288.293197 
L 442.920056 290.980904 
L 452.864768 295.47035 
L 462.809481 290.209683 
L 472.754193 291.120395 
L 482.698905 288.55974 
L 492.643618 277.747688 
L 502.58833 290.739083 
L 512.533043 286.36866 
L 522.477755 293.231767 
L 532.422468 294.86497 
L 542.36718 293.654522 
L 552.311892 292.539343 
L 562.256605 290.69082 
L 572.201317 289.952725 
L 582.14603 291.285469 
L 592.090742 287.887336 
L 602.035455 290.676375 
" clip-path="url(#p390aec1dc5)" style="fill: none; stroke: #ff8c00; stroke-width: 1.5; stroke-linecap: square"/>
   </g>
   <g id="patch_3">
    <path d="M 90.38 324.52 
L 90.38 45.6 
" style="fill: none; stroke: #000000; stroke-width: 0.8; stroke-linejoin: miter; stroke-linecap: square"/>
   </g>
   <g id="patch_4">
    <path d="M 626.4 324.52 
L 626.4 45.6 
" style="fill: none; stroke: #000000; stroke-width: 0.8; stroke-linejoin: miter; stroke-linecap: square"/>
   </g>
   <g id="patch_5">
    <path d="M 90.38 324.52 
L 626.4 324.52 
" style="fill: none; stroke: #000000; stroke-width: 0.8; stroke-linejoin: miter; stroke-linecap: square"/>
   </g>
   <g id="patch_6">
    <path d="M 90.38 45.6 
L 626.4 45.6 
" style="fill: none; stroke: #000000; stroke-width: 0.8; stroke-linejoin: miter; stroke-linecap: square"/>
   </g>
   <g id="text_13">
    <!-- CelebA - 5 experiments -->
    <g transform="translate(216.266875 39.6)scale(0.24 -0.24)">
     <defs>
      <path id="DejaVuSerif-43" d="M 4513 1234 
Q 4306 581 3820 245 
Q 3334 -91 2591 -91 
Q 2134 -91 1743 65 
Q 1353 222 1050 525 
Q 700 875 529 1320 
Q 359 1766 359 2328 
Q 359 3416 987 4083 
Q 1616 4750 2644 4750 
Q 3025 4750 3456 4650 
Q 3888 4550 4384 4347 
L 4384 3272 
L 4031 3272 
Q 3916 3859 3567 4137 
Q 3219 4416 2591 4416 
Q 1844 4416 1459 3886 
Q 1075 3356 1075 2328 
Q 1075 1303 1459 773 
Q 1844 244 2591 244 
Q 3113 244 3450 492 
Q 3788 741 3938 1234 
L 4513 1234 
z
" transform="scale(0.015625)"/>
      <path id="DejaVuSerif-6c" d="M 1313 331 
L 1856 331 
L 1856 0 
L 184 0 
L 184 331 
L 738 331 
L 738 4531 
L 184 4531 
L 184 4863 
L 1313 4863 
L 1313 331 
z
" transform="scale(0.015625)"/>
      <path id="DejaVuSerif-62" d="M 738 331 
L 738 4531 
L 184 4531 
L 184 4863 
L 1313 4863 
L 1313 2803 
Q 1481 3116 1742 3264 
Q 2003 3413 2388 3413 
Q 3000 3413 3387 2928 
Q 3775 2444 3775 1663 
Q 3775 881 3387 395 
Q 3000 -91 2388 -91 
Q 2003 -91 1742 57 
Q 1481 206 1313 519 
L 1313 0 
L 184 0 
L 184 331 
L 738 331 
z
M 1313 1497 
Q 1313 897 1542 583 
Q 1772 269 2209 269 
Q 2650 269 2876 622 
Q 3103 975 3103 1663 
Q 3103 2353 2876 2703 
Q 2650 3053 2209 3053 
Q 1772 3053 1542 2737 
Q 1313 2422 1313 1825 
L 1313 1497 
z
" transform="scale(0.015625)"/>
      <path id="DejaVuSerif-41" d="M 1281 1691 
L 2994 1691 
L 2138 3909 
L 1281 1691 
z
M -38 0 
L -38 331 
L 372 331 
L 2034 4666 
L 2559 4666 
L 4225 331 
L 4684 331 
L 4684 0 
L 2988 0 
L 2988 331 
L 3506 331 
L 3116 1356 
L 1153 1356 
L 763 331 
L 1275 331 
L 1275 0 
L -38 0 
z
" transform="scale(0.015625)"/>
      <path id="DejaVuSerif-20" transform="scale(0.015625)"/>
      <path id="DejaVuSerif-78" d="M 1863 2028 
L 2559 2988 
L 2113 2988 
L 2113 3322 
L 3391 3322 
L 3391 2988 
L 2950 2988 
L 2059 1759 
L 3097 331 
L 3531 331 
L 3531 0 
L 1997 0 
L 1997 331 
L 2419 331 
L 1697 1325 
L 972 331 
L 1403 331 
L 1403 0 
L 141 0 
L 141 331 
L 581 331 
L 1497 1594 
L 488 2988 
L 78 2988 
L 78 3322 
L 1563 3322 
L 1563 2988 
L 1166 2988 
L 1863 2028 
z
" transform="scale(0.015625)"/>
      <path id="DejaVuSerif-69" d="M 622 4353 
Q 622 4497 726 4603 
Q 831 4709 978 4709 
Q 1122 4709 1226 4603 
Q 1331 4497 1331 4353 
Q 1331 4206 1228 4103 
Q 1125 4000 978 4000 
Q 831 4000 726 4103 
Q 622 4206 622 4353 
z
M 1356 331 
L 1900 331 
L 1900 0 
L 231 0 
L 231 331 
L 781 331 
L 781 2988 
L 231 2988 
L 231 3322 
L 1356 3322 
L 1356 331 
z
" transform="scale(0.015625)"/>
      <path id="DejaVuSerif-6d" d="M 3316 2675 
Q 3481 3041 3739 3227 
Q 3997 3413 4341 3413 
Q 4863 3413 5119 3089 
Q 5375 2766 5375 2113 
L 5375 331 
L 5894 331 
L 5894 0 
L 4300 0 
L 4300 331 
L 4800 331 
L 4800 2047 
Q 4800 2556 4650 2772 
Q 4500 2988 4153 2988 
Q 3769 2988 3567 2697 
Q 3366 2406 3366 1850 
L 3366 331 
L 3866 331 
L 3866 0 
L 2291 0 
L 2291 331 
L 2791 331 
L 2791 2069 
Q 2791 2566 2641 2777 
Q 2491 2988 2144 2988 
Q 1759 2988 1557 2697 
Q 1356 2406 1356 1850 
L 1356 331 
L 1856 331 
L 1856 0 
L 263 0 
L 263 331 
L 781 331 
L 781 2994 
L 231 2994 
L 231 3322 
L 1356 3322 
L 1356 2731 
Q 1516 3063 1762 3238 
Q 2009 3413 2322 3413 
Q 2709 3413 2968 3220 
Q 3228 3028 3316 2675 
z
" transform="scale(0.015625)"/>
      <path id="DejaVuSerif-6e" d="M 263 0 
L 263 331 
L 781 331 
L 781 2988 
L 231 2988 
L 231 3322 
L 1356 3322 
L 1356 2731 
Q 1516 3069 1770 3241 
Q 2025 3413 2363 3413 
Q 2913 3413 3172 3097 
Q 3431 2781 3431 2113 
L 3431 331 
L 3944 331 
L 3944 0 
L 2356 0 
L 2356 331 
L 2853 331 
L 2853 1931 
Q 2853 2541 2703 2767 
Q 2553 2994 2175 2994 
Q 1775 2994 1565 2701 
Q 1356 2409 1356 1850 
L 1356 331 
L 1856 331 
L 1856 0 
L 263 0 
z
" transform="scale(0.015625)"/>
      <path id="DejaVuSerif-74" d="M 691 2988 
L 184 2988 
L 184 3322 
L 691 3322 
L 691 4353 
L 1269 4353 
L 1269 3322 
L 2350 3322 
L 2350 2988 
L 1269 2988 
L 1269 878 
Q 1269 456 1350 337 
Q 1431 219 1650 219 
Q 1875 219 1978 351 
Q 2081 484 2088 781 
L 2522 781 
Q 2497 328 2275 118 
Q 2053 -91 1600 -91 
Q 1103 -91 897 129 
Q 691 350 691 878 
L 691 2988 
z
" transform="scale(0.015625)"/>
     </defs>
     <use xlink:href="#DejaVuSerif-43"/>
     <use xlink:href="#DejaVuSerif-65" x="76.513672"/>
     <use xlink:href="#DejaVuSerif-6c" x="135.693359"/>
     <use xlink:href="#DejaVuSerif-65" x="167.675781"/>
     <use xlink:href="#DejaVuSerif-62" x="226.855469"/>
     <use xlink:href="#DejaVuSerif-41" x="290.869141"/>
     <use xlink:href="#DejaVuSerif-20" x="363.085938"/>
     <use xlink:href="#DejaVuSerif-2d" x="394.873047"/>
     <use xlink:href="#DejaVuSerif-20" x="428.662109"/>
     <use xlink:href="#DejaVuSerif-35" x="460.449219"/>
     <use xlink:href="#DejaVuSerif-20" x="524.072266"/>
     <use xlink:href="#DejaVuSerif-65" x="555.859375"/>
     <use xlink:href="#DejaVuSerif-78" x="615.039062"/>
     <use xlink:href="#DejaVuSerif-70" x="671.435547"/>
     <use xlink:href="#DejaVuSerif-65" x="735.449219"/>
     <use xlink:href="#DejaVuSerif-72" x="794.628906"/>
     <use xlink:href="#DejaVuSerif-69" x="842.431641"/>
     <use xlink:href="#DejaVuSerif-6d" x="874.414062"/>
     <use xlink:href="#DejaVuSerif-65" x="969.238281"/>
     <use xlink:href="#DejaVuSerif-6e" x="1028.417969"/>
     <use xlink:href="#DejaVuSerif-74" x="1092.822266"/>
     <use xlink:href="#DejaVuSerif-73" x="1133.007812"/>
    </g>
   </g>
   <g id="legend_1">
    <g id="patch_7">
     <path d="M 438.403125 179.025 
L 612.4 179.025 
Q 616.4 179.025 616.4 175.025 
L 616.4 59.6 
Q 616.4 55.6 612.4 55.6 
L 438.403125 55.6 
Q 434.403125 55.6 434.403125 59.6 
L 434.403125 175.025 
Q 434.403125 179.025 438.403125 179.025 
z
" style="fill: #ffffff; opacity: 0.8; stroke: #cccccc; stroke-linejoin: miter"/>
    </g>
    <g id="line2d_15">
     <path d="M 442.403125 71.796875 
L 462.403125 71.796875 
L 482.403125 71.796875 
" style="fill: none; stroke: #ff0000; stroke-width: 1.5; stroke-linecap: square"/>
    </g>
    <g id="text_14">
     <!-- GAN -->
     <g transform="translate(498.403125 78.796875)scale(0.2 -0.2)">
      <defs>
       <path id="DejaVuSerif-47" d="M 4097 3272 
Q 3988 3856 3641 4136 
Q 3294 4416 2675 4416 
Q 1869 4416 1472 3897 
Q 1075 3378 1075 2328 
Q 1075 1300 1484 772 
Q 1894 244 2688 244 
Q 3041 244 3362 331 
Q 3684 419 3975 594 
L 3975 1797 
L 3097 1797 
L 3097 2131 
L 4609 2131 
L 4609 391 
Q 4194 150 3714 29 
Q 3234 -91 2688 -91 
Q 1631 -91 995 570 
Q 359 1231 359 2328 
Q 359 3434 996 4092 
Q 1634 4750 2713 4750 
Q 3113 4750 3539 4658 
Q 3966 4566 4447 4378 
L 4447 3272 
L 4097 3272 
z
" transform="scale(0.015625)"/>
       <path id="DejaVuSerif-4e" d="M 313 0 
L 313 331 
L 941 331 
L 941 4331 
L 313 4331 
L 313 4666 
L 1509 4666 
L 4306 984 
L 4306 4331 
L 3681 4331 
L 3681 4666 
L 5319 4666 
L 5319 4331 
L 4691 4331 
L 4691 -91 
L 4313 -91 
L 1325 3841 
L 1325 331 
L 1953 331 
L 1953 0 
L 313 0 
z
" transform="scale(0.015625)"/>
      </defs>
      <use xlink:href="#DejaVuSerif-47"/>
      <use xlink:href="#DejaVuSerif-41" x="79.882812"/>
      <use xlink:href="#DejaVuSerif-4e" x="152.099609"/>
     </g>
    </g>
    <g id="line2d_16">
     <path d="M 442.403125 101.153125 
L 462.403125 101.153125 
L 482.403125 101.153125 
" style="fill: none; stroke: #0000ff; stroke-width: 1.5; stroke-linecap: square"/>
    </g>
    <g id="text_15">
     <!-- WGAN-SN -->
     <g transform="translate(498.403125 108.153125)scale(0.2 -0.2)">
      <defs>
       <path id="DejaVuSerif-57" d="M 4878 0 
L 4366 0 
L 3297 3794 
L 2228 0 
L 1716 0 
L 494 4331 
L 31 4331 
L 31 4666 
L 1734 4666 
L 1734 4331 
L 1153 4331 
L 2125 884 
L 3188 4666 
L 3694 4666 
L 4775 844 
L 5753 4331 
L 5216 4331 
L 5216 4666 
L 6559 4666 
L 6559 4331 
L 6100 4331 
L 4878 0 
z
" transform="scale(0.015625)"/>
      </defs>
      <use xlink:href="#DejaVuSerif-57"/>
      <use xlink:href="#DejaVuSerif-47" x="102.783203"/>
      <use xlink:href="#DejaVuSerif-41" x="182.666016"/>
      <use xlink:href="#DejaVuSerif-4e" x="254.882812"/>
      <use xlink:href="#DejaVuSerif-2d" x="342.382812"/>
      <use xlink:href="#DejaVuSerif-53" x="376.171875"/>
      <use xlink:href="#DejaVuSerif-4e" x="444.677734"/>
     </g>
    </g>
    <g id="line2d_17">
     <path d="M 442.403125 130.509375 
L 462.403125 130.509375 
L 482.403125 130.509375 
" style="fill: none; stroke: #008000; stroke-width: 1.5; stroke-linecap: square"/>
    </g>
    <g id="text_16">
     <!-- WGAN-WC -->
     <g transform="translate(498.403125 137.509375)scale(0.2 -0.2)">
      <use xlink:href="#DejaVuSerif-57"/>
      <use xlink:href="#DejaVuSerif-47" x="102.783203"/>
      <use xlink:href="#DejaVuSerif-41" x="182.666016"/>
      <use xlink:href="#DejaVuSerif-4e" x="254.882812"/>
      <use xlink:href="#DejaVuSerif-2d" x="342.382812"/>
      <use xlink:href="#DejaVuSerif-57" x="370.671875"/>
      <use xlink:href="#DejaVuSerif-43" x="473.455078"/>
     </g>
    </g>
    <g id="line2d_18">
     <path d="M 442.403125 159.865625 
L 462.403125 159.865625 
L 482.403125 159.865625 
" style="fill: none; stroke: #ff8c00; stroke-width: 1.5; stroke-linecap: square"/>
    </g>
    <g id="text_17">
     <!-- WGAN-GP -->
     <g transform="translate(498.403125 166.865625)scale(0.2 -0.2)">
      <defs>
       <path id="DejaVuSerif-50" d="M 1581 2375 
L 2406 2375 
Q 2872 2375 3115 2626 
Q 3359 2878 3359 3353 
Q 3359 3831 3115 4081 
Q 2872 4331 2406 4331 
L 1581 4331 
L 1581 2375 
z
M 353 0 
L 353 331 
L 947 331 
L 947 4331 
L 353 4331 
L 353 4666 
L 2559 4666 
Q 3259 4666 3668 4311 
Q 4078 3956 4078 3353 
Q 4078 2753 3668 2397 
Q 3259 2041 2559 2041 
L 1581 2041 
L 1581 331 
L 2303 331 
L 2303 0 
L 353 0 
z
" transform="scale(0.015625)"/>
      </defs>
      <use xlink:href="#DejaVuSerif-57"/>
      <use xlink:href="#DejaVuSerif-47" x="102.783203"/>
      <use xlink:href="#DejaVuSerif-41" x="182.666016"/>
      <use xlink:href="#DejaVuSerif-4e" x="254.882812"/>
      <use xlink:href="#DejaVuSerif-2d" x="342.382812"/>
      <use xlink:href="#DejaVuSerif-47" x="376.171875"/>
      <use xlink:href="#DejaVuSerif-50" x="456.054688"/>
     </g>
    </g>
   </g>
  </g>
 </g>
 <defs>
  <clipPath id="p390aec1dc5">
   <rect x="90.38" y="45.6" width="536.02" height="278.92"/>
  </clipPath>
 </defs>
</svg>
