<?xml version="1.0" encoding="utf-8" standalone="no"?>
<!DOCTYPE svg PUBLIC "-//W3C//DTD SVG 1.1//EN"
  "http://www.w3.org/Graphics/SVG/1.1/DTD/svg11.dtd">
<svg xmlns:xlink="http://www.w3.org/1999/xlink" width="648pt" height="396pt" viewBox="0 0 648 396" xmlns="http://www.w3.org/2000/svg" version="1.1">
 <metadata>
  <rdf:RDF xmlns:dc="http://purl.org/dc/elements/1.1/" xmlns:cc="http://creativecommons.org/ns#" xmlns:rdf="http://www.w3.org/1999/02/22-rdf-syntax-ns#">
   <cc:Work>
    <dc:type rdf:resource="http://purl.org/dc/dcmitype/StillImage"/>
    <dc:date>2022-12-08T09:24:04.878396</dc:date>
    <dc:format>image/svg+xml</dc:format>
    <dc:creator>
     <cc:Agent>
      <dc:title>Matplotlib v3.5.3, https://matplotlib.org/</dc:title>
     </cc:Agent>
    </dc:creator>
   </cc:Work>
  </rdf:RDF>
 </metadata>
 <defs>
  <style type="text/css">*{stroke-linejoin: round; stroke-linecap: butt}</style>
 </defs>
 <g id="figure_1">
  <g id="patch_1">
   <path d="M 0 396 
L 648 396 
L 648 0 
L 0 0 
z
" style="fill: #ffffff"/>
  </g>
  <g id="axes_1">
   <g id="patch_2">
    <path d="M 77.51 324.52 
L 626.4 324.52 
L 626.4 45.6 
L 77.51 45.6 
z
" style="fill: #ffffff"/>
   </g>
   <g id="PolyCollection_1">
    <defs>
     <path id="m5d18372faf" d="M 102.459545 -461.928493 
L 102.459545 -229.520477 
L 112.643033 -142.431058 
L 122.826521 -128.026176 
L 133.010009 -124.172275 
L 143.193497 -121.414249 
L 153.376985 -118.671687 
L 163.560473 -119.041301 
L 173.743961 -119.213526 
L 183.927449 -116.537609 
L 194.110937 -117.818352 
L 204.294425 -117.91043 
L 214.477913 -117.889431 
L 224.661401 -118.152298 
L 234.844889 -119.374226 
L 245.028377 -118.312633 
L 255.211865 -118.152815 
L 265.395353 -117.86272 
L 275.57884 -118.18388 
L 285.762328 -115.665308 
L 295.945816 -115.933116 
L 306.129304 -114.936406 
L 316.312792 -116.82771 
L 326.49628 -114.584941 
L 336.679768 -113.66326 
L 346.863256 -114.084994 
L 357.046744 -113.946794 
L 367.230232 -112.882949 
L 377.41372 -111.474776 
L 387.597208 -111.606021 
L 397.780696 -109.532794 
L 407.964184 -109.645478 
L 418.147672 -110.446525 
L 428.33116 -109.135425 
L 438.514647 -108.843614 
L 448.698135 -109.051325 
L 458.881623 -107.059249 
L 469.065111 -106.880256 
L 479.248599 -104.726505 
L 489.432087 -105.643058 
L 499.615575 -105.155615 
L 509.799063 -104.936817 
L 519.982551 -104.125374 
L 530.166039 -103.728403 
L 540.349527 -102.51396 
L 550.533015 -104.0904 
L 560.716503 -102.443568 
L 570.899991 -100.837341 
L 581.083479 -101.877016 
L 591.266967 -100.733489 
L 601.450455 -98.63495 
L 601.450455 -143.755998 
L 601.450455 -143.755998 
L 591.266967 -144.156666 
L 581.083479 -143.776289 
L 570.899991 -142.231274 
L 560.716503 -142.118772 
L 550.533015 -142.180317 
L 540.349527 -139.968768 
L 530.166039 -140.026311 
L 519.982551 -138.90843 
L 509.799063 -138.595918 
L 499.615575 -137.588871 
L 489.432087 -136.610943 
L 479.248599 -134.824064 
L 469.065111 -135.21538 
L 458.881623 -134.332818 
L 448.698135 -134.88532 
L 438.514647 -133.704601 
L 428.33116 -132.652903 
L 418.147672 -132.700327 
L 407.964184 -130.679114 
L 397.780696 -129.54283 
L 387.597208 -129.998118 
L 377.41372 -129.118411 
L 367.230232 -128.532037 
L 357.046744 -129.86855 
L 346.863256 -127.612946 
L 336.679768 -126.144362 
L 326.49628 -125.971138 
L 316.312792 -126.558124 
L 306.129304 -124.061207 
L 295.945816 -123.817007 
L 285.762328 -124.651164 
L 275.57884 -124.989354 
L 265.395353 -124.69473 
L 255.211865 -124.458469 
L 245.028377 -123.445837 
L 234.844889 -124.038389 
L 224.661401 -122.905009 
L 214.477913 -123.356649 
L 204.294425 -126.266603 
L 194.110937 -127.383076 
L 183.927449 -129.332663 
L 173.743961 -132.28649 
L 163.560473 -132.314014 
L 153.376985 -133.632588 
L 143.193497 -139.699537 
L 133.010009 -145.590212 
L 122.826521 -159.969051 
L 112.643033 -203.740003 
L 102.459545 -461.928493 
z
" style="stroke: #ff0000; stroke-opacity: 0.4"/>
    </defs>
    <g clip-path="url(#p6d93e8f679)">
     <use xlink:href="#m5d18372faf" x="0" y="396" style="fill: #ff0000; fill-opacity: 0.4; stroke: #ff0000; stroke-opacity: 0.4"/>
    </g>
   </g>
   <g id="PolyCollection_2">
    <path d="M 102.459545 -1021.012286 
L 102.459545 -112.814517 
L 112.643033 257.046636 
L 122.826521 257.731312 
L 133.010009 260.937564 
L 143.193497 263.089163 
L 153.376985 261.241468 
L 163.560473 261.039118 
L 173.743961 258.113738 
L 183.927449 259.325276 
L 194.110937 260.421875 
L 204.294425 260.906565 
L 214.477913 260.833059 
L 224.661401 258.991305 
L 234.844889 260.290524 
L 245.028377 259.101497 
L 255.211865 259.535552 
L 265.395353 257.87919 
L 275.57884 256.638159 
L 285.762328 256.368179 
L 295.945816 259.794985 
L 306.129304 253.794112 
L 316.312792 256.399721 
L 326.49628 256.763643 
L 336.679768 259.486935 
L 346.863256 256.05928 
L 357.046744 260.089503 
L 367.230232 256.989334 
L 377.41372 258.815326 
L 387.597208 260.487491 
L 397.780696 258.832075 
L 407.964184 259.044294 
L 418.147672 259.598477 
L 428.33116 260.168655 
L 438.514647 261.435427 
L 448.698135 256.144645 
L 458.881623 261.6242 
L 469.065111 262.492961 
L 479.248599 264.831633 
L 489.432087 262.664684 
L 499.615575 264.093322 
L 509.799063 263.839762 
L 519.982551 265.771784 
L 530.166039 263.5195 
L 540.349527 264.522274 
L 550.533015 266.031595 
L 560.716503 265.502814 
L 570.899991 267.537211 
L 581.083479 267.199026 
L 591.266967 268.619576 
L 601.450455 269.293756 
L 601.450455 232.64495 
L 601.450455 232.64495 
L 591.266967 233.240935 
L 581.083479 233.051814 
L 570.899991 233.765201 
L 560.716503 234.409564 
L 550.533015 235.4882 
L 540.349527 234.747016 
L 530.166039 235.671554 
L 519.982551 238.851852 
L 509.799063 238.195067 
L 499.615575 239.408397 
L 489.432087 238.869656 
L 479.248599 242.292346 
L 469.065111 241.473303 
L 458.881623 241.691311 
L 448.698135 239.595887 
L 438.514647 241.925865 
L 428.33116 242.560987 
L 418.147672 243.886058 
L 407.964184 245.776197 
L 397.780696 244.623943 
L 387.597208 246.087105 
L 377.41372 244.231608 
L 367.230232 244.610214 
L 357.046744 249.744397 
L 346.863256 246.960524 
L 336.679768 250.777902 
L 326.49628 246.734612 
L 316.312792 250.504761 
L 306.129304 248.498513 
L 295.945816 247.824219 
L 285.762328 246.104502 
L 275.57884 244.542173 
L 265.395353 245.932913 
L 255.211865 248.663693 
L 245.028377 246.797979 
L 234.844889 246.009933 
L 224.661401 245.777055 
L 214.477913 246.955412 
L 204.294425 246.032575 
L 194.110937 241.610762 
L 183.927449 240.296492 
L 173.743961 235.842126 
L 163.560473 238.488451 
L 153.376985 238.10194 
L 143.193497 237.915896 
L 133.010009 233.595074 
L 122.826521 229.185216 
L 112.643033 159.944318 
L 102.459545 -1021.012286 
z
" clip-path="url(#p6d93e8f679)" style="fill: #0000ff; fill-opacity: 0.4; stroke: #0000ff; stroke-opacity: 0.4"/>
   </g>
   <g id="PolyCollection_3">
    <defs>
     <path id="m8266a91193" d="M 102.459545 -390.877724 
L 102.459545 -172.728221 
L 112.643033 -98.763693 
L 122.826521 -121.968983 
L 133.010009 -119.694113 
L 143.193497 -118.545459 
L 153.376985 -118.806275 
L 163.560473 -119.266675 
L 173.743961 -119.356917 
L 183.927449 -119.025688 
L 194.110937 -119.653526 
L 204.294425 -119.346292 
L 214.477913 -120.405015 
L 224.661401 -120.321633 
L 234.844889 -120.633929 
L 245.028377 -121.353488 
L 255.211865 -123.412402 
L 265.395353 -120.921099 
L 275.57884 -121.420975 
L 285.762328 -121.045984 
L 295.945816 -119.938845 
L 306.129304 -120.414857 
L 316.312792 -119.790126 
L 326.49628 -118.13735 
L 336.679768 -117.564465 
L 346.863256 -117.4529 
L 357.046744 -117.098869 
L 367.230232 -116.82485 
L 377.41372 -117.159322 
L 387.597208 -117.016006 
L 397.780696 -114.97737 
L 407.964184 -113.647706 
L 418.147672 -114.580475 
L 428.33116 -112.662802 
L 438.514647 -113.981116 
L 448.698135 -113.407327 
L 458.881623 -111.932378 
L 469.065111 -111.813144 
L 479.248599 -112.529877 
L 489.432087 -111.444835 
L 499.615575 -112.834612 
L 509.799063 -108.987649 
L 519.982551 -109.081047 
L 530.166039 -105.863173 
L 540.349527 -108.23655 
L 550.533015 -108.085878 
L 560.716503 -107.778173 
L 570.899991 -106.806829 
L 581.083479 -106.7635 
L 591.266967 -106.243144 
L 601.450455 -103.654397 
L 601.450455 -147.175218 
L 601.450455 -147.175218 
L 591.266967 -147.992927 
L 581.083479 -147.150752 
L 570.899991 -146.435522 
L 560.716503 -145.620296 
L 550.533015 -144.992671 
L 540.349527 -144.083353 
L 530.166039 -141.19201 
L 519.982551 -142.298693 
L 509.799063 -141.346105 
L 499.615575 -143.108982 
L 489.432087 -140.72023 
L 479.248599 -141.305642 
L 469.065111 -138.829022 
L 458.881623 -137.602497 
L 448.698135 -137.857414 
L 438.514647 -136.884182 
L 428.33116 -135.106622 
L 418.147672 -135.189286 
L 407.964184 -133.833332 
L 397.780696 -134.208022 
L 387.597208 -134.167081 
L 377.41372 -132.767328 
L 367.230232 -131.38003 
L 357.046744 -130.98508 
L 346.863256 -129.393564 
L 336.679768 -128.93907 
L 326.49628 -128.262193 
L 316.312792 -129.354952 
L 306.129304 -127.637374 
L 295.945816 -127.676135 
L 285.762328 -129.153063 
L 275.57884 -127.435362 
L 265.395353 -126.393296 
L 255.211865 -128.611364 
L 245.028377 -127.114405 
L 234.844889 -126.524065 
L 224.661401 -126.209951 
L 214.477913 -127.591447 
L 204.294425 -126.479287 
L 194.110937 -128.185363 
L 183.927449 -130.507885 
L 173.743961 -131.648252 
L 163.560473 -132.178321 
L 153.376985 -133.691108 
L 143.193497 -134.100081 
L 133.010009 -137.758904 
L 122.826521 -144.854366 
L 112.643033 -242.745873 
L 102.459545 -390.877724 
z
" style="stroke: #008000; stroke-opacity: 0.4"/>
    </defs>
    <g clip-path="url(#p6d93e8f679)">
     <use xlink:href="#m8266a91193" x="0" y="396" style="fill: #008000; fill-opacity: 0.4; stroke: #008000; stroke-opacity: 0.4"/>
    </g>
   </g>
   <g id="PolyCollection_4">
    <path d="M 102.459545 -254.55745 
L 102.459545 68.534813 
L 112.643033 64.586285 
L 122.826521 347.729072 
L 133.010009 333.845703 
L 143.193497 301.694004 
L 153.376985 259.774728 
L 163.560473 263.010267 
L 173.743961 264.393327 
L 183.927449 264.48048 
L 194.110937 266.977205 
L 204.294425 266.484137 
L 214.477913 266.509715 
L 224.661401 267.677809 
L 234.844889 267.546055 
L 245.028377 265.225998 
L 255.211865 270.66205 
L 265.395353 270.800065 
L 275.57884 268.810055 
L 285.762328 271.176043 
L 295.945816 273.852211 
L 306.129304 269.834804 
L 316.312792 269.708279 
L 326.49628 268.013365 
L 336.679768 267.270413 
L 346.863256 271.380737 
L 357.046744 268.659157 
L 367.230232 271.012566 
L 377.41372 270.746705 
L 387.597208 270.219187 
L 397.780696 272.060053 
L 407.964184 270.76578 
L 418.147672 272.35138 
L 428.33116 272.105687 
L 438.514647 273.000308 
L 448.698135 272.766513 
L 458.881623 273.331918 
L 469.065111 274.304034 
L 479.248599 274.210778 
L 489.432087 274.887588 
L 499.615575 275.613403 
L 509.799063 277.261069 
L 519.982551 279.509878 
L 530.166039 274.935643 
L 540.349527 277.854144 
L 550.533015 278.089853 
L 560.716503 278.256585 
L 570.899991 279.037668 
L 581.083479 278.289184 
L 591.266967 279.343525 
L 601.450455 279.927214 
L 601.450455 236.22718 
L 601.450455 236.22718 
L 591.266967 233.591393 
L 581.083479 235.988563 
L 570.899991 240.711716 
L 560.716503 241.786077 
L 550.533015 242.854636 
L 540.349527 243.20999 
L 530.166039 240.551656 
L 519.982551 246.724752 
L 509.799063 243.853692 
L 499.615575 244.459458 
L 489.432087 245.525721 
L 479.248599 246.036639 
L 469.065111 245.532986 
L 458.881623 245.534221 
L 448.698135 249.190082 
L 438.514647 247.025523 
L 428.33116 246.841829 
L 418.147672 250.786715 
L 407.964184 249.285555 
L 397.780696 251.668865 
L 387.597208 246.384466 
L 377.41372 250.686721 
L 367.230232 249.445676 
L 357.046744 249.810647 
L 346.863256 250.774466 
L 336.679768 253.210286 
L 326.49628 252.469601 
L 316.312792 250.838461 
L 306.129304 250.846566 
L 295.945816 248.842257 
L 285.762328 252.623028 
L 275.57884 251.914775 
L 265.395353 250.123789 
L 255.211865 248.73794 
L 245.028377 250.219893 
L 234.844889 247.370915 
L 224.661401 250.739502 
L 214.477913 248.277326 
L 204.294425 247.433725 
L 194.110937 245.273387 
L 183.927449 243.969135 
L 173.743961 237.532262 
L 163.560473 239.946016 
L 153.376985 230.405603 
L 143.193497 129.968867 
L 133.010009 -18.555372 
L 122.826521 -381.082207 
L 112.643033 -696.49706 
L 102.459545 -254.55745 
z
" clip-path="url(#p6d93e8f679)" style="fill: #ff8c00; fill-opacity: 0.4; stroke: #ff8c00; stroke-opacity: 0.4"/>
   </g>
   <g id="matplotlib.axis_1">
    <g id="xtick_1">
     <g id="line2d_1">
      <defs>
       <path id="mc3a18494dc" d="M 0 0 
L 0 3.5 
" style="stroke: #000000; stroke-width: 0.8"/>
      </defs>
      <g>
       <use xlink:href="#mc3a18494dc" x="102.459545" y="324.52" style="stroke: #000000; stroke-width: 0.8"/>
      </g>
     </g>
     <g id="text_1">
      <!-- 0 -->
      <g transform="translate(96.097045 346.716875)scale(0.2 -0.2)">
       <defs>
        <path id="DejaVuSerif-30" d="M 2034 219 
Q 2513 219 2750 744 
Q 2988 1269 2988 2328 
Q 2988 3391 2750 3916 
Q 2513 4441 2034 4441 
Q 1556 4441 1318 3916 
Q 1081 3391 1081 2328 
Q 1081 1269 1318 744 
Q 1556 219 2034 219 
z
M 2034 -91 
Q 1275 -91 848 546 
Q 422 1184 422 2328 
Q 422 3475 848 4112 
Q 1275 4750 2034 4750 
Q 2797 4750 3222 4112 
Q 3647 3475 3647 2328 
Q 3647 1184 3222 546 
Q 2797 -91 2034 -91 
z
" transform="scale(0.015625)"/>
       </defs>
       <use xlink:href="#DejaVuSerif-30"/>
      </g>
     </g>
    </g>
    <g id="xtick_2">
     <g id="line2d_2">
      <g>
       <use xlink:href="#mc3a18494dc" x="204.294425" y="324.52" style="stroke: #000000; stroke-width: 0.8"/>
      </g>
     </g>
     <g id="text_2">
      <!-- 10 -->
      <g transform="translate(191.569425 346.716875)scale(0.2 -0.2)">
       <defs>
        <path id="DejaVuSerif-31" d="M 909 0 
L 909 331 
L 1722 331 
L 1722 4213 
L 781 3603 
L 781 4013 
L 1919 4750 
L 2350 4750 
L 2350 331 
L 3163 331 
L 3163 0 
L 909 0 
z
" transform="scale(0.015625)"/>
       </defs>
       <use xlink:href="#DejaVuSerif-31"/>
       <use xlink:href="#DejaVuSerif-30" x="63.623047"/>
      </g>
     </g>
    </g>
    <g id="xtick_3">
     <g id="line2d_3">
      <g>
       <use xlink:href="#mc3a18494dc" x="306.129304" y="324.52" style="stroke: #000000; stroke-width: 0.8"/>
      </g>
     </g>
     <g id="text_3">
      <!-- 20 -->
      <g transform="translate(293.404304 346.716875)scale(0.2 -0.2)">
       <defs>
        <path id="DejaVuSerif-32" d="M 819 3553 
L 469 3553 
L 469 4384 
Q 803 4563 1142 4656 
Q 1481 4750 1806 4750 
Q 2534 4750 2956 4397 
Q 3378 4044 3378 3438 
Q 3378 2753 2422 1800 
Q 2347 1728 2309 1691 
L 1131 513 
L 3078 513 
L 3078 1088 
L 3444 1088 
L 3444 0 
L 434 0 
L 434 341 
L 1850 1753 
Q 2319 2222 2519 2614 
Q 2719 3006 2719 3438 
Q 2719 3909 2473 4175 
Q 2228 4441 1797 4441 
Q 1350 4441 1106 4219 
Q 863 3997 819 3553 
z
" transform="scale(0.015625)"/>
       </defs>
       <use xlink:href="#DejaVuSerif-32"/>
       <use xlink:href="#DejaVuSerif-30" x="63.623047"/>
      </g>
     </g>
    </g>
    <g id="xtick_4">
     <g id="line2d_4">
      <g>
       <use xlink:href="#mc3a18494dc" x="407.964184" y="324.52" style="stroke: #000000; stroke-width: 0.8"/>
      </g>
     </g>
     <g id="text_4">
      <!-- 30 -->
      <g transform="translate(395.239184 346.716875)scale(0.2 -0.2)">
       <defs>
        <path id="DejaVuSerif-33" d="M 622 4469 
Q 988 4606 1323 4678 
Q 1659 4750 1953 4750 
Q 2638 4750 3022 4454 
Q 3406 4159 3406 3634 
Q 3406 3213 3140 2930 
Q 2875 2647 2388 2547 
Q 2963 2466 3280 2130 
Q 3597 1794 3597 1259 
Q 3597 606 3158 257 
Q 2719 -91 1894 -91 
Q 1528 -91 1179 -12 
Q 831 66 488 225 
L 488 1131 
L 838 1131 
Q 869 681 1141 450 
Q 1413 219 1906 219 
Q 2384 219 2661 495 
Q 2938 772 2938 1253 
Q 2938 1803 2653 2086 
Q 2369 2369 1819 2369 
L 1522 2369 
L 1522 2688 
L 1678 2688 
Q 2225 2688 2498 2914 
Q 2772 3141 2772 3597 
Q 2772 4006 2547 4223 
Q 2322 4441 1900 4441 
Q 1478 4441 1245 4241 
Q 1013 4041 972 3647 
L 622 3647 
L 622 4469 
z
" transform="scale(0.015625)"/>
       </defs>
       <use xlink:href="#DejaVuSerif-33"/>
       <use xlink:href="#DejaVuSerif-30" x="63.623047"/>
      </g>
     </g>
    </g>
    <g id="xtick_5">
     <g id="line2d_5">
      <g>
       <use xlink:href="#mc3a18494dc" x="509.799063" y="324.52" style="stroke: #000000; stroke-width: 0.8"/>
      </g>
     </g>
     <g id="text_5">
      <!-- 40 -->
      <g transform="translate(497.074063 346.716875)scale(0.2 -0.2)">
       <defs>
        <path id="DejaVuSerif-34" d="M 2234 1581 
L 2234 4063 
L 641 1581 
L 2234 1581 
z
M 3609 0 
L 1484 0 
L 1484 331 
L 2234 331 
L 2234 1247 
L 197 1247 
L 197 1588 
L 2241 4750 
L 2859 4750 
L 2859 1581 
L 3750 1581 
L 3750 1247 
L 2859 1247 
L 2859 331 
L 3609 331 
L 3609 0 
z
" transform="scale(0.015625)"/>
       </defs>
       <use xlink:href="#DejaVuSerif-34"/>
       <use xlink:href="#DejaVuSerif-30" x="63.623047"/>
      </g>
     </g>
    </g>
    <g id="xtick_6">
     <g id="line2d_6">
      <g>
       <use xlink:href="#mc3a18494dc" x="611.633942" y="324.52" style="stroke: #000000; stroke-width: 0.8"/>
      </g>
     </g>
     <g id="text_6">
      <!-- 50 -->
      <g transform="translate(598.908942 346.716875)scale(0.2 -0.2)">
       <defs>
        <path id="DejaVuSerif-35" d="M 3219 4666 
L 3219 4153 
L 1081 4153 
L 1081 2816 
Q 1244 2928 1461 2984 
Q 1678 3041 1947 3041 
Q 2703 3041 3140 2622 
Q 3578 2203 3578 1478 
Q 3578 738 3136 323 
Q 2694 -91 1894 -91 
Q 1572 -91 1234 -12 
Q 897 66 544 225 
L 544 1131 
L 897 1131 
Q 925 688 1179 453 
Q 1434 219 1894 219 
Q 2388 219 2653 544 
Q 2919 869 2919 1478 
Q 2919 2084 2655 2407 
Q 2391 2731 1894 2731 
Q 1613 2731 1398 2631 
Q 1184 2531 1019 2322 
L 750 2322 
L 750 4666 
L 3219 4666 
z
" transform="scale(0.015625)"/>
       </defs>
       <use xlink:href="#DejaVuSerif-35"/>
       <use xlink:href="#DejaVuSerif-30" x="63.623047"/>
      </g>
     </g>
    </g>
    <g id="text_7">
     <!-- Epochs -->
     <g transform="translate(315.06125 370.073125)scale(0.2 -0.2)">
      <defs>
       <path id="DejaVuSerif-45" d="M 353 0 
L 353 331 
L 947 331 
L 947 4331 
L 353 4331 
L 353 4666 
L 4109 4666 
L 4109 3628 
L 3725 3628 
L 3725 4281 
L 1581 4281 
L 1581 2719 
L 3109 2719 
L 3109 3303 
L 3494 3303 
L 3494 1753 
L 3109 1753 
L 3109 2338 
L 1581 2338 
L 1581 384 
L 3775 384 
L 3775 1038 
L 4159 1038 
L 4159 0 
L 353 0 
z
" transform="scale(0.015625)"/>
       <path id="DejaVuSerif-70" d="M 1313 1825 
L 1313 1497 
Q 1313 897 1542 583 
Q 1772 269 2209 269 
Q 2650 269 2876 622 
Q 3103 975 3103 1663 
Q 3103 2353 2876 2703 
Q 2650 3053 2209 3053 
Q 1772 3053 1542 2737 
Q 1313 2422 1313 1825 
z
M 738 2988 
L 184 2988 
L 184 3322 
L 1313 3322 
L 1313 2803 
Q 1481 3116 1742 3264 
Q 2003 3413 2388 3413 
Q 3000 3413 3387 2928 
Q 3775 2444 3775 1663 
Q 3775 881 3387 395 
Q 3000 -91 2388 -91 
Q 2003 -91 1742 57 
Q 1481 206 1313 519 
L 1313 -997 
L 1856 -997 
L 1856 -1331 
L 184 -1331 
L 184 -997 
L 738 -997 
L 738 2988 
z
" transform="scale(0.015625)"/>
       <path id="DejaVuSerif-6f" d="M 1925 219 
Q 2388 219 2623 584 
Q 2859 950 2859 1663 
Q 2859 2375 2623 2739 
Q 2388 3103 1925 3103 
Q 1463 3103 1227 2739 
Q 991 2375 991 1663 
Q 991 950 1228 584 
Q 1466 219 1925 219 
z
M 1925 -91 
Q 1200 -91 759 389 
Q 319 869 319 1663 
Q 319 2456 758 2934 
Q 1197 3413 1925 3413 
Q 2653 3413 3092 2934 
Q 3531 2456 3531 1663 
Q 3531 869 3092 389 
Q 2653 -91 1925 -91 
z
" transform="scale(0.015625)"/>
       <path id="DejaVuSerif-63" d="M 3291 997 
Q 3169 466 2822 187 
Q 2475 -91 1925 -91 
Q 1200 -91 759 389 
Q 319 869 319 1663 
Q 319 2459 759 2936 
Q 1200 3413 1925 3413 
Q 2241 3413 2553 3339 
Q 2866 3266 3181 3116 
L 3181 2266 
L 2847 2266 
Q 2781 2703 2561 2903 
Q 2341 3103 1931 3103 
Q 1466 3103 1228 2742 
Q 991 2381 991 1663 
Q 991 944 1227 581 
Q 1463 219 1931 219 
Q 2303 219 2525 412 
Q 2747 606 2828 997 
L 3291 997 
z
" transform="scale(0.015625)"/>
       <path id="DejaVuSerif-68" d="M 263 0 
L 263 331 
L 781 331 
L 781 4531 
L 231 4531 
L 231 4863 
L 1356 4863 
L 1356 2731 
Q 1516 3069 1770 3241 
Q 2025 3413 2363 3413 
Q 2913 3413 3172 3097 
Q 3431 2781 3431 2113 
L 3431 331 
L 3944 331 
L 3944 0 
L 2356 0 
L 2356 331 
L 2853 331 
L 2853 1931 
Q 2853 2541 2704 2764 
Q 2556 2988 2175 2988 
Q 1775 2988 1565 2697 
Q 1356 2406 1356 1850 
L 1356 331 
L 1856 331 
L 1856 0 
L 263 0 
z
" transform="scale(0.015625)"/>
       <path id="DejaVuSerif-73" d="M 359 184 
L 359 959 
L 691 959 
Q 703 588 923 403 
Q 1144 219 1575 219 
Q 1963 219 2166 364 
Q 2369 509 2369 788 
Q 2369 1006 2220 1140 
Q 2072 1275 1594 1428 
L 1178 1569 
Q 750 1706 558 1912 
Q 366 2119 366 2438 
Q 366 2894 700 3153 
Q 1034 3413 1625 3413 
Q 1888 3413 2178 3344 
Q 2469 3275 2778 3144 
L 2778 2419 
L 2447 2419 
Q 2434 2741 2221 2922 
Q 2009 3103 1644 3103 
Q 1281 3103 1095 2975 
Q 909 2847 909 2591 
Q 909 2381 1050 2254 
Q 1191 2128 1613 1997 
L 2069 1856 
Q 2541 1709 2748 1489 
Q 2956 1269 2956 922 
Q 2956 450 2595 179 
Q 2234 -91 1600 -91 
Q 1278 -91 972 -22 
Q 666 47 359 184 
z
" transform="scale(0.015625)"/>
      </defs>
      <use xlink:href="#DejaVuSerif-45"/>
      <use xlink:href="#DejaVuSerif-70" x="72.998047"/>
      <use xlink:href="#DejaVuSerif-6f" x="137.011719"/>
      <use xlink:href="#DejaVuSerif-63" x="197.216797"/>
      <use xlink:href="#DejaVuSerif-68" x="253.222656"/>
      <use xlink:href="#DejaVuSerif-73" x="317.626953"/>
     </g>
    </g>
   </g>
   <g id="matplotlib.axis_2">
    <g id="ytick_1">
     <g id="line2d_7">
      <defs>
       <path id="mc5a650f024" d="M 0 0 
L -3.5 0 
" style="stroke: #000000; stroke-width: 0.8"/>
      </defs>
      <g>
       <use xlink:href="#mc5a650f024" x="77.51" y="324.52" style="stroke: #000000; stroke-width: 0.8"/>
      </g>
     </g>
     <g id="text_8">
      <!-- 0 -->
      <g transform="translate(57.785 332.118438)scale(0.2 -0.2)">
       <use xlink:href="#DejaVuSerif-30"/>
      </g>
     </g>
    </g>
    <g id="ytick_2">
     <g id="line2d_8">
      <g>
       <use xlink:href="#mc5a650f024" x="77.51" y="254.79" style="stroke: #000000; stroke-width: 0.8"/>
      </g>
     </g>
     <g id="text_9">
      <!-- 20 -->
      <g transform="translate(45.06 262.388438)scale(0.2 -0.2)">
       <use xlink:href="#DejaVuSerif-32"/>
       <use xlink:href="#DejaVuSerif-30" x="63.623047"/>
      </g>
     </g>
    </g>
    <g id="ytick_3">
     <g id="line2d_9">
      <g>
       <use xlink:href="#mc5a650f024" x="77.51" y="185.06" style="stroke: #000000; stroke-width: 0.8"/>
      </g>
     </g>
     <g id="text_10">
      <!-- 40 -->
      <g transform="translate(45.06 192.658437)scale(0.2 -0.2)">
       <use xlink:href="#DejaVuSerif-34"/>
       <use xlink:href="#DejaVuSerif-30" x="63.623047"/>
      </g>
     </g>
    </g>
    <g id="ytick_4">
     <g id="line2d_10">
      <g>
       <use xlink:href="#mc5a650f024" x="77.51" y="115.33" style="stroke: #000000; stroke-width: 0.8"/>
      </g>
     </g>
     <g id="text_11">
      <!-- 60 -->
      <g transform="translate(45.06 122.928437)scale(0.2 -0.2)">
       <defs>
        <path id="DejaVuSerif-36" d="M 2094 219 
Q 2534 219 2771 542 
Q 3009 866 3009 1472 
Q 3009 2078 2771 2401 
Q 2534 2725 2094 2725 
Q 1647 2725 1412 2412 
Q 1178 2100 1178 1509 
Q 1178 888 1415 553 
Q 1653 219 2094 219 
z
M 1075 2569 
Q 1288 2803 1556 2918 
Q 1825 3034 2163 3034 
Q 2859 3034 3264 2615 
Q 3669 2197 3669 1472 
Q 3669 763 3233 336 
Q 2797 -91 2069 -91 
Q 1278 -91 853 498 
Q 428 1088 428 2181 
Q 428 3406 931 4078 
Q 1434 4750 2350 4750 
Q 2597 4750 2869 4703 
Q 3141 4656 3425 4563 
L 3425 3794 
L 3072 3794 
Q 3034 4109 2831 4275 
Q 2628 4441 2284 4441 
Q 1678 4441 1381 3981 
Q 1084 3522 1075 2569 
z
" transform="scale(0.015625)"/>
       </defs>
       <use xlink:href="#DejaVuSerif-36"/>
       <use xlink:href="#DejaVuSerif-30" x="63.623047"/>
      </g>
     </g>
    </g>
    <g id="ytick_5">
     <g id="line2d_11">
      <g>
       <use xlink:href="#mc5a650f024" x="77.51" y="45.6" style="stroke: #000000; stroke-width: 0.8"/>
      </g>
     </g>
     <g id="text_12">
      <!-- 80 -->
      <g transform="translate(45.06 53.198437)scale(0.2 -0.2)">
       <defs>
        <path id="DejaVuSerif-38" d="M 2981 1275 
Q 2981 1775 2732 2051 
Q 2484 2328 2034 2328 
Q 1584 2328 1336 2051 
Q 1088 1775 1088 1275 
Q 1088 772 1336 495 
Q 1584 219 2034 219 
Q 2484 219 2732 495 
Q 2981 772 2981 1275 
z
M 2853 3541 
Q 2853 3966 2637 4203 
Q 2422 4441 2034 4441 
Q 1650 4441 1433 4203 
Q 1216 3966 1216 3541 
Q 1216 3113 1433 2875 
Q 1650 2638 2034 2638 
Q 2422 2638 2637 2875 
Q 2853 3113 2853 3541 
z
M 2516 2484 
Q 3047 2413 3344 2092 
Q 3641 1772 3641 1275 
Q 3641 619 3225 264 
Q 2809 -91 2034 -91 
Q 1263 -91 845 264 
Q 428 619 428 1275 
Q 428 1772 725 2092 
Q 1022 2413 1556 2484 
Q 1084 2569 832 2842 
Q 581 3116 581 3541 
Q 581 4103 968 4426 
Q 1356 4750 2034 4750 
Q 2713 4750 3100 4426 
Q 3488 4103 3488 3541 
Q 3488 3116 3236 2842 
Q 2984 2569 2516 2484 
z
" transform="scale(0.015625)"/>
       </defs>
       <use xlink:href="#DejaVuSerif-38"/>
       <use xlink:href="#DejaVuSerif-30" x="63.623047"/>
      </g>
     </g>
    </g>
    <g id="text_13">
     <!-- FID-Score -->
     <g transform="translate(36.900625 236.702188)rotate(-90)scale(0.2 -0.2)">
      <defs>
       <path id="DejaVuSerif-46" d="M 353 0 
L 353 331 
L 947 331 
L 947 4331 
L 353 4331 
L 353 4666 
L 4172 4666 
L 4172 3628 
L 3788 3628 
L 3788 4281 
L 1581 4281 
L 1581 2719 
L 3175 2719 
L 3175 3303 
L 3559 3303 
L 3559 1753 
L 3175 1753 
L 3175 2338 
L 1581 2338 
L 1581 331 
L 2328 331 
L 2328 0 
L 353 0 
z
" transform="scale(0.015625)"/>
       <path id="DejaVuSerif-49" d="M 1581 331 
L 2175 331 
L 2175 0 
L 353 0 
L 353 331 
L 947 331 
L 947 4331 
L 353 4331 
L 353 4666 
L 2175 4666 
L 2175 4331 
L 1581 4331 
L 1581 331 
z
" transform="scale(0.015625)"/>
       <path id="DejaVuSerif-44" d="M 1581 331 
L 2163 331 
Q 3072 331 3558 850 
Q 4044 1369 4044 2338 
Q 4044 3306 3559 3818 
Q 3075 4331 2163 4331 
L 1581 4331 
L 1581 331 
z
M 353 0 
L 353 331 
L 947 331 
L 947 4331 
L 353 4331 
L 353 4666 
L 2209 4666 
Q 3416 4666 4089 4050 
Q 4763 3434 4763 2338 
Q 4763 1238 4088 619 
Q 3413 0 2209 0 
L 353 0 
z
" transform="scale(0.015625)"/>
       <path id="DejaVuSerif-2d" d="M 281 1959 
L 1881 1959 
L 1881 1472 
L 281 1472 
L 281 1959 
z
" transform="scale(0.015625)"/>
       <path id="DejaVuSerif-53" d="M 594 225 
L 594 1288 
L 953 1284 
Q 969 753 1261 498 
Q 1553 244 2150 244 
Q 2706 244 2998 464 
Q 3291 684 3291 1106 
Q 3291 1444 3114 1625 
Q 2938 1806 2369 1978 
L 1753 2163 
Q 1084 2366 811 2669 
Q 538 2972 538 3500 
Q 538 4094 959 4422 
Q 1381 4750 2144 4750 
Q 2469 4750 2856 4679 
Q 3244 4609 3681 4475 
L 3681 3481 
L 3328 3481 
Q 3275 3975 2998 4195 
Q 2722 4416 2156 4416 
Q 1663 4416 1405 4214 
Q 1147 4013 1147 3628 
Q 1147 3294 1340 3103 
Q 1534 2913 2163 2725 
L 2741 2553 
Q 3375 2363 3645 2067 
Q 3916 1772 3916 1275 
Q 3916 597 3481 253 
Q 3047 -91 2188 -91 
Q 1803 -91 1404 -12 
Q 1006 66 594 225 
z
" transform="scale(0.015625)"/>
       <path id="DejaVuSerif-72" d="M 3059 3328 
L 3059 2497 
L 2728 2497 
Q 2713 2744 2591 2866 
Q 2469 2988 2234 2988 
Q 1809 2988 1582 2694 
Q 1356 2400 1356 1850 
L 1356 331 
L 2022 331 
L 2022 0 
L 263 0 
L 263 331 
L 781 331 
L 781 2994 
L 231 2994 
L 231 3322 
L 1356 3322 
L 1356 2731 
Q 1525 3078 1790 3245 
Q 2056 3413 2438 3413 
Q 2578 3413 2733 3391 
Q 2888 3369 3059 3328 
z
" transform="scale(0.015625)"/>
       <path id="DejaVuSerif-65" d="M 3469 1600 
L 991 1600 
L 991 1575 
Q 991 903 1244 561 
Q 1497 219 1991 219 
Q 2369 219 2611 417 
Q 2853 616 2950 1006 
L 3413 1006 
Q 3275 459 2904 184 
Q 2534 -91 1931 -91 
Q 1203 -91 761 389 
Q 319 869 319 1663 
Q 319 2450 753 2931 
Q 1188 3413 1894 3413 
Q 2647 3413 3050 2948 
Q 3453 2484 3469 1600 
z
M 2791 1931 
Q 2772 2513 2545 2808 
Q 2319 3103 1894 3103 
Q 1497 3103 1269 2806 
Q 1041 2509 991 1931 
L 2791 1931 
z
" transform="scale(0.015625)"/>
      </defs>
      <use xlink:href="#DejaVuSerif-46"/>
      <use xlink:href="#DejaVuSerif-49" x="69.384766"/>
      <use xlink:href="#DejaVuSerif-44" x="108.886719"/>
      <use xlink:href="#DejaVuSerif-2d" x="190.9375"/>
      <use xlink:href="#DejaVuSerif-53" x="224.726562"/>
      <use xlink:href="#DejaVuSerif-63" x="293.232422"/>
      <use xlink:href="#DejaVuSerif-6f" x="349.238281"/>
      <use xlink:href="#DejaVuSerif-72" x="409.443359"/>
      <use xlink:href="#DejaVuSerif-65" x="457.246094"/>
     </g>
    </g>
   </g>
   <g id="line2d_12">
    <path d="M 102.459545 50.275515 
L 112.643033 222.91447 
L 122.826521 252.002387 
L 133.010009 261.118757 
L 143.193497 265.443107 
L 153.376985 269.847863 
L 163.560473 270.322342 
L 173.743961 270.249992 
L 183.927449 273.064864 
L 194.110937 273.399286 
L 204.294425 273.911484 
L 214.477913 275.37696 
L 224.661401 275.471347 
L 234.844889 274.293692 
L 245.028377 275.120765 
L 255.211865 274.694358 
L 265.395353 274.721275 
L 275.57884 274.413383 
L 285.762328 275.841764 
L 295.945816 276.124938 
L 306.129304 276.501194 
L 316.312792 274.307083 
L 326.49628 275.721961 
L 336.679768 276.096189 
L 346.863256 275.15103 
L 357.046744 274.092328 
L 367.230232 275.292507 
L 377.41372 275.703407 
L 387.597208 275.19793 
L 397.780696 276.462188 
L 407.964184 275.837704 
L 418.147672 274.426574 
L 428.33116 275.105836 
L 438.514647 274.725892 
L 448.698135 274.031678 
L 458.881623 275.303967 
L 469.065111 274.952182 
L 479.248599 276.224716 
L 489.432087 274.872999 
L 499.615575 274.627757 
L 509.799063 274.233633 
L 519.982551 274.483098 
L 530.166039 274.122643 
L 540.349527 274.758636 
L 550.533015 272.864641 
L 560.716503 273.71883 
L 570.899991 274.465692 
L 581.083479 273.173347 
L 591.266967 273.554923 
L 601.450455 274.804526 
" clip-path="url(#p6d93e8f679)" style="fill: none; stroke: #ff0000; stroke-width: 1.5; stroke-linecap: square"/>
   </g>
   <g id="line2d_13">
    <path d="M 109.891718 -1 
L 112.643033 208.495477 
L 122.826521 243.458264 
L 133.010009 247.266319 
L 143.193497 250.50253 
L 153.376985 249.671704 
L 163.560473 249.763785 
L 173.743961 246.977932 
L 183.927449 249.810884 
L 194.110937 251.016319 
L 204.294425 253.46957 
L 214.477913 253.894236 
L 224.661401 252.38418 
L 234.844889 253.150229 
L 245.028377 252.949738 
L 255.211865 254.099623 
L 265.395353 251.906052 
L 275.57884 250.590166 
L 285.762328 251.236341 
L 295.945816 253.809602 
L 306.129304 251.146313 
L 316.312792 253.452241 
L 326.49628 251.749127 
L 336.679768 255.132419 
L 346.863256 251.509902 
L 357.046744 254.91695 
L 367.230232 250.799774 
L 377.41372 251.523467 
L 387.597208 253.287298 
L 397.780696 251.728009 
L 407.964184 252.410246 
L 418.147672 251.742267 
L 428.33116 251.364821 
L 438.514647 251.680646 
L 448.698135 247.870266 
L 458.881623 251.657756 
L 469.065111 251.983132 
L 479.248599 253.561989 
L 489.432087 250.76717 
L 499.615575 251.75086 
L 509.799063 251.017415 
L 519.982551 252.311818 
L 530.166039 249.595527 
L 540.349527 249.634645 
L 550.533015 250.759897 
L 560.716503 249.956189 
L 570.899991 250.651206 
L 581.083479 250.12542 
L 591.266967 250.930255 
L 601.450455 250.969353 
" clip-path="url(#p6d93e8f679)" style="fill: none; stroke: #0000ff; stroke-width: 1.5; stroke-linecap: square"/>
   </g>
   <g id="line2d_14">
    <path d="M 102.459545 114.197027 
L 112.643033 225.245217 
L 122.826521 262.588326 
L 133.010009 267.273491 
L 143.193497 269.67723 
L 153.376985 269.751309 
L 163.560473 270.277502 
L 173.743961 270.497416 
L 183.927449 271.233214 
L 194.110937 272.080555 
L 204.294425 273.08721 
L 214.477913 272.001769 
L 224.661401 272.734208 
L 234.844889 272.421003 
L 245.028377 271.766053 
L 255.211865 269.988117 
L 265.395353 272.342803 
L 275.57884 271.571831 
L 285.762328 270.900477 
L 295.945816 272.19251 
L 306.129304 271.973884 
L 316.312792 271.427461 
L 326.49628 272.800229 
L 336.679768 272.748232 
L 346.863256 272.576768 
L 357.046744 271.958026 
L 367.230232 271.89756 
L 377.41372 271.036675 
L 387.597208 270.408456 
L 397.780696 271.407304 
L 407.964184 272.259481 
L 418.147672 271.11512 
L 428.33116 272.115288 
L 438.514647 270.567351 
L 448.698135 270.367629 
L 458.881623 271.232562 
L 469.065111 270.678917 
L 479.248599 269.082241 
L 489.432087 269.917467 
L 499.615575 268.028203 
L 509.799063 270.833123 
L 519.982551 270.31013 
L 530.166039 272.472409 
L 540.349527 269.840049 
L 550.533015 269.460726 
L 560.716503 269.300765 
L 570.899991 269.378824 
L 581.083479 269.042874 
L 591.266967 268.881965 
L 601.450455 270.585192 
" clip-path="url(#p6d93e8f679)" style="fill: none; stroke: #008000; stroke-width: 1.5; stroke-linecap: square"/>
   </g>
   <g id="line2d_15">
    <path d="M 123.742312 -1 
L 133.010009 157.645166 
L 143.193497 215.831436 
L 153.376985 245.090165 
L 163.560473 251.478141 
L 173.743961 250.962794 
L 183.927449 254.224807 
L 194.110937 256.125296 
L 204.294425 256.958931 
L 214.477913 257.393521 
L 224.661401 259.208655 
L 234.844889 257.458485 
L 245.028377 257.722946 
L 255.211865 259.699995 
L 265.395353 260.461927 
L 275.57884 260.362415 
L 285.762328 261.899536 
L 295.945816 261.347234 
L 306.129304 260.340685 
L 316.312792 260.27337 
L 326.49628 260.241483 
L 336.679768 260.24035 
L 346.863256 261.077602 
L 357.046744 259.234902 
L 367.230232 260.229121 
L 377.41372 260.716713 
L 387.597208 258.301826 
L 397.780696 261.864459 
L 407.964184 260.025667 
L 418.147672 261.569047 
L 428.33116 259.473758 
L 438.514647 260.012916 
L 448.698135 260.978297 
L 458.881623 259.43307 
L 469.065111 259.91851 
L 479.248599 260.123708 
L 489.432087 260.206655 
L 499.615575 260.036431 
L 509.799063 260.557381 
L 519.982551 263.117315 
L 530.166039 257.743649 
L 540.349527 260.532067 
L 550.533015 260.472245 
L 560.716503 260.021331 
L 570.899991 259.874692 
L 581.083479 257.138874 
L 591.266967 256.467459 
L 601.450455 258.077197 
" clip-path="url(#p6d93e8f679)" style="fill: none; stroke: #ff8c00; stroke-width: 1.5; stroke-linecap: square"/>
   </g>
   <g id="patch_3">
    <path d="M 77.51 324.52 
L 77.51 45.6 
" style="fill: none; stroke: #000000; stroke-width: 0.8; stroke-linejoin: miter; stroke-linecap: square"/>
   </g>
   <g id="patch_4">
    <path d="M 626.4 324.52 
L 626.4 45.6 
" style="fill: none; stroke: #000000; stroke-width: 0.8; stroke-linejoin: miter; stroke-linecap: square"/>
   </g>
   <g id="patch_5">
    <path d="M 77.51 324.52 
L 626.4 324.52 
" style="fill: none; stroke: #000000; stroke-width: 0.8; stroke-linejoin: miter; stroke-linecap: square"/>
   </g>
   <g id="patch_6">
    <path d="M 77.51 45.6 
L 626.4 45.6 
" style="fill: none; stroke: #000000; stroke-width: 0.8; stroke-linejoin: miter; stroke-linecap: square"/>
   </g>
   <g id="text_14">
    <!-- MNIST - 10 experiments -->
    <g transform="translate(202.01875 39.6)scale(0.24 -0.24)">
     <defs>
      <path id="DejaVuSerif-4d" d="M 353 0 
L 353 331 
L 947 331 
L 947 4331 
L 319 4331 
L 319 4666 
L 1678 4666 
L 3316 1344 
L 4953 4666 
L 6228 4666 
L 6228 4331 
L 5606 4331 
L 5606 331 
L 6203 331 
L 6203 0 
L 4378 0 
L 4378 331 
L 4972 331 
L 4972 3938 
L 3372 684 
L 2931 684 
L 1331 3938 
L 1331 331 
L 1925 331 
L 1925 0 
L 353 0 
z
" transform="scale(0.015625)"/>
      <path id="DejaVuSerif-4e" d="M 313 0 
L 313 331 
L 941 331 
L 941 4331 
L 313 4331 
L 313 4666 
L 1509 4666 
L 4306 984 
L 4306 4331 
L 3681 4331 
L 3681 4666 
L 5319 4666 
L 5319 4331 
L 4691 4331 
L 4691 -91 
L 4313 -91 
L 1325 3841 
L 1325 331 
L 1953 331 
L 1953 0 
L 313 0 
z
" transform="scale(0.015625)"/>
      <path id="DejaVuSerif-54" d="M 1222 0 
L 1222 331 
L 1819 331 
L 1819 4294 
L 447 4294 
L 447 3566 
L 63 3566 
L 63 4666 
L 4206 4666 
L 4206 3566 
L 3822 3566 
L 3822 4294 
L 2450 4294 
L 2450 331 
L 3047 331 
L 3047 0 
L 1222 0 
z
" transform="scale(0.015625)"/>
      <path id="DejaVuSerif-20" transform="scale(0.015625)"/>
      <path id="DejaVuSerif-78" d="M 1863 2028 
L 2559 2988 
L 2113 2988 
L 2113 3322 
L 3391 3322 
L 3391 2988 
L 2950 2988 
L 2059 1759 
L 3097 331 
L 3531 331 
L 3531 0 
L 1997 0 
L 1997 331 
L 2419 331 
L 1697 1325 
L 972 331 
L 1403 331 
L 1403 0 
L 141 0 
L 141 331 
L 581 331 
L 1497 1594 
L 488 2988 
L 78 2988 
L 78 3322 
L 1563 3322 
L 1563 2988 
L 1166 2988 
L 1863 2028 
z
" transform="scale(0.015625)"/>
      <path id="DejaVuSerif-69" d="M 622 4353 
Q 622 4497 726 4603 
Q 831 4709 978 4709 
Q 1122 4709 1226 4603 
Q 1331 4497 1331 4353 
Q 1331 4206 1228 4103 
Q 1125 4000 978 4000 
Q 831 4000 726 4103 
Q 622 4206 622 4353 
z
M 1356 331 
L 1900 331 
L 1900 0 
L 231 0 
L 231 331 
L 781 331 
L 781 2988 
L 231 2988 
L 231 3322 
L 1356 3322 
L 1356 331 
z
" transform="scale(0.015625)"/>
      <path id="DejaVuSerif-6d" d="M 3316 2675 
Q 3481 3041 3739 3227 
Q 3997 3413 4341 3413 
Q 4863 3413 5119 3089 
Q 5375 2766 5375 2113 
L 5375 331 
L 5894 331 
L 5894 0 
L 4300 0 
L 4300 331 
L 4800 331 
L 4800 2047 
Q 4800 2556 4650 2772 
Q 4500 2988 4153 2988 
Q 3769 2988 3567 2697 
Q 3366 2406 3366 1850 
L 3366 331 
L 3866 331 
L 3866 0 
L 2291 0 
L 2291 331 
L 2791 331 
L 2791 2069 
Q 2791 2566 2641 2777 
Q 2491 2988 2144 2988 
Q 1759 2988 1557 2697 
Q 1356 2406 1356 1850 
L 1356 331 
L 1856 331 
L 1856 0 
L 263 0 
L 263 331 
L 781 331 
L 781 2994 
L 231 2994 
L 231 3322 
L 1356 3322 
L 1356 2731 
Q 1516 3063 1762 3238 
Q 2009 3413 2322 3413 
Q 2709 3413 2968 3220 
Q 3228 3028 3316 2675 
z
" transform="scale(0.015625)"/>
      <path id="DejaVuSerif-6e" d="M 263 0 
L 263 331 
L 781 331 
L 781 2988 
L 231 2988 
L 231 3322 
L 1356 3322 
L 1356 2731 
Q 1516 3069 1770 3241 
Q 2025 3413 2363 3413 
Q 2913 3413 3172 3097 
Q 3431 2781 3431 2113 
L 3431 331 
L 3944 331 
L 3944 0 
L 2356 0 
L 2356 331 
L 2853 331 
L 2853 1931 
Q 2853 2541 2703 2767 
Q 2553 2994 2175 2994 
Q 1775 2994 1565 2701 
Q 1356 2409 1356 1850 
L 1356 331 
L 1856 331 
L 1856 0 
L 263 0 
z
" transform="scale(0.015625)"/>
      <path id="DejaVuSerif-74" d="M 691 2988 
L 184 2988 
L 184 3322 
L 691 3322 
L 691 4353 
L 1269 4353 
L 1269 3322 
L 2350 3322 
L 2350 2988 
L 1269 2988 
L 1269 878 
Q 1269 456 1350 337 
Q 1431 219 1650 219 
Q 1875 219 1978 351 
Q 2081 484 2088 781 
L 2522 781 
Q 2497 328 2275 118 
Q 2053 -91 1600 -91 
Q 1103 -91 897 129 
Q 691 350 691 878 
L 691 2988 
z
" transform="scale(0.015625)"/>
     </defs>
     <use xlink:href="#DejaVuSerif-4d"/>
     <use xlink:href="#DejaVuSerif-4e" x="102.392578"/>
     <use xlink:href="#DejaVuSerif-49" x="189.892578"/>
     <use xlink:href="#DejaVuSerif-53" x="229.394531"/>
     <use xlink:href="#DejaVuSerif-54" x="297.900391"/>
     <use xlink:href="#DejaVuSerif-20" x="364.599609"/>
     <use xlink:href="#DejaVuSerif-2d" x="396.386719"/>
     <use xlink:href="#DejaVuSerif-20" x="430.175781"/>
     <use xlink:href="#DejaVuSerif-31" x="461.962891"/>
     <use xlink:href="#DejaVuSerif-30" x="525.585938"/>
     <use xlink:href="#DejaVuSerif-20" x="589.208984"/>
     <use xlink:href="#DejaVuSerif-65" x="620.996094"/>
     <use xlink:href="#DejaVuSerif-78" x="680.175781"/>
     <use xlink:href="#DejaVuSerif-70" x="736.572266"/>
     <use xlink:href="#DejaVuSerif-65" x="800.585938"/>
     <use xlink:href="#DejaVuSerif-72" x="859.765625"/>
     <use xlink:href="#DejaVuSerif-69" x="907.568359"/>
     <use xlink:href="#DejaVuSerif-6d" x="939.550781"/>
     <use xlink:href="#DejaVuSerif-65" x="1034.375"/>
     <use xlink:href="#DejaVuSerif-6e" x="1093.554688"/>
     <use xlink:href="#DejaVuSerif-74" x="1157.958984"/>
     <use xlink:href="#DejaVuSerif-73" x="1198.144531"/>
    </g>
   </g>
   <g id="legend_1">
    <g id="patch_7">
     <path d="M 438.403125 179.025 
L 612.4 179.025 
Q 616.4 179.025 616.4 175.025 
L 616.4 59.6 
Q 616.4 55.6 612.4 55.6 
L 438.403125 55.6 
Q 434.403125 55.6 434.403125 59.6 
L 434.403125 175.025 
Q 434.403125 179.025 438.403125 179.025 
z
" style="fill: #ffffff; opacity: 0.8; stroke: #cccccc; stroke-linejoin: miter"/>
    </g>
    <g id="line2d_16">
     <path d="M 442.403125 71.796875 
L 462.403125 71.796875 
L 482.403125 71.796875 
" style="fill: none; stroke: #ff0000; stroke-width: 1.5; stroke-linecap: square"/>
    </g>
    <g id="text_15">
     <!-- GAN -->
     <g transform="translate(498.403125 78.796875)scale(0.2 -0.2)">
      <defs>
       <path id="DejaVuSerif-47" d="M 4097 3272 
Q 3988 3856 3641 4136 
Q 3294 4416 2675 4416 
Q 1869 4416 1472 3897 
Q 1075 3378 1075 2328 
Q 1075 1300 1484 772 
Q 1894 244 2688 244 
Q 3041 244 3362 331 
Q 3684 419 3975 594 
L 3975 1797 
L 3097 1797 
L 3097 2131 
L 4609 2131 
L 4609 391 
Q 4194 150 3714 29 
Q 3234 -91 2688 -91 
Q 1631 -91 995 570 
Q 359 1231 359 2328 
Q 359 3434 996 4092 
Q 1634 4750 2713 4750 
Q 3113 4750 3539 4658 
Q 3966 4566 4447 4378 
L 4447 3272 
L 4097 3272 
z
" transform="scale(0.015625)"/>
       <path id="DejaVuSerif-41" d="M 1281 1691 
L 2994 1691 
L 2138 3909 
L 1281 1691 
z
M -38 0 
L -38 331 
L 372 331 
L 2034 4666 
L 2559 4666 
L 4225 331 
L 4684 331 
L 4684 0 
L 2988 0 
L 2988 331 
L 3506 331 
L 3116 1356 
L 1153 1356 
L 763 331 
L 1275 331 
L 1275 0 
L -38 0 
z
" transform="scale(0.015625)"/>
      </defs>
      <use xlink:href="#DejaVuSerif-47"/>
      <use xlink:href="#DejaVuSerif-41" x="79.882812"/>
      <use xlink:href="#DejaVuSerif-4e" x="152.099609"/>
     </g>
    </g>
    <g id="line2d_17">
     <path d="M 442.403125 101.153125 
L 462.403125 101.153125 
L 482.403125 101.153125 
" style="fill: none; stroke: #0000ff; stroke-width: 1.5; stroke-linecap: square"/>
    </g>
    <g id="text_16">
     <!-- WGAN-SN -->
     <g transform="translate(498.403125 108.153125)scale(0.2 -0.2)">
      <defs>
       <path id="DejaVuSerif-57" d="M 4878 0 
L 4366 0 
L 3297 3794 
L 2228 0 
L 1716 0 
L 494 4331 
L 31 4331 
L 31 4666 
L 1734 4666 
L 1734 4331 
L 1153 4331 
L 2125 884 
L 3188 4666 
L 3694 4666 
L 4775 844 
L 5753 4331 
L 5216 4331 
L 5216 4666 
L 6559 4666 
L 6559 4331 
L 6100 4331 
L 4878 0 
z
" transform="scale(0.015625)"/>
      </defs>
      <use xlink:href="#DejaVuSerif-57"/>
      <use xlink:href="#DejaVuSerif-47" x="102.783203"/>
      <use xlink:href="#DejaVuSerif-41" x="182.666016"/>
      <use xlink:href="#DejaVuSerif-4e" x="254.882812"/>
      <use xlink:href="#DejaVuSerif-2d" x="342.382812"/>
      <use xlink:href="#DejaVuSerif-53" x="376.171875"/>
      <use xlink:href="#DejaVuSerif-4e" x="444.677734"/>
     </g>
    </g>
    <g id="line2d_18">
     <path d="M 442.403125 130.509375 
L 462.403125 130.509375 
L 482.403125 130.509375 
" style="fill: none; stroke: #008000; stroke-width: 1.5; stroke-linecap: square"/>
    </g>
    <g id="text_17">
     <!-- WGAN-WC -->
     <g transform="translate(498.403125 137.509375)scale(0.2 -0.2)">
      <defs>
       <path id="DejaVuSerif-43" d="M 4513 1234 
Q 4306 581 3820 245 
Q 3334 -91 2591 -91 
Q 2134 -91 1743 65 
Q 1353 222 1050 525 
Q 700 875 529 1320 
Q 359 1766 359 2328 
Q 359 3416 987 4083 
Q 1616 4750 2644 4750 
Q 3025 4750 3456 4650 
Q 3888 4550 4384 4347 
L 4384 3272 
L 4031 3272 
Q 3916 3859 3567 4137 
Q 3219 4416 2591 4416 
Q 1844 4416 1459 3886 
Q 1075 3356 1075 2328 
Q 1075 1303 1459 773 
Q 1844 244 2591 244 
Q 3113 244 3450 492 
Q 3788 741 3938 1234 
L 4513 1234 
z
" transform="scale(0.015625)"/>
      </defs>
      <use xlink:href="#DejaVuSerif-57"/>
      <use xlink:href="#DejaVuSerif-47" x="102.783203"/>
      <use xlink:href="#DejaVuSerif-41" x="182.666016"/>
      <use xlink:href="#DejaVuSerif-4e" x="254.882812"/>
      <use xlink:href="#DejaVuSerif-2d" x="342.382812"/>
      <use xlink:href="#DejaVuSerif-57" x="370.671875"/>
      <use xlink:href="#DejaVuSerif-43" x="473.455078"/>
     </g>
    </g>
    <g id="line2d_19">
     <path d="M 442.403125 159.865625 
L 462.403125 159.865625 
L 482.403125 159.865625 
" style="fill: none; stroke: #ff8c00; stroke-width: 1.5; stroke-linecap: square"/>
    </g>
    <g id="text_18">
     <!-- WGAN-GP -->
     <g transform="translate(498.403125 166.865625)scale(0.2 -0.2)">
      <defs>
       <path id="DejaVuSerif-50" d="M 1581 2375 
L 2406 2375 
Q 2872 2375 3115 2626 
Q 3359 2878 3359 3353 
Q 3359 3831 3115 4081 
Q 2872 4331 2406 4331 
L 1581 4331 
L 1581 2375 
z
M 353 0 
L 353 331 
L 947 331 
L 947 4331 
L 353 4331 
L 353 4666 
L 2559 4666 
Q 3259 4666 3668 4311 
Q 4078 3956 4078 3353 
Q 4078 2753 3668 2397 
Q 3259 2041 2559 2041 
L 1581 2041 
L 1581 331 
L 2303 331 
L 2303 0 
L 353 0 
z
" transform="scale(0.015625)"/>
      </defs>
      <use xlink:href="#DejaVuSerif-57"/>
      <use xlink:href="#DejaVuSerif-47" x="102.783203"/>
      <use xlink:href="#DejaVuSerif-41" x="182.666016"/>
      <use xlink:href="#DejaVuSerif-4e" x="254.882812"/>
      <use xlink:href="#DejaVuSerif-2d" x="342.382812"/>
      <use xlink:href="#DejaVuSerif-47" x="376.171875"/>
      <use xlink:href="#DejaVuSerif-50" x="456.054688"/>
     </g>
    </g>
   </g>
  </g>
 </g>
 <defs>
  <clipPath id="p6d93e8f679">
   <rect x="77.51" y="45.6" width="548.89" height="278.92"/>
  </clipPath>
 </defs>
</svg>
