<?xml version="1.0" encoding="utf-8" standalone="no"?>
<!DOCTYPE svg PUBLIC "-//W3C//DTD SVG 1.1//EN"
  "http://www.w3.org/Graphics/SVG/1.1/DTD/svg11.dtd">
<svg xmlns:xlink="http://www.w3.org/1999/xlink" width="1296pt" height="396pt" viewBox="0 0 1296 396" xmlns="http://www.w3.org/2000/svg" version="1.1">
 <metadata>
  <rdf:RDF xmlns:dc="http://purl.org/dc/elements/1.1/" xmlns:cc="http://creativecommons.org/ns#" xmlns:rdf="http://www.w3.org/1999/02/22-rdf-syntax-ns#">
   <cc:Work>
    <dc:type rdf:resource="http://purl.org/dc/dcmitype/StillImage"/>
    <dc:date>2022-12-14T14:53:13.863328</dc:date>
    <dc:format>image/svg+xml</dc:format>
    <dc:creator>
     <cc:Agent>
      <dc:title>Matplotlib v3.5.3, https://matplotlib.org/</dc:title>
     </cc:Agent>
    </dc:creator>
   </cc:Work>
  </rdf:RDF>
 </metadata>
 <defs>
  <style type="text/css">*{stroke-linejoin: round; stroke-linecap: butt}</style>
 </defs>
 <g id="figure_1">
  <g id="patch_1">
   <path d="M 0 396 
L 1296 396 
L 1296 0 
L 0 0 
z
" style="fill: #ffffff"/>
  </g>
  <g id="axes_1">
   <g id="patch_2">
    <path d="M 77.51 324.52 
L 431.846667 324.52 
L 431.846667 45.6 
L 77.51 45.6 
z
" style="fill: #ffffff"/>
   </g>
   <g id="PolyCollection_1">
    <defs>
     <path id="mb86fd224ad" d="M 93.616212 -461.928493 
L 93.616212 -229.520477 
L 100.190176 -142.431058 
L 106.76414 -128.026176 
L 113.338105 -124.172275 
L 119.912069 -121.414249 
L 126.486033 -118.671687 
L 133.059997 -119.041301 
L 139.633961 -119.213526 
L 146.207925 -116.537609 
L 152.781889 -117.818352 
L 159.355853 -117.91043 
L 165.929818 -117.889431 
L 172.503782 -118.152298 
L 179.077746 -119.374226 
L 185.65171 -118.312633 
L 192.225674 -118.152815 
L 198.799638 -117.86272 
L 205.373602 -118.18388 
L 211.947566 -115.665308 
L 218.521531 -115.933116 
L 225.095495 -114.936406 
L 231.669459 -116.82771 
L 238.243423 -114.584941 
L 244.817387 -113.66326 
L 251.391351 -114.084994 
L 257.965315 -113.946794 
L 264.53928 -112.882949 
L 271.113244 -111.474776 
L 277.687208 -111.606021 
L 284.261172 -109.532794 
L 290.835136 -109.645478 
L 297.4091 -110.446525 
L 303.983064 -109.135425 
L 310.557028 -108.843614 
L 317.130993 -109.051325 
L 323.704957 -107.059249 
L 330.278921 -106.880256 
L 336.852885 -104.726505 
L 343.426849 -105.643058 
L 350.000813 -105.155615 
L 356.574777 -104.936817 
L 363.148741 -104.125374 
L 369.722706 -103.728403 
L 376.29667 -102.51396 
L 382.870634 -104.0904 
L 389.444598 -102.443568 
L 396.018562 -100.837341 
L 402.592526 -101.877016 
L 409.16649 -100.733489 
L 415.740455 -98.63495 
L 415.740455 -143.755998 
L 415.740455 -143.755998 
L 409.16649 -144.156666 
L 402.592526 -143.776289 
L 396.018562 -142.231274 
L 389.444598 -142.118772 
L 382.870634 -142.180317 
L 376.29667 -139.968768 
L 369.722706 -140.026311 
L 363.148741 -138.90843 
L 356.574777 -138.595918 
L 350.000813 -137.588871 
L 343.426849 -136.610943 
L 336.852885 -134.824064 
L 330.278921 -135.21538 
L 323.704957 -134.332818 
L 317.130993 -134.88532 
L 310.557028 -133.704601 
L 303.983064 -132.652903 
L 297.4091 -132.700327 
L 290.835136 -130.679114 
L 284.261172 -129.54283 
L 277.687208 -129.998118 
L 271.113244 -129.118411 
L 264.53928 -128.532037 
L 257.965315 -129.86855 
L 251.391351 -127.612946 
L 244.817387 -126.144362 
L 238.243423 -125.971138 
L 231.669459 -126.558124 
L 225.095495 -124.061207 
L 218.521531 -123.817007 
L 211.947566 -124.651164 
L 205.373602 -124.989354 
L 198.799638 -124.69473 
L 192.225674 -124.458469 
L 185.65171 -123.445837 
L 179.077746 -124.038389 
L 172.503782 -122.905009 
L 165.929818 -123.356649 
L 159.355853 -126.266603 
L 152.781889 -127.383076 
L 146.207925 -129.332663 
L 139.633961 -132.28649 
L 133.059997 -132.314014 
L 126.486033 -133.632588 
L 119.912069 -139.699537 
L 113.338105 -145.590212 
L 106.76414 -159.969051 
L 100.190176 -203.740003 
L 93.616212 -461.928493 
z
" style="stroke: #ff0000; stroke-opacity: 0.4"/>
    </defs>
    <g clip-path="url(#p434bbf6418)">
     <use xlink:href="#mb86fd224ad" x="0" y="396" style="fill: #ff0000; fill-opacity: 0.4; stroke: #ff0000; stroke-opacity: 0.4"/>
    </g>
   </g>
   <g id="PolyCollection_2">
    <path d="M 93.616212 -1021.012286 
L 93.616212 -112.814517 
L 100.190176 257.046636 
L 106.76414 257.731312 
L 113.338105 260.937564 
L 119.912069 263.089163 
L 126.486033 261.241468 
L 133.059997 261.039118 
L 139.633961 258.113738 
L 146.207925 259.325276 
L 152.781889 260.421875 
L 159.355853 260.906565 
L 165.929818 260.833059 
L 172.503782 258.991305 
L 179.077746 260.290524 
L 185.65171 259.101497 
L 192.225674 259.535552 
L 198.799638 257.87919 
L 205.373602 256.638159 
L 211.947566 256.368179 
L 218.521531 259.794985 
L 225.095495 253.794112 
L 231.669459 256.399721 
L 238.243423 256.763643 
L 244.817387 259.486935 
L 251.391351 256.05928 
L 257.965315 260.089503 
L 264.53928 256.989334 
L 271.113244 258.815326 
L 277.687208 260.487491 
L 284.261172 258.832075 
L 290.835136 259.044294 
L 297.4091 259.598477 
L 303.983064 260.168655 
L 310.557028 261.435427 
L 317.130993 256.144645 
L 323.704957 261.6242 
L 330.278921 262.492961 
L 336.852885 264.831633 
L 343.426849 262.664684 
L 350.000813 264.093322 
L 356.574777 263.839762 
L 363.148741 265.771784 
L 369.722706 263.5195 
L 376.29667 264.522274 
L 382.870634 266.031595 
L 389.444598 265.502814 
L 396.018562 267.537211 
L 402.592526 267.199026 
L 409.16649 268.619576 
L 415.740455 269.293756 
L 415.740455 232.64495 
L 415.740455 232.64495 
L 409.16649 233.240935 
L 402.592526 233.051814 
L 396.018562 233.765201 
L 389.444598 234.409564 
L 382.870634 235.4882 
L 376.29667 234.747016 
L 369.722706 235.671554 
L 363.148741 238.851852 
L 356.574777 238.195067 
L 350.000813 239.408397 
L 343.426849 238.869656 
L 336.852885 242.292346 
L 330.278921 241.473303 
L 323.704957 241.691311 
L 317.130993 239.595887 
L 310.557028 241.925865 
L 303.983064 242.560987 
L 297.4091 243.886058 
L 290.835136 245.776197 
L 284.261172 244.623943 
L 277.687208 246.087105 
L 271.113244 244.231608 
L 264.53928 244.610214 
L 257.965315 249.744397 
L 251.391351 246.960524 
L 244.817387 250.777902 
L 238.243423 246.734612 
L 231.669459 250.504761 
L 225.095495 248.498513 
L 218.521531 247.824219 
L 211.947566 246.104502 
L 205.373602 244.542173 
L 198.799638 245.932913 
L 192.225674 248.663693 
L 185.65171 246.797979 
L 179.077746 246.009933 
L 172.503782 245.777055 
L 165.929818 246.955412 
L 159.355853 246.032575 
L 152.781889 241.610762 
L 146.207925 240.296492 
L 139.633961 235.842126 
L 133.059997 238.488451 
L 126.486033 238.10194 
L 119.912069 237.915896 
L 113.338105 233.595074 
L 106.76414 229.185216 
L 100.190176 159.944318 
L 93.616212 -1021.012286 
z
" clip-path="url(#p434bbf6418)" style="fill: #0000ff; fill-opacity: 0.4; stroke: #0000ff; stroke-opacity: 0.4"/>
   </g>
   <g id="PolyCollection_3">
    <defs>
     <path id="m6b30f24a62" d="M 93.616212 -390.877724 
L 93.616212 -172.728221 
L 100.190176 -98.763693 
L 106.76414 -121.968983 
L 113.338105 -119.694113 
L 119.912069 -118.545459 
L 126.486033 -118.806275 
L 133.059997 -119.266675 
L 139.633961 -119.356917 
L 146.207925 -119.025688 
L 152.781889 -119.653526 
L 159.355853 -119.346292 
L 165.929818 -120.405015 
L 172.503782 -120.321633 
L 179.077746 -120.633929 
L 185.65171 -121.353488 
L 192.225674 -123.412402 
L 198.799638 -120.921099 
L 205.373602 -121.420975 
L 211.947566 -121.045984 
L 218.521531 -119.938845 
L 225.095495 -120.414857 
L 231.669459 -119.790126 
L 238.243423 -118.13735 
L 244.817387 -117.564465 
L 251.391351 -117.4529 
L 257.965315 -117.098869 
L 264.53928 -116.82485 
L 271.113244 -117.159322 
L 277.687208 -117.016006 
L 284.261172 -114.97737 
L 290.835136 -113.647706 
L 297.4091 -114.580475 
L 303.983064 -112.662802 
L 310.557028 -113.981116 
L 317.130993 -113.407327 
L 323.704957 -111.932378 
L 330.278921 -111.813144 
L 336.852885 -112.529877 
L 343.426849 -111.444835 
L 350.000813 -112.834612 
L 356.574777 -108.987649 
L 363.148741 -109.081047 
L 369.722706 -105.863173 
L 376.29667 -108.23655 
L 382.870634 -108.085878 
L 389.444598 -107.778173 
L 396.018562 -106.806829 
L 402.592526 -106.7635 
L 409.16649 -106.243144 
L 415.740455 -103.654397 
L 415.740455 -147.175218 
L 415.740455 -147.175218 
L 409.16649 -147.992927 
L 402.592526 -147.150752 
L 396.018562 -146.435522 
L 389.444598 -145.620296 
L 382.870634 -144.992671 
L 376.29667 -144.083353 
L 369.722706 -141.19201 
L 363.148741 -142.298693 
L 356.574777 -141.346105 
L 350.000813 -143.108982 
L 343.426849 -140.72023 
L 336.852885 -141.305642 
L 330.278921 -138.829022 
L 323.704957 -137.602497 
L 317.130993 -137.857414 
L 310.557028 -136.884182 
L 303.983064 -135.106622 
L 297.4091 -135.189286 
L 290.835136 -133.833332 
L 284.261172 -134.208022 
L 277.687208 -134.167081 
L 271.113244 -132.767328 
L 264.53928 -131.38003 
L 257.965315 -130.98508 
L 251.391351 -129.393564 
L 244.817387 -128.93907 
L 238.243423 -128.262193 
L 231.669459 -129.354952 
L 225.095495 -127.637374 
L 218.521531 -127.676135 
L 211.947566 -129.153063 
L 205.373602 -127.435362 
L 198.799638 -126.393296 
L 192.225674 -128.611364 
L 185.65171 -127.114405 
L 179.077746 -126.524065 
L 172.503782 -126.209951 
L 165.929818 -127.591447 
L 159.355853 -126.479287 
L 152.781889 -128.185363 
L 146.207925 -130.507885 
L 139.633961 -131.648252 
L 133.059997 -132.178321 
L 126.486033 -133.691108 
L 119.912069 -134.100081 
L 113.338105 -137.758904 
L 106.76414 -144.854366 
L 100.190176 -242.745873 
L 93.616212 -390.877724 
z
" style="stroke: #008000; stroke-opacity: 0.4"/>
    </defs>
    <g clip-path="url(#p434bbf6418)">
     <use xlink:href="#m6b30f24a62" x="0" y="396" style="fill: #008000; fill-opacity: 0.4; stroke: #008000; stroke-opacity: 0.4"/>
    </g>
   </g>
   <g id="PolyCollection_4">
    <path d="M 93.616212 -254.55745 
L 93.616212 68.534813 
L 100.190176 64.586285 
L 106.76414 347.729072 
L 113.338105 333.845703 
L 119.912069 301.694004 
L 126.486033 259.774728 
L 133.059997 263.010267 
L 139.633961 264.393327 
L 146.207925 264.48048 
L 152.781889 266.977205 
L 159.355853 266.484137 
L 165.929818 266.509715 
L 172.503782 267.677809 
L 179.077746 267.546055 
L 185.65171 265.225998 
L 192.225674 270.66205 
L 198.799638 270.800065 
L 205.373602 268.810055 
L 211.947566 271.176043 
L 218.521531 273.852211 
L 225.095495 269.834804 
L 231.669459 269.708279 
L 238.243423 268.013365 
L 244.817387 267.270413 
L 251.391351 271.380737 
L 257.965315 268.659157 
L 264.53928 271.012566 
L 271.113244 270.746705 
L 277.687208 270.219187 
L 284.261172 272.060053 
L 290.835136 270.76578 
L 297.4091 272.35138 
L 303.983064 272.105687 
L 310.557028 273.000308 
L 317.130993 272.766513 
L 323.704957 273.331918 
L 330.278921 274.304034 
L 336.852885 274.210778 
L 343.426849 274.887588 
L 350.000813 275.613403 
L 356.574777 277.261069 
L 363.148741 279.509878 
L 369.722706 274.935643 
L 376.29667 277.854144 
L 382.870634 278.089853 
L 389.444598 278.256585 
L 396.018562 279.037668 
L 402.592526 278.289184 
L 409.16649 279.343525 
L 415.740455 279.927214 
L 415.740455 236.22718 
L 415.740455 236.22718 
L 409.16649 233.591393 
L 402.592526 235.988563 
L 396.018562 240.711716 
L 389.444598 241.786077 
L 382.870634 242.854636 
L 376.29667 243.20999 
L 369.722706 240.551656 
L 363.148741 246.724752 
L 356.574777 243.853692 
L 350.000813 244.459458 
L 343.426849 245.525721 
L 336.852885 246.036639 
L 330.278921 245.532986 
L 323.704957 245.534221 
L 317.130993 249.190082 
L 310.557028 247.025523 
L 303.983064 246.841829 
L 297.4091 250.786715 
L 290.835136 249.285555 
L 284.261172 251.668865 
L 277.687208 246.384466 
L 271.113244 250.686721 
L 264.53928 249.445676 
L 257.965315 249.810647 
L 251.391351 250.774466 
L 244.817387 253.210286 
L 238.243423 252.469601 
L 231.669459 250.838461 
L 225.095495 250.846566 
L 218.521531 248.842257 
L 211.947566 252.623028 
L 205.373602 251.914775 
L 198.799638 250.123789 
L 192.225674 248.73794 
L 185.65171 250.219893 
L 179.077746 247.370915 
L 172.503782 250.739502 
L 165.929818 248.277326 
L 159.355853 247.433725 
L 152.781889 245.273387 
L 146.207925 243.969135 
L 139.633961 237.532262 
L 133.059997 239.946016 
L 126.486033 230.405603 
L 119.912069 129.968867 
L 113.338105 -18.555372 
L 106.76414 -381.082207 
L 100.190176 -696.49706 
L 93.616212 -254.55745 
z
" clip-path="url(#p434bbf6418)" style="fill: #ff8c00; fill-opacity: 0.4; stroke: #ff8c00; stroke-opacity: 0.4"/>
   </g>
   <g id="matplotlib.axis_1">
    <g id="xtick_1">
     <g id="line2d_1">
      <defs>
       <path id="mb9d8397b4a" d="M 0 0 
L 0 3.5 
" style="stroke: #000000; stroke-width: 0.8"/>
      </defs>
      <g>
       <use xlink:href="#mb9d8397b4a" x="93.616212" y="324.52" style="stroke: #000000; stroke-width: 0.8"/>
      </g>
     </g>
     <g id="text_1">
      <!-- 0 -->
      <g transform="translate(87.253712 346.716875)scale(0.2 -0.2)">
       <defs>
        <path id="DejaVuSerif-30" d="M 2034 219 
Q 2513 219 2750 744 
Q 2988 1269 2988 2328 
Q 2988 3391 2750 3916 
Q 2513 4441 2034 4441 
Q 1556 4441 1318 3916 
Q 1081 3391 1081 2328 
Q 1081 1269 1318 744 
Q 1556 219 2034 219 
z
M 2034 -91 
Q 1275 -91 848 546 
Q 422 1184 422 2328 
Q 422 3475 848 4112 
Q 1275 4750 2034 4750 
Q 2797 4750 3222 4112 
Q 3647 3475 3647 2328 
Q 3647 1184 3222 546 
Q 2797 -91 2034 -91 
z
" transform="scale(0.015625)"/>
       </defs>
       <use xlink:href="#DejaVuSerif-30"/>
      </g>
     </g>
    </g>
    <g id="xtick_2">
     <g id="line2d_2">
      <g>
       <use xlink:href="#mb9d8397b4a" x="225.095495" y="324.52" style="stroke: #000000; stroke-width: 0.8"/>
      </g>
     </g>
     <g id="text_2">
      <!-- 20 -->
      <g transform="translate(212.370495 346.716875)scale(0.2 -0.2)">
       <defs>
        <path id="DejaVuSerif-32" d="M 819 3553 
L 469 3553 
L 469 4384 
Q 803 4563 1142 4656 
Q 1481 4750 1806 4750 
Q 2534 4750 2956 4397 
Q 3378 4044 3378 3438 
Q 3378 2753 2422 1800 
Q 2347 1728 2309 1691 
L 1131 513 
L 3078 513 
L 3078 1088 
L 3444 1088 
L 3444 0 
L 434 0 
L 434 341 
L 1850 1753 
Q 2319 2222 2519 2614 
Q 2719 3006 2719 3438 
Q 2719 3909 2473 4175 
Q 2228 4441 1797 4441 
Q 1350 4441 1106 4219 
Q 863 3997 819 3553 
z
" transform="scale(0.015625)"/>
       </defs>
       <use xlink:href="#DejaVuSerif-32"/>
       <use xlink:href="#DejaVuSerif-30" x="63.623047"/>
      </g>
     </g>
    </g>
    <g id="xtick_3">
     <g id="line2d_3">
      <g>
       <use xlink:href="#mb9d8397b4a" x="356.574777" y="324.52" style="stroke: #000000; stroke-width: 0.8"/>
      </g>
     </g>
     <g id="text_3">
      <!-- 40 -->
      <g transform="translate(343.849777 346.716875)scale(0.2 -0.2)">
       <defs>
        <path id="DejaVuSerif-34" d="M 2234 1581 
L 2234 4063 
L 641 1581 
L 2234 1581 
z
M 3609 0 
L 1484 0 
L 1484 331 
L 2234 331 
L 2234 1247 
L 197 1247 
L 197 1588 
L 2241 4750 
L 2859 4750 
L 2859 1581 
L 3750 1581 
L 3750 1247 
L 2859 1247 
L 2859 331 
L 3609 331 
L 3609 0 
z
" transform="scale(0.015625)"/>
       </defs>
       <use xlink:href="#DejaVuSerif-34"/>
       <use xlink:href="#DejaVuSerif-30" x="63.623047"/>
      </g>
     </g>
    </g>
    <g id="text_4">
     <!-- Epochs -->
     <g transform="translate(217.784583 370.073125)scale(0.2 -0.2)">
      <defs>
       <path id="DejaVuSerif-45" d="M 353 0 
L 353 331 
L 947 331 
L 947 4331 
L 353 4331 
L 353 4666 
L 4109 4666 
L 4109 3628 
L 3725 3628 
L 3725 4281 
L 1581 4281 
L 1581 2719 
L 3109 2719 
L 3109 3303 
L 3494 3303 
L 3494 1753 
L 3109 1753 
L 3109 2338 
L 1581 2338 
L 1581 384 
L 3775 384 
L 3775 1038 
L 4159 1038 
L 4159 0 
L 353 0 
z
" transform="scale(0.015625)"/>
       <path id="DejaVuSerif-70" d="M 1313 1825 
L 1313 1497 
Q 1313 897 1542 583 
Q 1772 269 2209 269 
Q 2650 269 2876 622 
Q 3103 975 3103 1663 
Q 3103 2353 2876 2703 
Q 2650 3053 2209 3053 
Q 1772 3053 1542 2737 
Q 1313 2422 1313 1825 
z
M 738 2988 
L 184 2988 
L 184 3322 
L 1313 3322 
L 1313 2803 
Q 1481 3116 1742 3264 
Q 2003 3413 2388 3413 
Q 3000 3413 3387 2928 
Q 3775 2444 3775 1663 
Q 3775 881 3387 395 
Q 3000 -91 2388 -91 
Q 2003 -91 1742 57 
Q 1481 206 1313 519 
L 1313 -997 
L 1856 -997 
L 1856 -1331 
L 184 -1331 
L 184 -997 
L 738 -997 
L 738 2988 
z
" transform="scale(0.015625)"/>
       <path id="DejaVuSerif-6f" d="M 1925 219 
Q 2388 219 2623 584 
Q 2859 950 2859 1663 
Q 2859 2375 2623 2739 
Q 2388 3103 1925 3103 
Q 1463 3103 1227 2739 
Q 991 2375 991 1663 
Q 991 950 1228 584 
Q 1466 219 1925 219 
z
M 1925 -91 
Q 1200 -91 759 389 
Q 319 869 319 1663 
Q 319 2456 758 2934 
Q 1197 3413 1925 3413 
Q 2653 3413 3092 2934 
Q 3531 2456 3531 1663 
Q 3531 869 3092 389 
Q 2653 -91 1925 -91 
z
" transform="scale(0.015625)"/>
       <path id="DejaVuSerif-63" d="M 3291 997 
Q 3169 466 2822 187 
Q 2475 -91 1925 -91 
Q 1200 -91 759 389 
Q 319 869 319 1663 
Q 319 2459 759 2936 
Q 1200 3413 1925 3413 
Q 2241 3413 2553 3339 
Q 2866 3266 3181 3116 
L 3181 2266 
L 2847 2266 
Q 2781 2703 2561 2903 
Q 2341 3103 1931 3103 
Q 1466 3103 1228 2742 
Q 991 2381 991 1663 
Q 991 944 1227 581 
Q 1463 219 1931 219 
Q 2303 219 2525 412 
Q 2747 606 2828 997 
L 3291 997 
z
" transform="scale(0.015625)"/>
       <path id="DejaVuSerif-68" d="M 263 0 
L 263 331 
L 781 331 
L 781 4531 
L 231 4531 
L 231 4863 
L 1356 4863 
L 1356 2731 
Q 1516 3069 1770 3241 
Q 2025 3413 2363 3413 
Q 2913 3413 3172 3097 
Q 3431 2781 3431 2113 
L 3431 331 
L 3944 331 
L 3944 0 
L 2356 0 
L 2356 331 
L 2853 331 
L 2853 1931 
Q 2853 2541 2704 2764 
Q 2556 2988 2175 2988 
Q 1775 2988 1565 2697 
Q 1356 2406 1356 1850 
L 1356 331 
L 1856 331 
L 1856 0 
L 263 0 
z
" transform="scale(0.015625)"/>
       <path id="DejaVuSerif-73" d="M 359 184 
L 359 959 
L 691 959 
Q 703 588 923 403 
Q 1144 219 1575 219 
Q 1963 219 2166 364 
Q 2369 509 2369 788 
Q 2369 1006 2220 1140 
Q 2072 1275 1594 1428 
L 1178 1569 
Q 750 1706 558 1912 
Q 366 2119 366 2438 
Q 366 2894 700 3153 
Q 1034 3413 1625 3413 
Q 1888 3413 2178 3344 
Q 2469 3275 2778 3144 
L 2778 2419 
L 2447 2419 
Q 2434 2741 2221 2922 
Q 2009 3103 1644 3103 
Q 1281 3103 1095 2975 
Q 909 2847 909 2591 
Q 909 2381 1050 2254 
Q 1191 2128 1613 1997 
L 2069 1856 
Q 2541 1709 2748 1489 
Q 2956 1269 2956 922 
Q 2956 450 2595 179 
Q 2234 -91 1600 -91 
Q 1278 -91 972 -22 
Q 666 47 359 184 
z
" transform="scale(0.015625)"/>
      </defs>
      <use xlink:href="#DejaVuSerif-45"/>
      <use xlink:href="#DejaVuSerif-70" x="72.998047"/>
      <use xlink:href="#DejaVuSerif-6f" x="137.011719"/>
      <use xlink:href="#DejaVuSerif-63" x="197.216797"/>
      <use xlink:href="#DejaVuSerif-68" x="253.222656"/>
      <use xlink:href="#DejaVuSerif-73" x="317.626953"/>
     </g>
    </g>
   </g>
   <g id="matplotlib.axis_2">
    <g id="ytick_1">
     <g id="line2d_4">
      <defs>
       <path id="m7eb9bed8af" d="M 0 0 
L -3.5 0 
" style="stroke: #000000; stroke-width: 0.8"/>
      </defs>
      <g>
       <use xlink:href="#m7eb9bed8af" x="77.51" y="324.52" style="stroke: #000000; stroke-width: 0.8"/>
      </g>
     </g>
     <g id="text_5">
      <!-- 0 -->
      <g transform="translate(57.785 332.118438)scale(0.2 -0.2)">
       <use xlink:href="#DejaVuSerif-30"/>
      </g>
     </g>
    </g>
    <g id="ytick_2">
     <g id="line2d_5">
      <g>
       <use xlink:href="#m7eb9bed8af" x="77.51" y="254.79" style="stroke: #000000; stroke-width: 0.8"/>
      </g>
     </g>
     <g id="text_6">
      <!-- 20 -->
      <g transform="translate(45.06 262.388438)scale(0.2 -0.2)">
       <use xlink:href="#DejaVuSerif-32"/>
       <use xlink:href="#DejaVuSerif-30" x="63.623047"/>
      </g>
     </g>
    </g>
    <g id="ytick_3">
     <g id="line2d_6">
      <g>
       <use xlink:href="#m7eb9bed8af" x="77.51" y="185.06" style="stroke: #000000; stroke-width: 0.8"/>
      </g>
     </g>
     <g id="text_7">
      <!-- 40 -->
      <g transform="translate(45.06 192.658437)scale(0.2 -0.2)">
       <use xlink:href="#DejaVuSerif-34"/>
       <use xlink:href="#DejaVuSerif-30" x="63.623047"/>
      </g>
     </g>
    </g>
    <g id="ytick_4">
     <g id="line2d_7">
      <g>
       <use xlink:href="#m7eb9bed8af" x="77.51" y="115.33" style="stroke: #000000; stroke-width: 0.8"/>
      </g>
     </g>
     <g id="text_8">
      <!-- 60 -->
      <g transform="translate(45.06 122.928437)scale(0.2 -0.2)">
       <defs>
        <path id="DejaVuSerif-36" d="M 2094 219 
Q 2534 219 2771 542 
Q 3009 866 3009 1472 
Q 3009 2078 2771 2401 
Q 2534 2725 2094 2725 
Q 1647 2725 1412 2412 
Q 1178 2100 1178 1509 
Q 1178 888 1415 553 
Q 1653 219 2094 219 
z
M 1075 2569 
Q 1288 2803 1556 2918 
Q 1825 3034 2163 3034 
Q 2859 3034 3264 2615 
Q 3669 2197 3669 1472 
Q 3669 763 3233 336 
Q 2797 -91 2069 -91 
Q 1278 -91 853 498 
Q 428 1088 428 2181 
Q 428 3406 931 4078 
Q 1434 4750 2350 4750 
Q 2597 4750 2869 4703 
Q 3141 4656 3425 4563 
L 3425 3794 
L 3072 3794 
Q 3034 4109 2831 4275 
Q 2628 4441 2284 4441 
Q 1678 4441 1381 3981 
Q 1084 3522 1075 2569 
z
" transform="scale(0.015625)"/>
       </defs>
       <use xlink:href="#DejaVuSerif-36"/>
       <use xlink:href="#DejaVuSerif-30" x="63.623047"/>
      </g>
     </g>
    </g>
    <g id="ytick_5">
     <g id="line2d_8">
      <g>
       <use xlink:href="#m7eb9bed8af" x="77.51" y="45.6" style="stroke: #000000; stroke-width: 0.8"/>
      </g>
     </g>
     <g id="text_9">
      <!-- 80 -->
      <g transform="translate(45.06 53.198437)scale(0.2 -0.2)">
       <defs>
        <path id="DejaVuSerif-38" d="M 2981 1275 
Q 2981 1775 2732 2051 
Q 2484 2328 2034 2328 
Q 1584 2328 1336 2051 
Q 1088 1775 1088 1275 
Q 1088 772 1336 495 
Q 1584 219 2034 219 
Q 2484 219 2732 495 
Q 2981 772 2981 1275 
z
M 2853 3541 
Q 2853 3966 2637 4203 
Q 2422 4441 2034 4441 
Q 1650 4441 1433 4203 
Q 1216 3966 1216 3541 
Q 1216 3113 1433 2875 
Q 1650 2638 2034 2638 
Q 2422 2638 2637 2875 
Q 2853 3113 2853 3541 
z
M 2516 2484 
Q 3047 2413 3344 2092 
Q 3641 1772 3641 1275 
Q 3641 619 3225 264 
Q 2809 -91 2034 -91 
Q 1263 -91 845 264 
Q 428 619 428 1275 
Q 428 1772 725 2092 
Q 1022 2413 1556 2484 
Q 1084 2569 832 2842 
Q 581 3116 581 3541 
Q 581 4103 968 4426 
Q 1356 4750 2034 4750 
Q 2713 4750 3100 4426 
Q 3488 4103 3488 3541 
Q 3488 3116 3236 2842 
Q 2984 2569 2516 2484 
z
" transform="scale(0.015625)"/>
       </defs>
       <use xlink:href="#DejaVuSerif-38"/>
       <use xlink:href="#DejaVuSerif-30" x="63.623047"/>
      </g>
     </g>
    </g>
    <g id="text_10">
     <!-- FID-Score -->
     <g transform="translate(36.900625 236.702188)rotate(-90)scale(0.2 -0.2)">
      <defs>
       <path id="DejaVuSerif-46" d="M 353 0 
L 353 331 
L 947 331 
L 947 4331 
L 353 4331 
L 353 4666 
L 4172 4666 
L 4172 3628 
L 3788 3628 
L 3788 4281 
L 1581 4281 
L 1581 2719 
L 3175 2719 
L 3175 3303 
L 3559 3303 
L 3559 1753 
L 3175 1753 
L 3175 2338 
L 1581 2338 
L 1581 331 
L 2328 331 
L 2328 0 
L 353 0 
z
" transform="scale(0.015625)"/>
       <path id="DejaVuSerif-49" d="M 1581 331 
L 2175 331 
L 2175 0 
L 353 0 
L 353 331 
L 947 331 
L 947 4331 
L 353 4331 
L 353 4666 
L 2175 4666 
L 2175 4331 
L 1581 4331 
L 1581 331 
z
" transform="scale(0.015625)"/>
       <path id="DejaVuSerif-44" d="M 1581 331 
L 2163 331 
Q 3072 331 3558 850 
Q 4044 1369 4044 2338 
Q 4044 3306 3559 3818 
Q 3075 4331 2163 4331 
L 1581 4331 
L 1581 331 
z
M 353 0 
L 353 331 
L 947 331 
L 947 4331 
L 353 4331 
L 353 4666 
L 2209 4666 
Q 3416 4666 4089 4050 
Q 4763 3434 4763 2338 
Q 4763 1238 4088 619 
Q 3413 0 2209 0 
L 353 0 
z
" transform="scale(0.015625)"/>
       <path id="DejaVuSerif-2d" d="M 281 1959 
L 1881 1959 
L 1881 1472 
L 281 1472 
L 281 1959 
z
" transform="scale(0.015625)"/>
       <path id="DejaVuSerif-53" d="M 594 225 
L 594 1288 
L 953 1284 
Q 969 753 1261 498 
Q 1553 244 2150 244 
Q 2706 244 2998 464 
Q 3291 684 3291 1106 
Q 3291 1444 3114 1625 
Q 2938 1806 2369 1978 
L 1753 2163 
Q 1084 2366 811 2669 
Q 538 2972 538 3500 
Q 538 4094 959 4422 
Q 1381 4750 2144 4750 
Q 2469 4750 2856 4679 
Q 3244 4609 3681 4475 
L 3681 3481 
L 3328 3481 
Q 3275 3975 2998 4195 
Q 2722 4416 2156 4416 
Q 1663 4416 1405 4214 
Q 1147 4013 1147 3628 
Q 1147 3294 1340 3103 
Q 1534 2913 2163 2725 
L 2741 2553 
Q 3375 2363 3645 2067 
Q 3916 1772 3916 1275 
Q 3916 597 3481 253 
Q 3047 -91 2188 -91 
Q 1803 -91 1404 -12 
Q 1006 66 594 225 
z
" transform="scale(0.015625)"/>
       <path id="DejaVuSerif-72" d="M 3059 3328 
L 3059 2497 
L 2728 2497 
Q 2713 2744 2591 2866 
Q 2469 2988 2234 2988 
Q 1809 2988 1582 2694 
Q 1356 2400 1356 1850 
L 1356 331 
L 2022 331 
L 2022 0 
L 263 0 
L 263 331 
L 781 331 
L 781 2994 
L 231 2994 
L 231 3322 
L 1356 3322 
L 1356 2731 
Q 1525 3078 1790 3245 
Q 2056 3413 2438 3413 
Q 2578 3413 2733 3391 
Q 2888 3369 3059 3328 
z
" transform="scale(0.015625)"/>
       <path id="DejaVuSerif-65" d="M 3469 1600 
L 991 1600 
L 991 1575 
Q 991 903 1244 561 
Q 1497 219 1991 219 
Q 2369 219 2611 417 
Q 2853 616 2950 1006 
L 3413 1006 
Q 3275 459 2904 184 
Q 2534 -91 1931 -91 
Q 1203 -91 761 389 
Q 319 869 319 1663 
Q 319 2450 753 2931 
Q 1188 3413 1894 3413 
Q 2647 3413 3050 2948 
Q 3453 2484 3469 1600 
z
M 2791 1931 
Q 2772 2513 2545 2808 
Q 2319 3103 1894 3103 
Q 1497 3103 1269 2806 
Q 1041 2509 991 1931 
L 2791 1931 
z
" transform="scale(0.015625)"/>
      </defs>
      <use xlink:href="#DejaVuSerif-46"/>
      <use xlink:href="#DejaVuSerif-49" x="69.384766"/>
      <use xlink:href="#DejaVuSerif-44" x="108.886719"/>
      <use xlink:href="#DejaVuSerif-2d" x="190.9375"/>
      <use xlink:href="#DejaVuSerif-53" x="224.726562"/>
      <use xlink:href="#DejaVuSerif-63" x="293.232422"/>
      <use xlink:href="#DejaVuSerif-6f" x="349.238281"/>
      <use xlink:href="#DejaVuSerif-72" x="409.443359"/>
      <use xlink:href="#DejaVuSerif-65" x="457.246094"/>
     </g>
    </g>
   </g>
   <g id="line2d_9">
    <path d="M 93.616212 50.275515 
L 100.190176 222.91447 
L 106.76414 252.002387 
L 113.338105 261.118757 
L 119.912069 265.443107 
L 126.486033 269.847863 
L 133.059997 270.322342 
L 139.633961 270.249992 
L 146.207925 273.064864 
L 152.781889 273.399286 
L 159.355853 273.911484 
L 165.929818 275.37696 
L 172.503782 275.471347 
L 179.077746 274.293692 
L 185.65171 275.120765 
L 192.225674 274.694358 
L 198.799638 274.721275 
L 205.373602 274.413383 
L 211.947566 275.841764 
L 218.521531 276.124938 
L 225.095495 276.501194 
L 231.669459 274.307083 
L 238.243423 275.721961 
L 244.817387 276.096189 
L 251.391351 275.15103 
L 257.965315 274.092328 
L 264.53928 275.292507 
L 271.113244 275.703407 
L 277.687208 275.19793 
L 284.261172 276.462188 
L 290.835136 275.837704 
L 297.4091 274.426574 
L 303.983064 275.105836 
L 310.557028 274.725892 
L 317.130993 274.031678 
L 323.704957 275.303967 
L 330.278921 274.952182 
L 336.852885 276.224716 
L 343.426849 274.872999 
L 350.000813 274.627757 
L 356.574777 274.233633 
L 363.148741 274.483098 
L 369.722706 274.122643 
L 376.29667 274.758636 
L 382.870634 272.864641 
L 389.444598 273.71883 
L 396.018562 274.465692 
L 402.592526 273.173347 
L 409.16649 273.554923 
L 415.740455 274.804526 
" clip-path="url(#p434bbf6418)" style="fill: none; stroke: #ff0000; stroke-width: 1.5; stroke-linecap: square"/>
   </g>
   <g id="line2d_10">
    <path d="M 98.414061 -1 
L 100.190176 208.495477 
L 106.76414 243.458264 
L 113.338105 247.266319 
L 119.912069 250.50253 
L 126.486033 249.671704 
L 133.059997 249.763785 
L 139.633961 246.977932 
L 146.207925 249.810884 
L 152.781889 251.016319 
L 159.355853 253.46957 
L 165.929818 253.894236 
L 172.503782 252.38418 
L 179.077746 253.150229 
L 185.65171 252.949738 
L 192.225674 254.099623 
L 198.799638 251.906052 
L 205.373602 250.590166 
L 211.947566 251.236341 
L 218.521531 253.809602 
L 225.095495 251.146313 
L 231.669459 253.452241 
L 238.243423 251.749127 
L 244.817387 255.132419 
L 251.391351 251.509902 
L 257.965315 254.91695 
L 264.53928 250.799774 
L 271.113244 251.523467 
L 277.687208 253.287298 
L 284.261172 251.728009 
L 290.835136 252.410246 
L 297.4091 251.742267 
L 303.983064 251.364821 
L 310.557028 251.680646 
L 317.130993 247.870266 
L 323.704957 251.657756 
L 330.278921 251.983132 
L 336.852885 253.561989 
L 343.426849 250.76717 
L 350.000813 251.75086 
L 356.574777 251.017415 
L 363.148741 252.311818 
L 369.722706 249.595527 
L 376.29667 249.634645 
L 382.870634 250.759897 
L 389.444598 249.956189 
L 396.018562 250.651206 
L 402.592526 250.12542 
L 409.16649 250.930255 
L 415.740455 250.969353 
" clip-path="url(#p434bbf6418)" style="fill: none; stroke: #0000ff; stroke-width: 1.5; stroke-linecap: square"/>
   </g>
   <g id="line2d_11">
    <path d="M 93.616212 114.197027 
L 100.190176 225.245217 
L 106.76414 262.588326 
L 113.338105 267.273491 
L 119.912069 269.67723 
L 126.486033 269.751309 
L 133.059997 270.277502 
L 139.633961 270.497416 
L 146.207925 271.233214 
L 152.781889 272.080555 
L 159.355853 273.08721 
L 165.929818 272.001769 
L 172.503782 272.734208 
L 179.077746 272.421003 
L 185.65171 271.766053 
L 192.225674 269.988117 
L 198.799638 272.342803 
L 205.373602 271.571831 
L 211.947566 270.900477 
L 218.521531 272.19251 
L 225.095495 271.973884 
L 231.669459 271.427461 
L 238.243423 272.800229 
L 244.817387 272.748232 
L 251.391351 272.576768 
L 257.965315 271.958026 
L 264.53928 271.89756 
L 271.113244 271.036675 
L 277.687208 270.408456 
L 284.261172 271.407304 
L 290.835136 272.259481 
L 297.4091 271.11512 
L 303.983064 272.115288 
L 310.557028 270.567351 
L 317.130993 270.367629 
L 323.704957 271.232562 
L 330.278921 270.678917 
L 336.852885 269.082241 
L 343.426849 269.917467 
L 350.000813 268.028203 
L 356.574777 270.833123 
L 363.148741 270.31013 
L 369.722706 272.472409 
L 376.29667 269.840049 
L 382.870634 269.460726 
L 389.444598 269.300765 
L 396.018562 269.378824 
L 402.592526 269.042874 
L 409.16649 268.881965 
L 415.740455 270.585192 
" clip-path="url(#p434bbf6418)" style="fill: none; stroke: #008000; stroke-width: 1.5; stroke-linecap: square"/>
   </g>
   <g id="line2d_12">
    <path d="M 107.35533 -1 
L 113.338105 157.645166 
L 119.912069 215.831436 
L 126.486033 245.090165 
L 133.059997 251.478141 
L 139.633961 250.962794 
L 146.207925 254.224807 
L 152.781889 256.125296 
L 159.355853 256.958931 
L 165.929818 257.393521 
L 172.503782 259.208655 
L 179.077746 257.458485 
L 185.65171 257.722946 
L 192.225674 259.699995 
L 198.799638 260.461927 
L 205.373602 260.362415 
L 211.947566 261.899536 
L 218.521531 261.347234 
L 225.095495 260.340685 
L 231.669459 260.27337 
L 238.243423 260.241483 
L 244.817387 260.24035 
L 251.391351 261.077602 
L 257.965315 259.234902 
L 264.53928 260.229121 
L 271.113244 260.716713 
L 277.687208 258.301826 
L 284.261172 261.864459 
L 290.835136 260.025667 
L 297.4091 261.569047 
L 303.983064 259.473758 
L 310.557028 260.012916 
L 317.130993 260.978297 
L 323.704957 259.43307 
L 330.278921 259.91851 
L 336.852885 260.123708 
L 343.426849 260.206655 
L 350.000813 260.036431 
L 356.574777 260.557381 
L 363.148741 263.117315 
L 369.722706 257.743649 
L 376.29667 260.532067 
L 382.870634 260.472245 
L 389.444598 260.021331 
L 396.018562 259.874692 
L 402.592526 257.138874 
L 409.16649 256.467459 
L 415.740455 258.077197 
" clip-path="url(#p434bbf6418)" style="fill: none; stroke: #ff8c00; stroke-width: 1.5; stroke-linecap: square"/>
   </g>
   <g id="patch_3">
    <path d="M 77.51 324.52 
L 77.51 45.6 
" style="fill: none; stroke: #000000; stroke-width: 0.8; stroke-linejoin: miter; stroke-linecap: square"/>
   </g>
   <g id="patch_4">
    <path d="M 431.846667 324.52 
L 431.846667 45.6 
" style="fill: none; stroke: #000000; stroke-width: 0.8; stroke-linejoin: miter; stroke-linecap: square"/>
   </g>
   <g id="patch_5">
    <path d="M 77.51 324.52 
L 431.846667 324.52 
" style="fill: none; stroke: #000000; stroke-width: 0.8; stroke-linejoin: miter; stroke-linecap: square"/>
   </g>
   <g id="patch_6">
    <path d="M 77.51 45.6 
L 431.846667 45.6 
" style="fill: none; stroke: #000000; stroke-width: 0.8; stroke-linejoin: miter; stroke-linecap: square"/>
   </g>
   <g id="text_11">
    <!-- MNIST - 10 experiments -->
    <g transform="translate(104.742083 39.6)scale(0.24 -0.24)">
     <defs>
      <path id="DejaVuSerif-4d" d="M 353 0 
L 353 331 
L 947 331 
L 947 4331 
L 319 4331 
L 319 4666 
L 1678 4666 
L 3316 1344 
L 4953 4666 
L 6228 4666 
L 6228 4331 
L 5606 4331 
L 5606 331 
L 6203 331 
L 6203 0 
L 4378 0 
L 4378 331 
L 4972 331 
L 4972 3938 
L 3372 684 
L 2931 684 
L 1331 3938 
L 1331 331 
L 1925 331 
L 1925 0 
L 353 0 
z
" transform="scale(0.015625)"/>
      <path id="DejaVuSerif-4e" d="M 313 0 
L 313 331 
L 941 331 
L 941 4331 
L 313 4331 
L 313 4666 
L 1509 4666 
L 4306 984 
L 4306 4331 
L 3681 4331 
L 3681 4666 
L 5319 4666 
L 5319 4331 
L 4691 4331 
L 4691 -91 
L 4313 -91 
L 1325 3841 
L 1325 331 
L 1953 331 
L 1953 0 
L 313 0 
z
" transform="scale(0.015625)"/>
      <path id="DejaVuSerif-54" d="M 1222 0 
L 1222 331 
L 1819 331 
L 1819 4294 
L 447 4294 
L 447 3566 
L 63 3566 
L 63 4666 
L 4206 4666 
L 4206 3566 
L 3822 3566 
L 3822 4294 
L 2450 4294 
L 2450 331 
L 3047 331 
L 3047 0 
L 1222 0 
z
" transform="scale(0.015625)"/>
      <path id="DejaVuSerif-20" transform="scale(0.015625)"/>
      <path id="DejaVuSerif-31" d="M 909 0 
L 909 331 
L 1722 331 
L 1722 4213 
L 781 3603 
L 781 4013 
L 1919 4750 
L 2350 4750 
L 2350 331 
L 3163 331 
L 3163 0 
L 909 0 
z
" transform="scale(0.015625)"/>
      <path id="DejaVuSerif-78" d="M 1863 2028 
L 2559 2988 
L 2113 2988 
L 2113 3322 
L 3391 3322 
L 3391 2988 
L 2950 2988 
L 2059 1759 
L 3097 331 
L 3531 331 
L 3531 0 
L 1997 0 
L 1997 331 
L 2419 331 
L 1697 1325 
L 972 331 
L 1403 331 
L 1403 0 
L 141 0 
L 141 331 
L 581 331 
L 1497 1594 
L 488 2988 
L 78 2988 
L 78 3322 
L 1563 3322 
L 1563 2988 
L 1166 2988 
L 1863 2028 
z
" transform="scale(0.015625)"/>
      <path id="DejaVuSerif-69" d="M 622 4353 
Q 622 4497 726 4603 
Q 831 4709 978 4709 
Q 1122 4709 1226 4603 
Q 1331 4497 1331 4353 
Q 1331 4206 1228 4103 
Q 1125 4000 978 4000 
Q 831 4000 726 4103 
Q 622 4206 622 4353 
z
M 1356 331 
L 1900 331 
L 1900 0 
L 231 0 
L 231 331 
L 781 331 
L 781 2988 
L 231 2988 
L 231 3322 
L 1356 3322 
L 1356 331 
z
" transform="scale(0.015625)"/>
      <path id="DejaVuSerif-6d" d="M 3316 2675 
Q 3481 3041 3739 3227 
Q 3997 3413 4341 3413 
Q 4863 3413 5119 3089 
Q 5375 2766 5375 2113 
L 5375 331 
L 5894 331 
L 5894 0 
L 4300 0 
L 4300 331 
L 4800 331 
L 4800 2047 
Q 4800 2556 4650 2772 
Q 4500 2988 4153 2988 
Q 3769 2988 3567 2697 
Q 3366 2406 3366 1850 
L 3366 331 
L 3866 331 
L 3866 0 
L 2291 0 
L 2291 331 
L 2791 331 
L 2791 2069 
Q 2791 2566 2641 2777 
Q 2491 2988 2144 2988 
Q 1759 2988 1557 2697 
Q 1356 2406 1356 1850 
L 1356 331 
L 1856 331 
L 1856 0 
L 263 0 
L 263 331 
L 781 331 
L 781 2994 
L 231 2994 
L 231 3322 
L 1356 3322 
L 1356 2731 
Q 1516 3063 1762 3238 
Q 2009 3413 2322 3413 
Q 2709 3413 2968 3220 
Q 3228 3028 3316 2675 
z
" transform="scale(0.015625)"/>
      <path id="DejaVuSerif-6e" d="M 263 0 
L 263 331 
L 781 331 
L 781 2988 
L 231 2988 
L 231 3322 
L 1356 3322 
L 1356 2731 
Q 1516 3069 1770 3241 
Q 2025 3413 2363 3413 
Q 2913 3413 3172 3097 
Q 3431 2781 3431 2113 
L 3431 331 
L 3944 331 
L 3944 0 
L 2356 0 
L 2356 331 
L 2853 331 
L 2853 1931 
Q 2853 2541 2703 2767 
Q 2553 2994 2175 2994 
Q 1775 2994 1565 2701 
Q 1356 2409 1356 1850 
L 1356 331 
L 1856 331 
L 1856 0 
L 263 0 
z
" transform="scale(0.015625)"/>
      <path id="DejaVuSerif-74" d="M 691 2988 
L 184 2988 
L 184 3322 
L 691 3322 
L 691 4353 
L 1269 4353 
L 1269 3322 
L 2350 3322 
L 2350 2988 
L 1269 2988 
L 1269 878 
Q 1269 456 1350 337 
Q 1431 219 1650 219 
Q 1875 219 1978 351 
Q 2081 484 2088 781 
L 2522 781 
Q 2497 328 2275 118 
Q 2053 -91 1600 -91 
Q 1103 -91 897 129 
Q 691 350 691 878 
L 691 2988 
z
" transform="scale(0.015625)"/>
     </defs>
     <use xlink:href="#DejaVuSerif-4d"/>
     <use xlink:href="#DejaVuSerif-4e" x="102.392578"/>
     <use xlink:href="#DejaVuSerif-49" x="189.892578"/>
     <use xlink:href="#DejaVuSerif-53" x="229.394531"/>
     <use xlink:href="#DejaVuSerif-54" x="297.900391"/>
     <use xlink:href="#DejaVuSerif-20" x="364.599609"/>
     <use xlink:href="#DejaVuSerif-2d" x="396.386719"/>
     <use xlink:href="#DejaVuSerif-20" x="430.175781"/>
     <use xlink:href="#DejaVuSerif-31" x="461.962891"/>
     <use xlink:href="#DejaVuSerif-30" x="525.585938"/>
     <use xlink:href="#DejaVuSerif-20" x="589.208984"/>
     <use xlink:href="#DejaVuSerif-65" x="620.996094"/>
     <use xlink:href="#DejaVuSerif-78" x="680.175781"/>
     <use xlink:href="#DejaVuSerif-70" x="736.572266"/>
     <use xlink:href="#DejaVuSerif-65" x="800.585938"/>
     <use xlink:href="#DejaVuSerif-72" x="859.765625"/>
     <use xlink:href="#DejaVuSerif-69" x="907.568359"/>
     <use xlink:href="#DejaVuSerif-6d" x="939.550781"/>
     <use xlink:href="#DejaVuSerif-65" x="1034.375"/>
     <use xlink:href="#DejaVuSerif-6e" x="1093.554688"/>
     <use xlink:href="#DejaVuSerif-74" x="1157.958984"/>
     <use xlink:href="#DejaVuSerif-73" x="1198.144531"/>
    </g>
   </g>
   <g id="legend_1">
    <g id="patch_7">
     <path d="M 243.849792 179.025 
L 417.846667 179.025 
Q 421.846667 179.025 421.846667 175.025 
L 421.846667 59.6 
Q 421.846667 55.6 417.846667 55.6 
L 243.849792 55.6 
Q 239.849792 55.6 239.849792 59.6 
L 239.849792 175.025 
Q 239.849792 179.025 243.849792 179.025 
z
" style="fill: #ffffff; opacity: 0.8; stroke: #cccccc; stroke-linejoin: miter"/>
    </g>
    <g id="line2d_13">
     <path d="M 247.849792 71.796875 
L 267.849792 71.796875 
L 287.849792 71.796875 
" style="fill: none; stroke: #ff0000; stroke-width: 1.5; stroke-linecap: square"/>
    </g>
    <g id="text_12">
     <!-- GAN -->
     <g transform="translate(303.849792 78.796875)scale(0.2 -0.2)">
      <defs>
       <path id="DejaVuSerif-47" d="M 4097 3272 
Q 3988 3856 3641 4136 
Q 3294 4416 2675 4416 
Q 1869 4416 1472 3897 
Q 1075 3378 1075 2328 
Q 1075 1300 1484 772 
Q 1894 244 2688 244 
Q 3041 244 3362 331 
Q 3684 419 3975 594 
L 3975 1797 
L 3097 1797 
L 3097 2131 
L 4609 2131 
L 4609 391 
Q 4194 150 3714 29 
Q 3234 -91 2688 -91 
Q 1631 -91 995 570 
Q 359 1231 359 2328 
Q 359 3434 996 4092 
Q 1634 4750 2713 4750 
Q 3113 4750 3539 4658 
Q 3966 4566 4447 4378 
L 4447 3272 
L 4097 3272 
z
" transform="scale(0.015625)"/>
       <path id="DejaVuSerif-41" d="M 1281 1691 
L 2994 1691 
L 2138 3909 
L 1281 1691 
z
M -38 0 
L -38 331 
L 372 331 
L 2034 4666 
L 2559 4666 
L 4225 331 
L 4684 331 
L 4684 0 
L 2988 0 
L 2988 331 
L 3506 331 
L 3116 1356 
L 1153 1356 
L 763 331 
L 1275 331 
L 1275 0 
L -38 0 
z
" transform="scale(0.015625)"/>
      </defs>
      <use xlink:href="#DejaVuSerif-47"/>
      <use xlink:href="#DejaVuSerif-41" x="79.882812"/>
      <use xlink:href="#DejaVuSerif-4e" x="152.099609"/>
     </g>
    </g>
    <g id="line2d_14">
     <path d="M 247.849792 101.153125 
L 267.849792 101.153125 
L 287.849792 101.153125 
" style="fill: none; stroke: #0000ff; stroke-width: 1.5; stroke-linecap: square"/>
    </g>
    <g id="text_13">
     <!-- WGAN-SN -->
     <g transform="translate(303.849792 108.153125)scale(0.2 -0.2)">
      <defs>
       <path id="DejaVuSerif-57" d="M 4878 0 
L 4366 0 
L 3297 3794 
L 2228 0 
L 1716 0 
L 494 4331 
L 31 4331 
L 31 4666 
L 1734 4666 
L 1734 4331 
L 1153 4331 
L 2125 884 
L 3188 4666 
L 3694 4666 
L 4775 844 
L 5753 4331 
L 5216 4331 
L 5216 4666 
L 6559 4666 
L 6559 4331 
L 6100 4331 
L 4878 0 
z
" transform="scale(0.015625)"/>
      </defs>
      <use xlink:href="#DejaVuSerif-57"/>
      <use xlink:href="#DejaVuSerif-47" x="102.783203"/>
      <use xlink:href="#DejaVuSerif-41" x="182.666016"/>
      <use xlink:href="#DejaVuSerif-4e" x="254.882812"/>
      <use xlink:href="#DejaVuSerif-2d" x="342.382812"/>
      <use xlink:href="#DejaVuSerif-53" x="376.171875"/>
      <use xlink:href="#DejaVuSerif-4e" x="444.677734"/>
     </g>
    </g>
    <g id="line2d_15">
     <path d="M 247.849792 130.509375 
L 267.849792 130.509375 
L 287.849792 130.509375 
" style="fill: none; stroke: #008000; stroke-width: 1.5; stroke-linecap: square"/>
    </g>
    <g id="text_14">
     <!-- WGAN-WC -->
     <g transform="translate(303.849792 137.509375)scale(0.2 -0.2)">
      <defs>
       <path id="DejaVuSerif-43" d="M 4513 1234 
Q 4306 581 3820 245 
Q 3334 -91 2591 -91 
Q 2134 -91 1743 65 
Q 1353 222 1050 525 
Q 700 875 529 1320 
Q 359 1766 359 2328 
Q 359 3416 987 4083 
Q 1616 4750 2644 4750 
Q 3025 4750 3456 4650 
Q 3888 4550 4384 4347 
L 4384 3272 
L 4031 3272 
Q 3916 3859 3567 4137 
Q 3219 4416 2591 4416 
Q 1844 4416 1459 3886 
Q 1075 3356 1075 2328 
Q 1075 1303 1459 773 
Q 1844 244 2591 244 
Q 3113 244 3450 492 
Q 3788 741 3938 1234 
L 4513 1234 
z
" transform="scale(0.015625)"/>
      </defs>
      <use xlink:href="#DejaVuSerif-57"/>
      <use xlink:href="#DejaVuSerif-47" x="102.783203"/>
      <use xlink:href="#DejaVuSerif-41" x="182.666016"/>
      <use xlink:href="#DejaVuSerif-4e" x="254.882812"/>
      <use xlink:href="#DejaVuSerif-2d" x="342.382812"/>
      <use xlink:href="#DejaVuSerif-57" x="370.671875"/>
      <use xlink:href="#DejaVuSerif-43" x="473.455078"/>
     </g>
    </g>
    <g id="line2d_16">
     <path d="M 247.849792 159.865625 
L 267.849792 159.865625 
L 287.849792 159.865625 
" style="fill: none; stroke: #ff8c00; stroke-width: 1.5; stroke-linecap: square"/>
    </g>
    <g id="text_15">
     <!-- WGAN-GP -->
     <g transform="translate(303.849792 166.865625)scale(0.2 -0.2)">
      <defs>
       <path id="DejaVuSerif-50" d="M 1581 2375 
L 2406 2375 
Q 2872 2375 3115 2626 
Q 3359 2878 3359 3353 
Q 3359 3831 3115 4081 
Q 2872 4331 2406 4331 
L 1581 4331 
L 1581 2375 
z
M 353 0 
L 353 331 
L 947 331 
L 947 4331 
L 353 4331 
L 353 4666 
L 2559 4666 
Q 3259 4666 3668 4311 
Q 4078 3956 4078 3353 
Q 4078 2753 3668 2397 
Q 3259 2041 2559 2041 
L 1581 2041 
L 1581 331 
L 2303 331 
L 2303 0 
L 353 0 
z
" transform="scale(0.015625)"/>
      </defs>
      <use xlink:href="#DejaVuSerif-57"/>
      <use xlink:href="#DejaVuSerif-47" x="102.783203"/>
      <use xlink:href="#DejaVuSerif-41" x="182.666016"/>
      <use xlink:href="#DejaVuSerif-4e" x="254.882812"/>
      <use xlink:href="#DejaVuSerif-2d" x="342.382812"/>
      <use xlink:href="#DejaVuSerif-47" x="376.171875"/>
      <use xlink:href="#DejaVuSerif-50" x="456.054688"/>
     </g>
    </g>
   </g>
  </g>
  <g id="axes_2">
   <g id="patch_8">
    <path d="M 498.786667 324.52 
L 853.123333 324.52 
L 853.123333 45.6 
L 498.786667 45.6 
z
" style="fill: #ffffff"/>
   </g>
   <g id="PolyCollection_5">
    <defs>
     <path id="m9f179f0d97" d="M 514.892879 -337.721818 
L 514.892879 -195.90241 
L 521.466843 -130.246296 
L 528.040807 -107.620351 
L 534.614771 -106.455912 
L 541.188735 -100.175478 
L 547.762699 -95.118698 
L 554.336664 -91.458551 
L 560.910628 -90.539351 
L 567.484592 -90.975152 
L 574.058556 -91.286815 
L 580.63252 -87.276228 
L 587.206484 -85.572476 
L 593.780448 -87.852579 
L 600.354412 -87.159445 
L 606.928377 -84.158182 
L 613.502341 -85.021 
L 620.076305 -86.630305 
L 626.650269 -84.386295 
L 633.224233 -84.503594 
L 639.798197 -86.798148 
L 646.372161 -85.775682 
L 652.946126 -84.825289 
L 659.52009 -84.627251 
L 666.094054 -86.720271 
L 672.668018 -85.902147 
L 679.241982 -87.116621 
L 685.815946 -88.021033 
L 692.38991 -85.467335 
L 698.963874 -86.143762 
L 705.537839 -87.762421 
L 712.111803 -88.842624 
L 718.685767 -87.715089 
L 725.259731 -89.326638 
L 731.833695 -89.088467 
L 738.407659 -90.187566 
L 744.981623 -88.895377 
L 751.555588 -90.05401 
L 758.129552 -91.237459 
L 764.703516 -91.87463 
L 771.27748 -91.312758 
L 777.851444 -90.55987 
L 784.425408 -92.283603 
L 790.999372 -94.205962 
L 797.573336 -93.29326 
L 804.147301 -92.383875 
L 810.721265 -94.758549 
L 817.295229 -93.217888 
L 823.869193 -93.488935 
L 830.443157 -96.418169 
L 837.017121 -95.231868 
L 837.017121 -117.288684 
L 837.017121 -117.288684 
L 830.443157 -119.364961 
L 823.869193 -115.493898 
L 817.295229 -115.05695 
L 810.721265 -121.079303 
L 804.147301 -118.108714 
L 797.573336 -120.286686 
L 790.999372 -120.197974 
L 784.425408 -119.178357 
L 777.851444 -117.581555 
L 771.27748 -119.215074 
L 764.703516 -121.260639 
L 758.129552 -121.148636 
L 751.555588 -120.0908 
L 744.981623 -120.351902 
L 738.407659 -122.76409 
L 731.833695 -121.541642 
L 725.259731 -123.378208 
L 718.685767 -122.53375 
L 712.111803 -124.32084 
L 705.537839 -122.96598 
L 698.963874 -121.327955 
L 692.38991 -122.149691 
L 685.815946 -126.337302 
L 679.241982 -126.476286 
L 672.668018 -124.882131 
L 666.094054 -126.918046 
L 659.52009 -125.090723 
L 652.946126 -126.658457 
L 646.372161 -129.015121 
L 639.798197 -130.685508 
L 633.224233 -128.577644 
L 626.650269 -129.708749 
L 620.076305 -134.185728 
L 613.502341 -131.91504 
L 606.928377 -131.62843 
L 600.354412 -136.857043 
L 593.780448 -140.41982 
L 587.206484 -136.480347 
L 580.63252 -139.984091 
L 574.058556 -149.018688 
L 567.484592 -147.554908 
L 560.910628 -148.419943 
L 554.336664 -150.144137 
L 547.762699 -155.860158 
L 541.188735 -165.152878 
L 534.614771 -174.875732 
L 528.040807 -180.095212 
L 521.466843 -222.517313 
L 514.892879 -337.721818 
z
" style="stroke: #ff0000; stroke-opacity: 0.4"/>
    </defs>
    <g clip-path="url(#p77e51aebab)">
     <use xlink:href="#m9f179f0d97" x="0" y="396" style="fill: #ff0000; fill-opacity: 0.4; stroke: #ff0000; stroke-opacity: 0.4"/>
    </g>
   </g>
   <g id="PolyCollection_6">
    <defs>
     <path id="m8df6ff672b" d="M 514.892879 -303.265848 
L 514.892879 -185.874383 
L 521.466843 -161.19649 
L 528.040807 -155.81933 
L 534.614771 -146.240179 
L 541.188735 -138.217667 
L 547.762699 -128.646064 
L 554.336664 -121.319783 
L 560.910628 -116.505048 
L 567.484592 -115.977865 
L 574.058556 -113.485066 
L 580.63252 -112.863687 
L 587.206484 -117.347918 
L 593.780448 -113.356982 
L 600.354412 -115.467152 
L 606.928377 -118.67694 
L 613.502341 -115.727999 
L 620.076305 -116.909233 
L 626.650269 -117.643988 
L 633.224233 -118.440046 
L 639.798197 -121.246334 
L 646.372161 -120.199026 
L 652.946126 -124.147548 
L 659.52009 -127.040955 
L 666.094054 -125.94347 
L 672.668018 -126.251235 
L 679.241982 -130.733127 
L 685.815946 -130.816861 
L 692.38991 -130.967752 
L 698.963874 -135.951897 
L 705.537839 -132.531982 
L 712.111803 -132.03645 
L 718.685767 -135.766572 
L 725.259731 -131.655491 
L 731.833695 -131.391637 
L 738.407659 -129.671593 
L 744.981623 -134.365113 
L 751.555588 -134.622277 
L 758.129552 -136.239701 
L 764.703516 -128.844932 
L 771.27748 -129.63168 
L 777.851444 -135.830743 
L 784.425408 -134.715433 
L 790.999372 -136.133561 
L 797.573336 -139.080567 
L 804.147301 -133.462668 
L 810.721265 -135.70561 
L 817.295229 -138.651391 
L 823.869193 -139.951843 
L 830.443157 -141.497573 
L 837.017121 -139.759597 
L 837.017121 -201.375485 
L 837.017121 -201.375485 
L 830.443157 -203.12137 
L 823.869193 -202.73006 
L 817.295229 -202.173753 
L 810.721265 -214.864735 
L 804.147301 -202.098177 
L 797.573336 -204.010078 
L 790.999372 -200.860908 
L 784.425408 -204.187142 
L 777.851444 -219.882076 
L 771.27748 -207.652986 
L 764.703516 -210.942649 
L 758.129552 -200.208182 
L 751.555588 -209.072842 
L 744.981623 -207.327577 
L 738.407659 -207.082896 
L 731.833695 -208.736844 
L 725.259731 -204.702455 
L 718.685767 -216.353003 
L 712.111803 -206.487031 
L 705.537839 -212.937962 
L 698.963874 -217.440951 
L 692.38991 -209.498014 
L 685.815946 -203.238901 
L 679.241982 -204.489186 
L 672.668018 -217.148151 
L 666.094054 -203.158665 
L 659.52009 -203.624023 
L 652.946126 -200.944055 
L 646.372161 -234.698476 
L 639.798197 -206.214485 
L 633.224233 -189.16062 
L 626.650269 -196.900567 
L 620.076305 -202.668414 
L 613.502341 -190.885194 
L 606.928377 -199.915974 
L 600.354412 -197.187748 
L 593.780448 -191.081331 
L 587.206484 -195.879073 
L 580.63252 -189.821206 
L 574.058556 -192.609676 
L 567.484592 -189.086457 
L 560.910628 -192.330929 
L 554.336664 -198.024222 
L 547.762699 -209.342061 
L 541.188735 -226.505957 
L 534.614771 -236.565663 
L 528.040807 -253.768223 
L 521.466843 -265.028734 
L 514.892879 -303.265848 
z
" style="stroke: #0000ff; stroke-opacity: 0.4"/>
    </defs>
    <g clip-path="url(#p77e51aebab)">
     <use xlink:href="#m8df6ff672b" x="0" y="396" style="fill: #0000ff; fill-opacity: 0.4; stroke: #0000ff; stroke-opacity: 0.4"/>
    </g>
   </g>
   <g id="PolyCollection_7">
    <defs>
     <path id="ma5905bb9d1" d="M 514.892879 -243.406631 
L 514.892879 -148.178142 
L 521.466843 -106.702368 
L 528.040807 -98.87544 
L 534.614771 -94.52952 
L 541.188735 -89.862365 
L 547.762699 -89.977595 
L 554.336664 -86.395217 
L 560.910628 -86.202471 
L 567.484592 -85.624297 
L 574.058556 -85.635821 
L 580.63252 -85.911018 
L 587.206484 -85.28335 
L 593.780448 -84.449632 
L 600.354412 -85.262601 
L 606.928377 -86.107415 
L 613.502341 -87.094013 
L 620.076305 -86.487112 
L 626.650269 -85.957961 
L 633.224233 -87.299965 
L 639.798197 -86.573507 
L 646.372161 -88.523345 
L 652.946126 -88.665889 
L 659.52009 -89.368611 
L 666.094054 -87.457729 
L 672.668018 -88.80147 
L 679.241982 -89.42386 
L 685.815946 -90.71141 
L 692.38991 -92.238226 
L 698.963874 -90.089762 
L 705.537839 -91.476324 
L 712.111803 -93.193904 
L 718.685767 -90.593985 
L 725.259731 -92.202602 
L 731.833695 -92.341855 
L 738.407659 -93.359246 
L 744.981623 -93.73481 
L 751.555588 -93.967252 
L 758.129552 -95.142532 
L 764.703516 -93.291079 
L 771.27748 -93.950019 
L 777.851444 -96.087837 
L 784.425408 -95.979084 
L 790.999372 -94.930675 
L 797.573336 -96.218829 
L 804.147301 -97.139288 
L 810.721265 -96.608062 
L 817.295229 -97.786893 
L 823.869193 -97.217399 
L 830.443157 -99.1789 
L 837.017121 -99.690675 
L 837.017121 -123.050213 
L 837.017121 -123.050213 
L 830.443157 -122.611676 
L 823.869193 -121.413432 
L 817.295229 -122.49527 
L 810.721265 -122.867551 
L 804.147301 -123.367282 
L 797.573336 -122.892266 
L 790.999372 -122.02292 
L 784.425408 -123.941531 
L 777.851444 -124.873904 
L 771.27748 -123.760778 
L 764.703516 -123.447434 
L 758.129552 -127.366495 
L 751.555588 -125.565639 
L 744.981623 -125.785267 
L 738.407659 -126.570698 
L 731.833695 -125.856355 
L 725.259731 -128.231886 
L 718.685767 -125.205514 
L 712.111803 -130.023154 
L 705.537839 -128.619743 
L 698.963874 -127.469413 
L 692.38991 -131.75998 
L 685.815946 -130.652197 
L 679.241982 -130.620906 
L 672.668018 -129.193032 
L 666.094054 -128.130606 
L 659.52009 -132.257865 
L 652.946126 -131.891705 
L 646.372161 -132.18931 
L 639.798197 -130.060449 
L 633.224233 -132.443267 
L 626.650269 -131.170736 
L 620.076305 -133.086339 
L 613.502341 -134.981272 
L 606.928377 -134.268669 
L 600.354412 -134.062241 
L 593.780448 -133.95793 
L 587.206484 -135.967879 
L 580.63252 -138.816103 
L 574.058556 -138.50882 
L 567.484592 -139.396284 
L 560.910628 -140.992101 
L 554.336664 -142.1377 
L 547.762699 -148.534329 
L 541.188735 -148.96646 
L 534.614771 -156.967386 
L 528.040807 -164.976846 
L 521.466843 -181.040515 
L 514.892879 -243.406631 
z
" style="stroke: #008000; stroke-opacity: 0.4"/>
    </defs>
    <g clip-path="url(#p77e51aebab)">
     <use xlink:href="#ma5905bb9d1" x="0" y="396" style="fill: #008000; fill-opacity: 0.4; stroke: #008000; stroke-opacity: 0.4"/>
    </g>
   </g>
   <g id="PolyCollection_8">
    <defs>
     <path id="m5952fa8bda" d="M 514.892879 -229.095909 
L 514.892879 -141.524267 
L 521.466843 -111.687072 
L 528.040807 -106.080141 
L 534.614771 -99.179918 
L 541.188735 -93.302084 
L 547.762699 -90.10508 
L 554.336664 -86.672399 
L 560.910628 -86.665925 
L 567.484592 -88.246319 
L 574.058556 -87.855784 
L 580.63252 -89.049356 
L 587.206484 -85.271847 
L 593.780448 -84.771071 
L 600.354412 -84.213634 
L 606.928377 -86.683997 
L 613.502341 -87.202568 
L 620.076305 -87.48873 
L 626.650269 -86.629577 
L 633.224233 -85.791828 
L 639.798197 -87.56457 
L 646.372161 -87.460644 
L 652.946126 -88.896276 
L 659.52009 -87.878558 
L 666.094054 -87.930479 
L 672.668018 -87.577779 
L 679.241982 -86.58154 
L 685.815946 -88.522408 
L 692.38991 -90.481626 
L 698.963874 -89.71357 
L 705.537839 -89.007686 
L 712.111803 -90.461012 
L 718.685767 -90.026182 
L 725.259731 -90.450842 
L 731.833695 -92.911271 
L 738.407659 -92.961138 
L 744.981623 -93.432011 
L 751.555588 -92.336568 
L 758.129552 -93.21135 
L 764.703516 -93.701983 
L 771.27748 -94.362307 
L 777.851444 -94.348981 
L 784.425408 -94.107112 
L 790.999372 -93.677489 
L 797.573336 -93.051365 
L 804.147301 -94.774614 
L 810.721265 -97.112766 
L 817.295229 -94.92717 
L 823.869193 -95.339009 
L 830.443157 -95.725967 
L 837.017121 -97.163138 
L 837.017121 -119.492222 
L 837.017121 -119.492222 
L 830.443157 -117.916207 
L 823.869193 -117.459513 
L 817.295229 -117.766506 
L 810.721265 -123.544406 
L 804.147301 -121.538956 
L 797.573336 -118.397081 
L 790.999372 -119.774143 
L 784.425408 -121.012011 
L 777.851444 -122.079596 
L 771.27748 -123.616678 
L 764.703516 -123.376825 
L 758.129552 -123.217782 
L 751.555588 -124.290478 
L 744.981623 -126.417847 
L 738.407659 -127.223778 
L 731.833695 -127.363913 
L 725.259731 -124.656179 
L 718.685767 -124.866855 
L 712.111803 -125.856265 
L 705.537839 -125.395037 
L 698.963874 -128.477853 
L 692.38991 -128.673004 
L 685.815946 -127.076346 
L 679.241982 -125.03518 
L 672.668018 -127.193945 
L 666.094054 -130.02853 
L 659.52009 -129.480505 
L 652.946126 -132.911352 
L 646.372161 -131.017253 
L 639.798197 -132.83984 
L 633.224233 -130.373835 
L 626.650269 -132.427756 
L 620.076305 -135.117754 
L 613.502341 -135.764966 
L 606.928377 -136.344468 
L 600.354412 -132.80246 
L 593.780448 -134.656436 
L 587.206484 -136.283804 
L 580.63252 -142.746983 
L 574.058556 -142.736114 
L 567.484592 -143.603573 
L 560.910628 -142.540189 
L 554.336664 -142.612271 
L 547.762699 -149.083127 
L 541.188735 -154.402174 
L 534.614771 -164.100964 
L 528.040807 -174.622583 
L 521.466843 -184.452905 
L 514.892879 -229.095909 
z
" style="stroke: #ff8c00; stroke-opacity: 0.4"/>
    </defs>
    <g clip-path="url(#p77e51aebab)">
     <use xlink:href="#m5952fa8bda" x="0" y="396" style="fill: #ff8c00; fill-opacity: 0.4; stroke: #ff8c00; stroke-opacity: 0.4"/>
    </g>
   </g>
   <g id="matplotlib.axis_3">
    <g id="xtick_4">
     <g id="line2d_17">
      <g>
       <use xlink:href="#mb9d8397b4a" x="514.892879" y="324.52" style="stroke: #000000; stroke-width: 0.8"/>
      </g>
     </g>
     <g id="text_16">
      <!-- 0 -->
      <g transform="translate(508.530379 346.716875)scale(0.2 -0.2)">
       <use xlink:href="#DejaVuSerif-30"/>
      </g>
     </g>
    </g>
    <g id="xtick_5">
     <g id="line2d_18">
      <g>
       <use xlink:href="#mb9d8397b4a" x="646.372161" y="324.52" style="stroke: #000000; stroke-width: 0.8"/>
      </g>
     </g>
     <g id="text_17">
      <!-- 20 -->
      <g transform="translate(633.647161 346.716875)scale(0.2 -0.2)">
       <use xlink:href="#DejaVuSerif-32"/>
       <use xlink:href="#DejaVuSerif-30" x="63.623047"/>
      </g>
     </g>
    </g>
    <g id="xtick_6">
     <g id="line2d_19">
      <g>
       <use xlink:href="#mb9d8397b4a" x="777.851444" y="324.52" style="stroke: #000000; stroke-width: 0.8"/>
      </g>
     </g>
     <g id="text_18">
      <!-- 40 -->
      <g transform="translate(765.126444 346.716875)scale(0.2 -0.2)">
       <use xlink:href="#DejaVuSerif-34"/>
       <use xlink:href="#DejaVuSerif-30" x="63.623047"/>
      </g>
     </g>
    </g>
    <g id="text_19">
     <!-- Epochs -->
     <g transform="translate(639.06125 370.073125)scale(0.2 -0.2)">
      <use xlink:href="#DejaVuSerif-45"/>
      <use xlink:href="#DejaVuSerif-70" x="72.998047"/>
      <use xlink:href="#DejaVuSerif-6f" x="137.011719"/>
      <use xlink:href="#DejaVuSerif-63" x="197.216797"/>
      <use xlink:href="#DejaVuSerif-68" x="253.222656"/>
      <use xlink:href="#DejaVuSerif-73" x="317.626953"/>
     </g>
    </g>
   </g>
   <g id="matplotlib.axis_4">
    <g id="ytick_6">
     <g id="line2d_20">
      <g>
       <use xlink:href="#m7eb9bed8af" x="498.786667" y="289.275638" style="stroke: #000000; stroke-width: 0.8"/>
      </g>
     </g>
     <g id="text_20">
      <!-- 75 -->
      <g transform="translate(466.336667 296.874075)scale(0.2 -0.2)">
       <defs>
        <path id="DejaVuSerif-37" d="M 3609 4347 
L 1784 0 
L 1319 0 
L 3059 4153 
L 903 4153 
L 903 3578 
L 538 3578 
L 538 4666 
L 3609 4666 
L 3609 4347 
z
" transform="scale(0.015625)"/>
        <path id="DejaVuSerif-35" d="M 3219 4666 
L 3219 4153 
L 1081 4153 
L 1081 2816 
Q 1244 2928 1461 2984 
Q 1678 3041 1947 3041 
Q 2703 3041 3140 2622 
Q 3578 2203 3578 1478 
Q 3578 738 3136 323 
Q 2694 -91 1894 -91 
Q 1572 -91 1234 -12 
Q 897 66 544 225 
L 544 1131 
L 897 1131 
Q 925 688 1179 453 
Q 1434 219 1894 219 
Q 2388 219 2653 544 
Q 2919 869 2919 1478 
Q 2919 2084 2655 2407 
Q 2391 2731 1894 2731 
Q 1613 2731 1398 2631 
Q 1184 2531 1019 2322 
L 750 2322 
L 750 4666 
L 3219 4666 
z
" transform="scale(0.015625)"/>
       </defs>
       <use xlink:href="#DejaVuSerif-37"/>
       <use xlink:href="#DejaVuSerif-35" x="63.623047"/>
      </g>
     </g>
    </g>
    <g id="ytick_7">
     <g id="line2d_21">
      <g>
       <use xlink:href="#m7eb9bed8af" x="498.786667" y="237.807531" style="stroke: #000000; stroke-width: 0.8"/>
      </g>
     </g>
     <g id="text_21">
      <!-- 100 -->
      <g transform="translate(453.611667 245.405969)scale(0.2 -0.2)">
       <use xlink:href="#DejaVuSerif-31"/>
       <use xlink:href="#DejaVuSerif-30" x="63.623047"/>
       <use xlink:href="#DejaVuSerif-30" x="127.246094"/>
      </g>
     </g>
    </g>
    <g id="ytick_8">
     <g id="line2d_22">
      <g>
       <use xlink:href="#m7eb9bed8af" x="498.786667" y="186.339425" style="stroke: #000000; stroke-width: 0.8"/>
      </g>
     </g>
     <g id="text_22">
      <!-- 125 -->
      <g transform="translate(453.611667 193.937862)scale(0.2 -0.2)">
       <use xlink:href="#DejaVuSerif-31"/>
       <use xlink:href="#DejaVuSerif-32" x="63.623047"/>
       <use xlink:href="#DejaVuSerif-35" x="127.246094"/>
      </g>
     </g>
    </g>
    <g id="ytick_9">
     <g id="line2d_23">
      <g>
       <use xlink:href="#m7eb9bed8af" x="498.786667" y="134.871318" style="stroke: #000000; stroke-width: 0.8"/>
      </g>
     </g>
     <g id="text_23">
      <!-- 150 -->
      <g transform="translate(453.611667 142.469756)scale(0.2 -0.2)">
       <use xlink:href="#DejaVuSerif-31"/>
       <use xlink:href="#DejaVuSerif-35" x="63.623047"/>
       <use xlink:href="#DejaVuSerif-30" x="127.246094"/>
      </g>
     </g>
    </g>
    <g id="ytick_10">
     <g id="line2d_24">
      <g>
       <use xlink:href="#m7eb9bed8af" x="498.786667" y="83.403211" style="stroke: #000000; stroke-width: 0.8"/>
      </g>
     </g>
     <g id="text_24">
      <!-- 175 -->
      <g transform="translate(453.611667 91.001649)scale(0.2 -0.2)">
       <use xlink:href="#DejaVuSerif-31"/>
       <use xlink:href="#DejaVuSerif-37" x="63.623047"/>
       <use xlink:href="#DejaVuSerif-35" x="127.246094"/>
      </g>
     </g>
    </g>
   </g>
   <g id="line2d_25">
    <path d="M 514.892879 129.187886 
L 521.466843 219.618196 
L 528.040807 252.142218 
L 534.614771 255.334178 
L 541.188735 263.335822 
L 547.762699 270.510572 
L 554.336664 275.198656 
L 560.910628 276.520353 
L 567.484592 276.73497 
L 574.058556 275.847248 
L 580.63252 282.36984 
L 587.206484 284.973588 
L 593.780448 281.8638 
L 600.354412 283.991756 
L 606.928377 288.106694 
L 613.502341 287.53198 
L 620.076305 285.591984 
L 626.650269 288.952478 
L 633.224233 289.459381 
L 639.798197 287.258172 
L 646.372161 288.604598 
L 652.946126 290.258127 
L 659.52009 291.141013 
L 666.094054 289.180842 
L 672.668018 290.607861 
L 679.241982 289.203546 
L 685.815946 288.820833 
L 692.38991 292.191487 
L 698.963874 292.264141 
L 705.537839 290.6358 
L 712.111803 289.418268 
L 718.685767 290.875581 
L 725.259731 289.647577 
L 731.833695 290.684945 
L 738.407659 289.524172 
L 744.981623 291.37636 
L 751.555588 290.927595 
L 758.129552 289.806952 
L 764.703516 289.432365 
L 771.27748 290.736084 
L 777.851444 291.929287 
L 784.425408 290.26902 
L 790.999372 288.798032 
L 797.573336 289.210027 
L 804.147301 290.753706 
L 810.721265 288.081074 
L 817.295229 291.862581 
L 823.869193 291.508583 
L 830.443157 288.108435 
L 837.017121 289.739724 
" clip-path="url(#p77e51aebab)" style="fill: none; stroke: #ff0000; stroke-width: 1.5; stroke-linecap: square"/>
   </g>
   <g id="line2d_26">
    <path d="M 514.892879 151.429884 
L 521.466843 182.887388 
L 528.040807 191.206223 
L 534.614771 204.597079 
L 541.188735 213.638188 
L 547.762699 227.005937 
L 554.336664 236.327997 
L 560.910628 241.582012 
L 567.484592 243.467839 
L 574.058556 242.952629 
L 580.63252 244.657553 
L 587.206484 239.386504 
L 593.780448 243.780843 
L 600.354412 239.67255 
L 606.928377 236.703543 
L 613.502341 242.693403 
L 620.076305 236.211176 
L 626.650269 238.727722 
L 633.224233 242.199667 
L 639.798197 232.269591 
L 646.372161 218.551249 
L 652.946126 233.454199 
L 659.52009 230.667511 
L 666.094054 231.448932 
L 672.668018 224.300307 
L 679.241982 228.388844 
L 685.815946 228.972119 
L 692.38991 225.767117 
L 698.963874 219.303576 
L 705.537839 223.265028 
L 712.111803 226.738259 
L 718.685767 219.940213 
L 725.259731 227.821027 
L 731.833695 225.935759 
L 738.407659 227.622756 
L 744.981623 225.153655 
L 751.555588 224.15244 
L 758.129552 227.776058 
L 764.703516 226.10621 
L 771.27748 227.357667 
L 777.851444 218.143591 
L 784.425408 226.548712 
L 790.999372 227.502765 
L 797.573336 224.454677 
L 804.147301 228.219577 
L 810.721265 220.714828 
L 817.295229 225.587428 
L 823.869193 224.659049 
L 830.443157 223.690528 
L 837.017121 225.432459 
" clip-path="url(#p77e51aebab)" style="fill: none; stroke: #0000ff; stroke-width: 1.5; stroke-linecap: square"/>
   </g>
   <g id="line2d_27">
    <path d="M 514.892879 200.207614 
L 521.466843 252.128559 
L 528.040807 264.073857 
L 534.614771 270.251547 
L 541.188735 276.585587 
L 547.762699 276.744038 
L 554.336664 281.733541 
L 560.910628 282.402714 
L 567.484592 283.489709 
L 574.058556 283.92768 
L 580.63252 283.63644 
L 587.206484 285.374386 
L 593.780448 286.796219 
L 600.354412 286.337579 
L 606.928377 285.811958 
L 613.502341 284.962358 
L 620.076305 286.213274 
L 626.650269 287.435651 
L 633.224233 286.128384 
L 639.798197 287.683022 
L 646.372161 285.643673 
L 652.946126 285.721203 
L 659.52009 285.186762 
L 666.094054 288.205832 
L 672.668018 287.002749 
L 679.241982 285.977617 
L 685.815946 285.318197 
L 692.38991 284.000897 
L 698.963874 287.220412 
L 705.537839 285.951967 
L 712.111803 284.391471 
L 718.685767 288.10025 
L 725.259731 285.782756 
L 731.833695 286.900895 
L 738.407659 286.035028 
L 744.981623 286.239961 
L 751.555588 286.233554 
L 758.129552 284.745487 
L 764.703516 287.630743 
L 771.27748 287.144601 
L 777.851444 285.51913 
L 784.425408 286.039692 
L 790.999372 287.523203 
L 797.573336 286.444453 
L 804.147301 285.746715 
L 810.721265 286.262194 
L 817.295229 285.858918 
L 823.869193 286.684585 
L 830.443157 285.104712 
L 837.017121 284.629556 
" clip-path="url(#p77e51aebab)" style="fill: none; stroke: #008000; stroke-width: 1.5; stroke-linecap: square"/>
   </g>
   <g id="line2d_28">
    <path d="M 514.892879 210.689912 
L 521.466843 247.930011 
L 528.040807 255.648638 
L 534.614771 264.359559 
L 541.188735 272.147871 
L 547.762699 276.405896 
L 554.336664 281.357665 
L 560.910628 281.396943 
L 567.484592 280.075054 
L 574.058556 280.704051 
L 580.63252 280.10183 
L 587.206484 285.222174 
L 593.780448 286.286247 
L 600.354412 287.491953 
L 606.928377 284.485767 
L 613.502341 284.516233 
L 620.076305 284.696758 
L 626.650269 286.471333 
L 633.224233 287.917169 
L 639.798197 285.797795 
L 646.372161 286.761052 
L 652.946126 285.096186 
L 659.52009 287.320468 
L 666.094054 287.020496 
L 672.668018 288.614138 
L 679.241982 290.19164 
L 685.815946 288.200623 
L 692.38991 286.422685 
L 698.963874 286.904288 
L 705.537839 288.798639 
L 712.111803 287.841362 
L 718.685767 288.553481 
L 725.259731 288.44649 
L 731.833695 285.862408 
L 738.407659 285.907542 
L 744.981623 286.075071 
L 751.555588 287.686477 
L 758.129552 287.785434 
L 764.703516 287.460596 
L 771.27748 287.010507 
L 777.851444 287.785712 
L 784.425408 288.440438 
L 790.999372 289.274184 
L 797.573336 290.275777 
L 804.147301 287.843215 
L 810.721265 285.671414 
L 817.295229 289.653162 
L 823.869193 289.600739 
L 830.443157 289.178913 
L 837.017121 287.67232 
" clip-path="url(#p77e51aebab)" style="fill: none; stroke: #ff8c00; stroke-width: 1.5; stroke-linecap: square"/>
   </g>
   <g id="patch_9">
    <path d="M 498.786667 324.52 
L 498.786667 45.6 
" style="fill: none; stroke: #000000; stroke-width: 0.8; stroke-linejoin: miter; stroke-linecap: square"/>
   </g>
   <g id="patch_10">
    <path d="M 853.123333 324.52 
L 853.123333 45.6 
" style="fill: none; stroke: #000000; stroke-width: 0.8; stroke-linejoin: miter; stroke-linecap: square"/>
   </g>
   <g id="patch_11">
    <path d="M 498.786667 324.52 
L 853.123333 324.52 
" style="fill: none; stroke: #000000; stroke-width: 0.8; stroke-linejoin: miter; stroke-linecap: square"/>
   </g>
   <g id="patch_12">
    <path d="M 498.786667 45.6 
L 853.123333 45.6 
" style="fill: none; stroke: #000000; stroke-width: 0.8; stroke-linejoin: miter; stroke-linecap: square"/>
   </g>
   <g id="text_25">
    <!-- CIFAR10 - 10 experiments -->
    <g transform="translate(515.599375 39.6)scale(0.24 -0.24)">
     <defs>
      <path id="DejaVuSerif-52" d="M 3066 2316 
Q 3284 2256 3442 2114 
Q 3600 1972 3725 1716 
L 4403 331 
L 4972 331 
L 4972 0 
L 3872 0 
L 3144 1484 
Q 2934 1916 2759 2042 
Q 2584 2169 2278 2169 
L 1581 2169 
L 1581 331 
L 2241 331 
L 2241 0 
L 353 0 
L 353 331 
L 947 331 
L 947 4331 
L 353 4331 
L 353 4666 
L 2719 4666 
Q 3400 4666 3770 4341 
Q 4141 4016 4141 3419 
Q 4141 2938 3870 2661 
Q 3600 2384 3066 2316 
z
M 1581 2503 
L 2503 2503 
Q 2975 2503 3200 2726 
Q 3425 2950 3425 3419 
Q 3425 3888 3200 4109 
Q 2975 4331 2503 4331 
L 1581 4331 
L 1581 2503 
z
" transform="scale(0.015625)"/>
     </defs>
     <use xlink:href="#DejaVuSerif-43"/>
     <use xlink:href="#DejaVuSerif-49" x="76.513672"/>
     <use xlink:href="#DejaVuSerif-46" x="116.015625"/>
     <use xlink:href="#DejaVuSerif-41" x="176.650391"/>
     <use xlink:href="#DejaVuSerif-52" x="248.867188"/>
     <use xlink:href="#DejaVuSerif-31" x="324.160156"/>
     <use xlink:href="#DejaVuSerif-30" x="387.783203"/>
     <use xlink:href="#DejaVuSerif-20" x="451.40625"/>
     <use xlink:href="#DejaVuSerif-2d" x="483.193359"/>
     <use xlink:href="#DejaVuSerif-20" x="516.982422"/>
     <use xlink:href="#DejaVuSerif-31" x="548.769531"/>
     <use xlink:href="#DejaVuSerif-30" x="612.392578"/>
     <use xlink:href="#DejaVuSerif-20" x="676.015625"/>
     <use xlink:href="#DejaVuSerif-65" x="707.802734"/>
     <use xlink:href="#DejaVuSerif-78" x="766.982422"/>
     <use xlink:href="#DejaVuSerif-70" x="823.378906"/>
     <use xlink:href="#DejaVuSerif-65" x="887.392578"/>
     <use xlink:href="#DejaVuSerif-72" x="946.572266"/>
     <use xlink:href="#DejaVuSerif-69" x="994.375"/>
     <use xlink:href="#DejaVuSerif-6d" x="1026.357422"/>
     <use xlink:href="#DejaVuSerif-65" x="1121.181641"/>
     <use xlink:href="#DejaVuSerif-6e" x="1180.361328"/>
     <use xlink:href="#DejaVuSerif-74" x="1244.765625"/>
     <use xlink:href="#DejaVuSerif-73" x="1284.951172"/>
    </g>
   </g>
   <g id="legend_2">
    <g id="patch_13">
     <path d="M 665.126458 179.025 
L 839.123333 179.025 
Q 843.123333 179.025 843.123333 175.025 
L 843.123333 59.6 
Q 843.123333 55.6 839.123333 55.6 
L 665.126458 55.6 
Q 661.126458 55.6 661.126458 59.6 
L 661.126458 175.025 
Q 661.126458 179.025 665.126458 179.025 
z
" style="fill: #ffffff; opacity: 0.8; stroke: #cccccc; stroke-linejoin: miter"/>
    </g>
    <g id="line2d_29">
     <path d="M 669.126458 71.796875 
L 689.126458 71.796875 
L 709.126458 71.796875 
" style="fill: none; stroke: #ff0000; stroke-width: 1.5; stroke-linecap: square"/>
    </g>
    <g id="text_26">
     <!-- GAN -->
     <g transform="translate(725.126458 78.796875)scale(0.2 -0.2)">
      <use xlink:href="#DejaVuSerif-47"/>
      <use xlink:href="#DejaVuSerif-41" x="79.882812"/>
      <use xlink:href="#DejaVuSerif-4e" x="152.099609"/>
     </g>
    </g>
    <g id="line2d_30">
     <path d="M 669.126458 101.153125 
L 689.126458 101.153125 
L 709.126458 101.153125 
" style="fill: none; stroke: #0000ff; stroke-width: 1.5; stroke-linecap: square"/>
    </g>
    <g id="text_27">
     <!-- WGAN-SN -->
     <g transform="translate(725.126458 108.153125)scale(0.2 -0.2)">
      <use xlink:href="#DejaVuSerif-57"/>
      <use xlink:href="#DejaVuSerif-47" x="102.783203"/>
      <use xlink:href="#DejaVuSerif-41" x="182.666016"/>
      <use xlink:href="#DejaVuSerif-4e" x="254.882812"/>
      <use xlink:href="#DejaVuSerif-2d" x="342.382812"/>
      <use xlink:href="#DejaVuSerif-53" x="376.171875"/>
      <use xlink:href="#DejaVuSerif-4e" x="444.677734"/>
     </g>
    </g>
    <g id="line2d_31">
     <path d="M 669.126458 130.509375 
L 689.126458 130.509375 
L 709.126458 130.509375 
" style="fill: none; stroke: #008000; stroke-width: 1.5; stroke-linecap: square"/>
    </g>
    <g id="text_28">
     <!-- WGAN-WC -->
     <g transform="translate(725.126458 137.509375)scale(0.2 -0.2)">
      <use xlink:href="#DejaVuSerif-57"/>
      <use xlink:href="#DejaVuSerif-47" x="102.783203"/>
      <use xlink:href="#DejaVuSerif-41" x="182.666016"/>
      <use xlink:href="#DejaVuSerif-4e" x="254.882812"/>
      <use xlink:href="#DejaVuSerif-2d" x="342.382812"/>
      <use xlink:href="#DejaVuSerif-57" x="370.671875"/>
      <use xlink:href="#DejaVuSerif-43" x="473.455078"/>
     </g>
    </g>
    <g id="line2d_32">
     <path d="M 669.126458 159.865625 
L 689.126458 159.865625 
L 709.126458 159.865625 
" style="fill: none; stroke: #ff8c00; stroke-width: 1.5; stroke-linecap: square"/>
    </g>
    <g id="text_29">
     <!-- WGAN-GP -->
     <g transform="translate(725.126458 166.865625)scale(0.2 -0.2)">
      <use xlink:href="#DejaVuSerif-57"/>
      <use xlink:href="#DejaVuSerif-47" x="102.783203"/>
      <use xlink:href="#DejaVuSerif-41" x="182.666016"/>
      <use xlink:href="#DejaVuSerif-4e" x="254.882812"/>
      <use xlink:href="#DejaVuSerif-2d" x="342.382812"/>
      <use xlink:href="#DejaVuSerif-47" x="376.171875"/>
      <use xlink:href="#DejaVuSerif-50" x="456.054688"/>
     </g>
    </g>
   </g>
  </g>
  <g id="axes_3">
   <g id="patch_14">
    <path d="M 920.063333 324.52 
L 1274.4 324.52 
L 1274.4 45.6 
L 920.063333 45.6 
z
" style="fill: #ffffff"/>
   </g>
   <g id="PolyCollection_9">
    <defs>
     <path id="m9af740af53" d="M 936.169545 -153.341353 
L 936.169545 -102.583358 
L 942.74351 -90.958345 
L 949.317474 -88.747949 
L 955.891438 -86.511748 
L 962.465402 -85.439208 
L 969.039366 -86.235072 
L 975.61333 -85.2065 
L 982.187294 -86.527121 
L 988.761259 -84.315406 
L 995.335223 -84.343367 
L 1001.909187 -84.368232 
L 1008.483151 -85.423098 
L 1015.057115 -86.331258 
L 1021.631079 -85.704921 
L 1028.205043 -85.745177 
L 1034.779007 -85.698174 
L 1041.352972 -86.575045 
L 1047.926936 -86.098493 
L 1054.5009 -88.108451 
L 1061.074864 -89.1168 
L 1067.648828 -88.335819 
L 1074.222792 -90.275825 
L 1080.796756 -88.901993 
L 1087.37072 -89.803694 
L 1093.944685 -89.249675 
L 1100.518649 -89.863927 
L 1107.092613 -89.992194 
L 1113.666577 -90.247237 
L 1120.240541 -91.473158 
L 1126.814505 -92.573424 
L 1133.388469 -94.438748 
L 1139.962434 -91.793267 
L 1146.536398 -92.879198 
L 1153.110362 -94.944336 
L 1159.684326 -94.962119 
L 1166.25829 -95.532122 
L 1172.832254 -94.530147 
L 1179.406218 -94.788431 
L 1185.980182 -97.841446 
L 1192.554147 -96.970695 
L 1199.128111 -95.910582 
L 1205.702075 -96.041729 
L 1212.276039 -97.332099 
L 1218.850003 -98.25981 
L 1225.423967 -97.430379 
L 1231.997931 -99.596244 
L 1238.571895 -97.500556 
L 1245.14586 -97.319942 
L 1251.719824 -97.835312 
L 1258.293788 -101.079426 
L 1258.293788 -107.527501 
L 1258.293788 -107.527501 
L 1251.719824 -104.995312 
L 1245.14586 -103.089678 
L 1238.571895 -104.82472 
L 1231.997931 -111.692149 
L 1225.423967 -106.228905 
L 1218.850003 -107.41658 
L 1212.276039 -104.793044 
L 1205.702075 -104.746501 
L 1199.128111 -106.566193 
L 1192.554147 -108.412002 
L 1185.980182 -108.899653 
L 1179.406218 -108.694091 
L 1172.832254 -108.371943 
L 1166.25829 -107.277679 
L 1159.684326 -107.232402 
L 1153.110362 -109.950815 
L 1146.536398 -105.314379 
L 1139.962434 -104.37706 
L 1133.388469 -109.666312 
L 1126.814505 -108.934128 
L 1120.240541 -110.293582 
L 1113.666577 -107.570262 
L 1107.092613 -105.999674 
L 1100.518649 -106.873887 
L 1093.944685 -108.216711 
L 1087.37072 -108.725714 
L 1080.796756 -108.090042 
L 1074.222792 -112.525049 
L 1067.648828 -109.19496 
L 1061.074864 -111.495941 
L 1054.5009 -109.853185 
L 1047.926936 -107.643165 
L 1041.352972 -110.369677 
L 1034.779007 -109.830302 
L 1028.205043 -109.288047 
L 1021.631079 -110.851558 
L 1015.057115 -112.320083 
L 1008.483151 -111.851727 
L 1001.909187 -111.701351 
L 995.335223 -112.421409 
L 988.761259 -113.133896 
L 982.187294 -116.893492 
L 975.61333 -115.831365 
L 969.039366 -118.978741 
L 962.465402 -118.312899 
L 955.891438 -120.779175 
L 949.317474 -128.617191 
L 942.74351 -130.276695 
L 936.169545 -153.341353 
z
" style="stroke: #ff0000; stroke-opacity: 0.4"/>
    </defs>
    <g clip-path="url(#p8c9f317a41)">
     <use xlink:href="#m9af740af53" x="0" y="396" style="fill: #ff0000; fill-opacity: 0.4; stroke: #ff0000; stroke-opacity: 0.4"/>
    </g>
   </g>
   <g id="PolyCollection_10">
    <defs>
     <path id="mb57f2c180d" d="M 936.169545 -334.386915 
L 936.169545 -193.343137 
L 942.74351 -139.258778 
L 949.317474 -116.047726 
L 955.891438 -108.136309 
L 962.465402 -109.205631 
L 969.039366 -115.041266 
L 975.61333 -103.107164 
L 982.187294 -93.630027 
L 988.761259 -106.514797 
L 995.335223 -100.838056 
L 1001.909187 -103.833053 
L 1008.483151 -108.500481 
L 1015.057115 -103.948117 
L 1021.631079 -108.745115 
L 1028.205043 -106.424344 
L 1034.779007 -106.638911 
L 1041.352972 -101.182285 
L 1047.926936 -102.728314 
L 1054.5009 -105.458062 
L 1061.074864 -111.883064 
L 1067.648828 -111.275462 
L 1074.222792 -106.896267 
L 1080.796756 -109.891404 
L 1087.37072 -116.477396 
L 1093.944685 -114.016268 
L 1100.518649 -119.442001 
L 1107.092613 -116.805208 
L 1113.666577 -117.744399 
L 1120.240541 -121.326914 
L 1126.814505 -118.876232 
L 1133.388469 -117.961039 
L 1139.962434 -124.290735 
L 1146.536398 -116.923411 
L 1153.110362 -120.176314 
L 1159.684326 -122.691216 
L 1166.25829 -128.278618 
L 1172.832254 -130.933058 
L 1179.406218 -126.918858 
L 1185.980182 -132.644226 
L 1192.554147 -127.240246 
L 1199.128111 -120.800786 
L 1205.702075 -127.896891 
L 1212.276039 -126.462614 
L 1218.850003 -121.379088 
L 1225.423967 -125.617678 
L 1231.997931 -129.733624 
L 1238.571895 -124.174121 
L 1245.14586 -121.076495 
L 1251.719824 -125.846181 
L 1258.293788 -128.585454 
L 1258.293788 -186.472329 
L 1258.293788 -186.472329 
L 1251.719824 -188.267504 
L 1245.14586 -188.978857 
L 1238.571895 -192.819386 
L 1231.997931 -212.705587 
L 1225.423967 -190.84445 
L 1218.850003 -198.871545 
L 1212.276039 -185.457043 
L 1205.702075 -212.003446 
L 1199.128111 -183.849115 
L 1192.554147 -202.827121 
L 1185.980182 -213.862947 
L 1179.406218 -191.592785 
L 1172.832254 -195.536345 
L 1166.25829 -189.426145 
L 1159.684326 -206.521112 
L 1153.110362 -193.08391 
L 1146.536398 -194.825702 
L 1139.962434 -190.466208 
L 1133.388469 -212.248255 
L 1126.814505 -188.09507 
L 1120.240541 -189.925839 
L 1113.666577 -216.475384 
L 1107.092613 -180.046816 
L 1100.518649 -186.60936 
L 1093.944685 -186.540333 
L 1087.37072 -216.329503 
L 1080.796756 -216.158095 
L 1074.222792 -187.688724 
L 1067.648828 -204.430176 
L 1061.074864 -202.841841 
L 1054.5009 -191.554036 
L 1047.926936 -225.75241 
L 1041.352972 -211.600859 
L 1034.779007 -190.901005 
L 1028.205043 -175.791972 
L 1021.631079 -195.41097 
L 1015.057115 -198.397294 
L 1008.483151 -193.977908 
L 1001.909187 -196.395984 
L 995.335223 -186.900172 
L 988.761259 -176.264525 
L 982.187294 -174.750005 
L 975.61333 -215.606955 
L 969.039366 -189.180993 
L 962.465402 -208.639223 
L 955.891438 -224.615716 
L 949.317474 -188.042106 
L 942.74351 -265.613525 
L 936.169545 -334.386915 
z
" style="stroke: #0000ff; stroke-opacity: 0.4"/>
    </defs>
    <g clip-path="url(#p8c9f317a41)">
     <use xlink:href="#mb57f2c180d" x="0" y="396" style="fill: #0000ff; fill-opacity: 0.4; stroke: #0000ff; stroke-opacity: 0.4"/>
    </g>
   </g>
   <g id="PolyCollection_11">
    <defs>
     <path id="mf1f0d43069" d="M 936.169545 -148.23731 
L 936.169545 -100.579077 
L 942.74351 -85.032966 
L 949.317474 -84.61305 
L 955.891438 -84.911947 
L 962.465402 -86.351955 
L 969.039366 -84.158182 
L 975.61333 -85.277185 
L 982.187294 -84.88463 
L 988.761259 -84.336606 
L 995.335223 -85.650913 
L 1001.909187 -87.334961 
L 1008.483151 -85.642133 
L 1015.057115 -88.05455 
L 1021.631079 -88.090221 
L 1028.205043 -86.997364 
L 1034.779007 -87.112875 
L 1041.352972 -89.620809 
L 1047.926936 -89.965088 
L 1054.5009 -90.224837 
L 1061.074864 -92.177803 
L 1067.648828 -94.259873 
L 1074.222792 -93.633754 
L 1080.796756 -94.763972 
L 1087.37072 -94.065974 
L 1093.944685 -96.198577 
L 1100.518649 -97.145251 
L 1107.092613 -97.77306 
L 1113.666577 -98.745543 
L 1120.240541 -98.293521 
L 1126.814505 -101.890069 
L 1133.388469 -97.84298 
L 1139.962434 -98.53932 
L 1146.536398 -98.83148 
L 1153.110362 -98.168968 
L 1159.684326 -99.590811 
L 1166.25829 -99.622862 
L 1172.832254 -98.817452 
L 1179.406218 -101.736286 
L 1185.980182 -100.129113 
L 1192.554147 -100.757552 
L 1199.128111 -99.315758 
L 1205.702075 -100.552186 
L 1212.276039 -100.40481 
L 1218.850003 -102.213293 
L 1225.423967 -101.068741 
L 1231.997931 -102.136689 
L 1238.571895 -103.430188 
L 1245.14586 -102.884954 
L 1251.719824 -103.388881 
L 1258.293788 -105.33229 
L 1258.293788 -112.854463 
L 1258.293788 -112.854463 
L 1251.719824 -110.846696 
L 1245.14586 -112.818712 
L 1238.571895 -111.806879 
L 1231.997931 -110.729501 
L 1225.423967 -115.158794 
L 1218.850003 -114.161188 
L 1212.276039 -113.915702 
L 1205.702075 -114.162103 
L 1199.128111 -112.122855 
L 1192.554147 -113.386038 
L 1185.980182 -114.302529 
L 1179.406218 -115.944968 
L 1172.832254 -115.16439 
L 1166.25829 -116.686828 
L 1159.684326 -116.343536 
L 1153.110362 -116.863283 
L 1146.536398 -118.410057 
L 1139.962434 -117.165138 
L 1133.388469 -119.75464 
L 1126.814505 -124.976902 
L 1120.240541 -119.251028 
L 1113.666577 -120.863825 
L 1107.092613 -122.440273 
L 1100.518649 -120.31102 
L 1093.944685 -118.673272 
L 1087.37072 -119.173724 
L 1080.796756 -119.150461 
L 1074.222792 -117.380799 
L 1067.648828 -119.729162 
L 1061.074864 -116.7407 
L 1054.5009 -116.268042 
L 1047.926936 -115.756755 
L 1041.352972 -114.502214 
L 1034.779007 -111.214556 
L 1028.205043 -111.848792 
L 1021.631079 -114.643384 
L 1015.057115 -115.278479 
L 1008.483151 -113.303721 
L 1001.909187 -115.773927 
L 995.335223 -113.874064 
L 988.761259 -112.579807 
L 982.187294 -114.353339 
L 975.61333 -117.223722 
L 969.039366 -114.84999 
L 962.465402 -120.085493 
L 955.891438 -118.684592 
L 949.317474 -120.094441 
L 942.74351 -120.085638 
L 936.169545 -148.23731 
z
" style="stroke: #008000; stroke-opacity: 0.4"/>
    </defs>
    <g clip-path="url(#p8c9f317a41)">
     <use xlink:href="#mf1f0d43069" x="0" y="396" style="fill: #008000; fill-opacity: 0.4; stroke: #008000; stroke-opacity: 0.4"/>
    </g>
   </g>
   <g id="PolyCollection_12">
    <defs>
     <path id="me7bd97e7ee" d="M 936.169545 -337.721818 
L 936.169545 -199.858109 
L 942.74351 -177.565137 
L 949.317474 -156.890129 
L 955.891438 -148.670068 
L 962.465402 -131.814495 
L 969.039366 -114.76662 
L 975.61333 -109.431839 
L 982.187294 -100.967113 
L 988.761259 -98.917569 
L 995.335223 -94.695989 
L 1001.909187 -92.35829 
L 1008.483151 -94.770667 
L 1015.057115 -92.278891 
L 1021.631079 -94.058877 
L 1028.205043 -88.970317 
L 1034.779007 -91.668581 
L 1041.352972 -90.506644 
L 1047.926936 -90.013529 
L 1054.5009 -92.143745 
L 1061.074864 -91.322215 
L 1067.648828 -92.083668 
L 1074.222792 -92.241269 
L 1080.796756 -91.751328 
L 1087.37072 -94.816891 
L 1093.944685 -92.140122 
L 1100.518649 -94.132863 
L 1107.092613 -96.761436 
L 1113.666577 -95.619176 
L 1120.240541 -84.99849 
L 1126.814505 -95.388652 
L 1133.388469 -95.521201 
L 1139.962434 -93.771519 
L 1146.536398 -96.874007 
L 1153.110362 -96.889265 
L 1159.684326 -94.200789 
L 1166.25829 -98.362673 
L 1172.832254 -95.96485 
L 1179.406218 -99.868636 
L 1185.980182 -96.077508 
L 1192.554147 -98.785536 
L 1199.128111 -101.439873 
L 1205.702075 -97.796198 
L 1212.276039 -97.496488 
L 1218.850003 -98.97754 
L 1225.423967 -100.081816 
L 1231.997931 -99.786764 
L 1238.571895 -100.35149 
L 1245.14586 -100.100819 
L 1251.719824 -104.021043 
L 1258.293788 -99.824869 
L 1258.293788 -110.82238 
L 1258.293788 -110.82238 
L 1251.719824 -112.204286 
L 1245.14586 -109.328242 
L 1238.571895 -111.743059 
L 1231.997931 -110.831595 
L 1225.423967 -106.839498 
L 1218.850003 -105.713416 
L 1212.276039 -104.773572 
L 1205.702075 -107.740268 
L 1199.128111 -117.822807 
L 1192.554147 -111.736299 
L 1185.980182 -140.427117 
L 1179.406218 -115.011884 
L 1172.832254 -113.794359 
L 1166.25829 -113.21796 
L 1159.684326 -106.858511 
L 1153.110362 -113.148927 
L 1146.536398 -118.539598 
L 1139.962434 -109.851884 
L 1133.388469 -113.665201 
L 1126.814505 -112.580006 
L 1120.240541 -140.136154 
L 1113.666577 -114.688845 
L 1107.092613 -117.560194 
L 1100.518649 -116.392804 
L 1093.944685 -124.01123 
L 1087.37072 -117.946012 
L 1080.796756 -123.088225 
L 1074.222792 -116.28282 
L 1067.648828 -115.524275 
L 1061.074864 -115.944613 
L 1054.5009 -117.49509 
L 1047.926936 -129.969319 
L 1041.352972 -118.113043 
L 1034.779007 -119.097441 
L 1028.205043 -131.418024 
L 1021.631079 -134.675297 
L 1015.057115 -124.26432 
L 1008.483151 -142.551296 
L 1001.909187 -126.218687 
L 995.335223 -132.846683 
L 988.761259 -143.957004 
L 982.187294 -161.92733 
L 975.61333 -171.415285 
L 969.039366 -192.117349 
L 962.465402 -227.900636 
L 955.891438 -248.748431 
L 949.317474 -274.3148 
L 942.74351 -289.69224 
L 936.169545 -337.721818 
z
" style="stroke: #ff8c00; stroke-opacity: 0.4"/>
    </defs>
    <g clip-path="url(#p8c9f317a41)">
     <use xlink:href="#me7bd97e7ee" x="0" y="396" style="fill: #ff8c00; fill-opacity: 0.4; stroke: #ff8c00; stroke-opacity: 0.4"/>
    </g>
   </g>
   <g id="matplotlib.axis_5">
    <g id="xtick_7">
     <g id="line2d_33">
      <g>
       <use xlink:href="#mb9d8397b4a" x="936.169545" y="324.52" style="stroke: #000000; stroke-width: 0.8"/>
      </g>
     </g>
     <g id="text_30">
      <!-- 0 -->
      <g transform="translate(929.807045 346.716875)scale(0.2 -0.2)">
       <use xlink:href="#DejaVuSerif-30"/>
      </g>
     </g>
    </g>
    <g id="xtick_8">
     <g id="line2d_34">
      <g>
       <use xlink:href="#mb9d8397b4a" x="1067.648828" y="324.52" style="stroke: #000000; stroke-width: 0.8"/>
      </g>
     </g>
     <g id="text_31">
      <!-- 20 -->
      <g transform="translate(1054.923828 346.716875)scale(0.2 -0.2)">
       <use xlink:href="#DejaVuSerif-32"/>
       <use xlink:href="#DejaVuSerif-30" x="63.623047"/>
      </g>
     </g>
    </g>
    <g id="xtick_9">
     <g id="line2d_35">
      <g>
       <use xlink:href="#mb9d8397b4a" x="1199.128111" y="324.52" style="stroke: #000000; stroke-width: 0.8"/>
      </g>
     </g>
     <g id="text_32">
      <!-- 40 -->
      <g transform="translate(1186.403111 346.716875)scale(0.2 -0.2)">
       <use xlink:href="#DejaVuSerif-34"/>
       <use xlink:href="#DejaVuSerif-30" x="63.623047"/>
      </g>
     </g>
    </g>
    <g id="text_33">
     <!-- Epochs -->
     <g transform="translate(1060.337917 370.073125)scale(0.2 -0.2)">
      <use xlink:href="#DejaVuSerif-45"/>
      <use xlink:href="#DejaVuSerif-70" x="72.998047"/>
      <use xlink:href="#DejaVuSerif-6f" x="137.011719"/>
      <use xlink:href="#DejaVuSerif-63" x="197.216797"/>
      <use xlink:href="#DejaVuSerif-68" x="253.222656"/>
      <use xlink:href="#DejaVuSerif-73" x="317.626953"/>
     </g>
    </g>
   </g>
   <g id="matplotlib.axis_6">
    <g id="ytick_11">
     <g id="line2d_36">
      <g>
       <use xlink:href="#m7eb9bed8af" x="920.063333" y="296.808991" style="stroke: #000000; stroke-width: 0.8"/>
      </g>
     </g>
     <g id="text_34">
      <!-- 50 -->
      <g transform="translate(887.613333 304.407428)scale(0.2 -0.2)">
       <use xlink:href="#DejaVuSerif-35"/>
       <use xlink:href="#DejaVuSerif-30" x="63.623047"/>
      </g>
     </g>
    </g>
    <g id="ytick_12">
     <g id="line2d_37">
      <g>
       <use xlink:href="#m7eb9bed8af" x="920.063333" y="233.736057" style="stroke: #000000; stroke-width: 0.8"/>
      </g>
     </g>
     <g id="text_35">
      <!-- 100 -->
      <g transform="translate(874.888333 241.334495)scale(0.2 -0.2)">
       <use xlink:href="#DejaVuSerif-31"/>
       <use xlink:href="#DejaVuSerif-30" x="63.623047"/>
       <use xlink:href="#DejaVuSerif-30" x="127.246094"/>
      </g>
     </g>
    </g>
    <g id="ytick_13">
     <g id="line2d_38">
      <g>
       <use xlink:href="#m7eb9bed8af" x="920.063333" y="170.663124" style="stroke: #000000; stroke-width: 0.8"/>
      </g>
     </g>
     <g id="text_36">
      <!-- 150 -->
      <g transform="translate(874.888333 178.261561)scale(0.2 -0.2)">
       <use xlink:href="#DejaVuSerif-31"/>
       <use xlink:href="#DejaVuSerif-35" x="63.623047"/>
       <use xlink:href="#DejaVuSerif-30" x="127.246094"/>
      </g>
     </g>
    </g>
    <g id="ytick_14">
     <g id="line2d_39">
      <g>
       <use xlink:href="#m7eb9bed8af" x="920.063333" y="107.59019" style="stroke: #000000; stroke-width: 0.8"/>
      </g>
     </g>
     <g id="text_37">
      <!-- 200 -->
      <g transform="translate(874.888333 115.188628)scale(0.2 -0.2)">
       <use xlink:href="#DejaVuSerif-32"/>
       <use xlink:href="#DejaVuSerif-30" x="63.623047"/>
       <use xlink:href="#DejaVuSerif-30" x="127.246094"/>
      </g>
     </g>
    </g>
   </g>
   <g id="line2d_40">
    <path d="M 936.169545 268.037645 
L 942.74351 285.38248 
L 949.317474 287.31743 
L 955.891438 292.354538 
L 962.465402 294.123946 
L 969.039366 293.393094 
L 975.61333 295.481068 
L 982.187294 294.289694 
L 988.761259 297.275349 
L 995.335223 297.617612 
L 1001.909187 297.965209 
L 1008.483151 297.362588 
L 1015.057115 296.67433 
L 1021.631079 297.72176 
L 1028.205043 298.483388 
L 1034.779007 298.235762 
L 1041.352972 297.527639 
L 1047.926936 299.129171 
L 1054.5009 297.019182 
L 1061.074864 295.693629 
L 1067.648828 297.23461 
L 1074.222792 294.599563 
L 1080.796756 297.503983 
L 1087.37072 296.735296 
L 1093.944685 297.266807 
L 1100.518649 297.631093 
L 1107.092613 298.004066 
L 1113.666577 297.09125 
L 1120.240541 295.11663 
L 1126.814505 295.246224 
L 1133.388469 293.94747 
L 1139.962434 297.914837 
L 1146.536398 296.903211 
L 1153.110362 293.552425 
L 1159.684326 294.902739 
L 1166.25829 294.5951 
L 1172.832254 294.548955 
L 1179.406218 294.258739 
L 1185.980182 292.62945 
L 1192.554147 293.308652 
L 1199.128111 294.761613 
L 1205.702075 295.605885 
L 1212.276039 294.937428 
L 1218.850003 293.161805 
L 1225.423967 294.170358 
L 1231.997931 290.355803 
L 1238.571895 294.837362 
L 1245.14586 295.79519 
L 1251.719824 294.584688 
L 1258.293788 291.696536 
" clip-path="url(#p8c9f317a41)" style="fill: none; stroke: #ff0000; stroke-width: 1.5; stroke-linecap: square"/>
   </g>
   <g id="line2d_41">
    <path d="M 936.169545 132.134974 
L 942.74351 193.563849 
L 949.317474 243.955084 
L 955.891438 229.623988 
L 962.465402 237.077573 
L 969.039366 243.888871 
L 975.61333 236.64294 
L 982.187294 261.809984 
L 988.761259 254.610339 
L 995.335223 252.130886 
L 1001.909187 245.885481 
L 1008.483151 244.760805 
L 1015.057115 244.827295 
L 1021.631079 243.921958 
L 1028.205043 254.891842 
L 1034.779007 247.230042 
L 1041.352972 239.608428 
L 1047.926936 231.759638 
L 1054.5009 247.493951 
L 1061.074864 238.637547 
L 1067.648828 238.147181 
L 1074.222792 248.707504 
L 1080.796756 232.975251 
L 1087.37072 229.596551 
L 1093.944685 245.7217 
L 1100.518649 242.97432 
L 1107.092613 247.573988 
L 1113.666577 228.890108 
L 1120.240541 240.373624 
L 1126.814505 242.514349 
L 1133.388469 230.895353 
L 1139.962434 238.621528 
L 1146.536398 240.125443 
L 1153.110362 239.369888 
L 1159.684326 231.393836 
L 1166.25829 237.147618 
L 1172.832254 232.765299 
L 1179.406218 236.744179 
L 1185.980182 222.746414 
L 1192.554147 230.966316 
L 1199.128111 243.67505 
L 1205.702075 226.049831 
L 1212.276039 240.040171 
L 1218.850003 235.874683 
L 1225.423967 237.768936 
L 1231.997931 224.780394 
L 1238.571895 237.503246 
L 1245.14586 240.972324 
L 1251.719824 238.943157 
L 1258.293788 238.471109 
" clip-path="url(#p8c9f317a41)" style="fill: none; stroke: #0000ff; stroke-width: 1.5; stroke-linecap: square"/>
   </g>
   <g id="line2d_42">
    <path d="M 936.169545 271.591806 
L 942.74351 293.440698 
L 949.317474 293.646255 
L 955.891438 294.201731 
L 962.465402 292.781276 
L 969.039366 296.495914 
L 975.61333 294.749546 
L 982.187294 296.381015 
L 988.761259 297.541793 
L 995.335223 296.237511 
L 1001.909187 294.445556 
L 1008.483151 296.527073 
L 1015.057115 294.333485 
L 1021.631079 294.633198 
L 1028.205043 296.576922 
L 1034.779007 296.836284 
L 1041.352972 293.938488 
L 1047.926936 293.139078 
L 1054.5009 292.753561 
L 1061.074864 291.540749 
L 1067.648828 289.005483 
L 1074.222792 290.492723 
L 1080.796756 289.042784 
L 1087.37072 289.380151 
L 1093.944685 288.564076 
L 1100.518649 287.271865 
L 1107.092613 285.893334 
L 1113.666577 286.195316 
L 1120.240541 287.227726 
L 1126.814505 282.566514 
L 1133.388469 287.20119 
L 1139.962434 288.147771 
L 1146.536398 287.379231 
L 1153.110362 288.483874 
L 1159.684326 288.032826 
L 1166.25829 287.845155 
L 1172.832254 289.009079 
L 1179.406218 287.159373 
L 1185.980182 288.784179 
L 1192.554147 288.928205 
L 1199.128111 290.280693 
L 1205.702075 288.642856 
L 1212.276039 288.839744 
L 1218.850003 287.81276 
L 1225.423967 287.886232 
L 1231.997931 289.566905 
L 1238.571895 288.381466 
L 1245.14586 288.148167 
L 1251.719824 288.882212 
L 1258.293788 286.906623 
" clip-path="url(#p8c9f317a41)" style="fill: none; stroke: #008000; stroke-width: 1.5; stroke-linecap: square"/>
   </g>
   <g id="line2d_43">
    <path d="M 936.169545 127.210036 
L 942.74351 162.371311 
L 949.317474 180.397536 
L 955.891438 197.290751 
L 962.465402 216.142435 
L 969.039366 242.558016 
L 975.61333 255.576438 
L 982.187294 264.552779 
L 988.761259 274.562714 
L 995.335223 282.228664 
L 1001.909187 286.711511 
L 1008.483151 277.339019 
L 1015.057115 287.728394 
L 1021.631079 281.632913 
L 1028.205043 285.80583 
L 1034.779007 290.616989 
L 1041.352972 291.690156 
L 1047.926936 286.008576 
L 1054.5009 291.180582 
L 1061.074864 292.366586 
L 1067.648828 292.196028 
L 1074.222792 291.737955 
L 1080.796756 288.580224 
L 1087.37072 289.618549 
L 1093.944685 287.924324 
L 1100.518649 290.737166 
L 1107.092613 288.839185 
L 1113.666577 290.845989 
L 1120.240541 283.432678 
L 1126.814505 292.015671 
L 1133.388469 291.406799 
L 1139.962434 294.188298 
L 1146.536398 288.293197 
L 1153.110362 290.980904 
L 1159.684326 295.47035 
L 1166.25829 290.209683 
L 1172.832254 291.120395 
L 1179.406218 288.55974 
L 1185.980182 277.747688 
L 1192.554147 290.739083 
L 1199.128111 286.36866 
L 1205.702075 293.231767 
L 1212.276039 294.86497 
L 1218.850003 293.654522 
L 1225.423967 292.539343 
L 1231.997931 290.69082 
L 1238.571895 289.952725 
L 1245.14586 291.285469 
L 1251.719824 287.887336 
L 1258.293788 290.676375 
" clip-path="url(#p8c9f317a41)" style="fill: none; stroke: #ff8c00; stroke-width: 1.5; stroke-linecap: square"/>
   </g>
   <g id="patch_15">
    <path d="M 920.063333 324.52 
L 920.063333 45.6 
" style="fill: none; stroke: #000000; stroke-width: 0.8; stroke-linejoin: miter; stroke-linecap: square"/>
   </g>
   <g id="patch_16">
    <path d="M 1274.4 324.52 
L 1274.4 45.6 
" style="fill: none; stroke: #000000; stroke-width: 0.8; stroke-linejoin: miter; stroke-linecap: square"/>
   </g>
   <g id="patch_17">
    <path d="M 920.063333 324.52 
L 1274.4 324.52 
" style="fill: none; stroke: #000000; stroke-width: 0.8; stroke-linejoin: miter; stroke-linecap: square"/>
   </g>
   <g id="patch_18">
    <path d="M 920.063333 45.6 
L 1274.4 45.6 
" style="fill: none; stroke: #000000; stroke-width: 0.8; stroke-linejoin: miter; stroke-linecap: square"/>
   </g>
   <g id="text_38">
    <!-- CelebA - 10 experiments -->
    <g transform="translate(947.473542 39.6)scale(0.24 -0.24)">
     <defs>
      <path id="DejaVuSerif-6c" d="M 1313 331 
L 1856 331 
L 1856 0 
L 184 0 
L 184 331 
L 738 331 
L 738 4531 
L 184 4531 
L 184 4863 
L 1313 4863 
L 1313 331 
z
" transform="scale(0.015625)"/>
      <path id="DejaVuSerif-62" d="M 738 331 
L 738 4531 
L 184 4531 
L 184 4863 
L 1313 4863 
L 1313 2803 
Q 1481 3116 1742 3264 
Q 2003 3413 2388 3413 
Q 3000 3413 3387 2928 
Q 3775 2444 3775 1663 
Q 3775 881 3387 395 
Q 3000 -91 2388 -91 
Q 2003 -91 1742 57 
Q 1481 206 1313 519 
L 1313 0 
L 184 0 
L 184 331 
L 738 331 
z
M 1313 1497 
Q 1313 897 1542 583 
Q 1772 269 2209 269 
Q 2650 269 2876 622 
Q 3103 975 3103 1663 
Q 3103 2353 2876 2703 
Q 2650 3053 2209 3053 
Q 1772 3053 1542 2737 
Q 1313 2422 1313 1825 
L 1313 1497 
z
" transform="scale(0.015625)"/>
     </defs>
     <use xlink:href="#DejaVuSerif-43"/>
     <use xlink:href="#DejaVuSerif-65" x="76.513672"/>
     <use xlink:href="#DejaVuSerif-6c" x="135.693359"/>
     <use xlink:href="#DejaVuSerif-65" x="167.675781"/>
     <use xlink:href="#DejaVuSerif-62" x="226.855469"/>
     <use xlink:href="#DejaVuSerif-41" x="290.869141"/>
     <use xlink:href="#DejaVuSerif-20" x="363.085938"/>
     <use xlink:href="#DejaVuSerif-2d" x="394.873047"/>
     <use xlink:href="#DejaVuSerif-20" x="428.662109"/>
     <use xlink:href="#DejaVuSerif-31" x="460.449219"/>
     <use xlink:href="#DejaVuSerif-30" x="524.072266"/>
     <use xlink:href="#DejaVuSerif-20" x="587.695312"/>
     <use xlink:href="#DejaVuSerif-65" x="619.482422"/>
     <use xlink:href="#DejaVuSerif-78" x="678.662109"/>
     <use xlink:href="#DejaVuSerif-70" x="735.058594"/>
     <use xlink:href="#DejaVuSerif-65" x="799.072266"/>
     <use xlink:href="#DejaVuSerif-72" x="858.251953"/>
     <use xlink:href="#DejaVuSerif-69" x="906.054688"/>
     <use xlink:href="#DejaVuSerif-6d" x="938.037109"/>
     <use xlink:href="#DejaVuSerif-65" x="1032.861328"/>
     <use xlink:href="#DejaVuSerif-6e" x="1092.041016"/>
     <use xlink:href="#DejaVuSerif-74" x="1156.445312"/>
     <use xlink:href="#DejaVuSerif-73" x="1196.630859"/>
    </g>
   </g>
   <g id="legend_3">
    <g id="patch_19">
     <path d="M 1086.403125 179.025 
L 1260.4 179.025 
Q 1264.4 179.025 1264.4 175.025 
L 1264.4 59.6 
Q 1264.4 55.6 1260.4 55.6 
L 1086.403125 55.6 
Q 1082.403125 55.6 1082.403125 59.6 
L 1082.403125 175.025 
Q 1082.403125 179.025 1086.403125 179.025 
z
" style="fill: #ffffff; opacity: 0.8; stroke: #cccccc; stroke-linejoin: miter"/>
    </g>
    <g id="line2d_44">
     <path d="M 1090.403125 71.796875 
L 1110.403125 71.796875 
L 1130.403125 71.796875 
" style="fill: none; stroke: #ff0000; stroke-width: 1.5; stroke-linecap: square"/>
    </g>
    <g id="text_39">
     <!-- GAN -->
     <g transform="translate(1146.403125 78.796875)scale(0.2 -0.2)">
      <use xlink:href="#DejaVuSerif-47"/>
      <use xlink:href="#DejaVuSerif-41" x="79.882812"/>
      <use xlink:href="#DejaVuSerif-4e" x="152.099609"/>
     </g>
    </g>
    <g id="line2d_45">
     <path d="M 1090.403125 101.153125 
L 1110.403125 101.153125 
L 1130.403125 101.153125 
" style="fill: none; stroke: #0000ff; stroke-width: 1.5; stroke-linecap: square"/>
    </g>
    <g id="text_40">
     <!-- WGAN-SN -->
     <g transform="translate(1146.403125 108.153125)scale(0.2 -0.2)">
      <use xlink:href="#DejaVuSerif-57"/>
      <use xlink:href="#DejaVuSerif-47" x="102.783203"/>
      <use xlink:href="#DejaVuSerif-41" x="182.666016"/>
      <use xlink:href="#DejaVuSerif-4e" x="254.882812"/>
      <use xlink:href="#DejaVuSerif-2d" x="342.382812"/>
      <use xlink:href="#DejaVuSerif-53" x="376.171875"/>
      <use xlink:href="#DejaVuSerif-4e" x="444.677734"/>
     </g>
    </g>
    <g id="line2d_46">
     <path d="M 1090.403125 130.509375 
L 1110.403125 130.509375 
L 1130.403125 130.509375 
" style="fill: none; stroke: #008000; stroke-width: 1.5; stroke-linecap: square"/>
    </g>
    <g id="text_41">
     <!-- WGAN-WC -->
     <g transform="translate(1146.403125 137.509375)scale(0.2 -0.2)">
      <use xlink:href="#DejaVuSerif-57"/>
      <use xlink:href="#DejaVuSerif-47" x="102.783203"/>
      <use xlink:href="#DejaVuSerif-41" x="182.666016"/>
      <use xlink:href="#DejaVuSerif-4e" x="254.882812"/>
      <use xlink:href="#DejaVuSerif-2d" x="342.382812"/>
      <use xlink:href="#DejaVuSerif-57" x="370.671875"/>
      <use xlink:href="#DejaVuSerif-43" x="473.455078"/>
     </g>
    </g>
    <g id="line2d_47">
     <path d="M 1090.403125 159.865625 
L 1110.403125 159.865625 
L 1130.403125 159.865625 
" style="fill: none; stroke: #ff8c00; stroke-width: 1.5; stroke-linecap: square"/>
    </g>
    <g id="text_42">
     <!-- WGAN-GP -->
     <g transform="translate(1146.403125 166.865625)scale(0.2 -0.2)">
      <use xlink:href="#DejaVuSerif-57"/>
      <use xlink:href="#DejaVuSerif-47" x="102.783203"/>
      <use xlink:href="#DejaVuSerif-41" x="182.666016"/>
      <use xlink:href="#DejaVuSerif-4e" x="254.882812"/>
      <use xlink:href="#DejaVuSerif-2d" x="342.382812"/>
      <use xlink:href="#DejaVuSerif-47" x="376.171875"/>
      <use xlink:href="#DejaVuSerif-50" x="456.054688"/>
     </g>
    </g>
   </g>
  </g>
 </g>
 <defs>
  <clipPath id="p434bbf6418">
   <rect x="77.51" y="45.6" width="354.336667" height="278.92"/>
  </clipPath>
  <clipPath id="p77e51aebab">
   <rect x="498.786667" y="45.6" width="354.336667" height="278.92"/>
  </clipPath>
  <clipPath id="p8c9f317a41">
   <rect x="920.063333" y="45.6" width="354.336667" height="278.92"/>
  </clipPath>
 </defs>
</svg>
