<?xml version="1.0" encoding="utf-8" standalone="no"?>
<!DOCTYPE svg PUBLIC "-//W3C//DTD SVG 1.1//EN"
  "http://www.w3.org/Graphics/SVG/1.1/DTD/svg11.dtd">
<svg xmlns:xlink="http://www.w3.org/1999/xlink" width="1296pt" height="396pt" viewBox="0 0 1296 396" xmlns="http://www.w3.org/2000/svg" version="1.1">
 <metadata>
  <rdf:RDF xmlns:dc="http://purl.org/dc/elements/1.1/" xmlns:cc="http://creativecommons.org/ns#" xmlns:rdf="http://www.w3.org/1999/02/22-rdf-syntax-ns#">
   <cc:Work>
    <dc:type rdf:resource="http://purl.org/dc/dcmitype/StillImage"/>
    <dc:date>2022-12-16T16:08:50.735153</dc:date>
    <dc:format>image/svg+xml</dc:format>
    <dc:creator>
     <cc:Agent>
      <dc:title>Matplotlib v3.6.0, https://matplotlib.org/</dc:title>
     </cc:Agent>
    </dc:creator>
   </cc:Work>
  </rdf:RDF>
 </metadata>
 <defs>
  <style type="text/css">*{stroke-linejoin: round; stroke-linecap: butt}</style>
 </defs>
 <g id="figure_1">
  <g id="patch_1">
   <path d="M 0 396 
L 1296 396 
L 1296 0 
L 0 0 
z
" style="fill: #ffffff"/>
  </g>
  <g id="axes_1">
   <g id="patch_2">
    <path d="M 77.225 325.4 
L 431.633333 325.4 
L 431.633333 45.6 
L 77.225 45.6 
z
" style="fill: #ffffff"/>
   </g>
   <g id="PolyCollection_1">
    <defs>
     <path id="m64b227e5a9" d="M 93.33447 -462.280369 
L 93.33447 -229.139099 
L 99.909763 -141.774911 
L 106.485057 -127.324581 
L 113.060351 -123.45852 
L 119.635645 -120.691793 
L 126.210938 -117.940578 
L 132.786232 -118.311358 
L 139.361526 -118.484127 
L 145.93682 -115.799767 
L 152.512113 -117.084551 
L 159.087407 -117.176919 
L 165.662701 -117.155854 
L 172.237995 -117.41955 
L 178.813288 -118.645334 
L 185.388582 -117.580391 
L 191.963876 -117.420069 
L 198.53917 -117.129059 
L 205.114464 -117.451232 
L 211.689757 -114.924714 
L 218.265051 -115.193367 
L 224.840345 -114.193512 
L 231.415639 -116.090783 
L 237.990932 -113.840938 
L 244.566226 -112.91635 
L 251.14152 -113.339414 
L 257.716814 -113.200778 
L 264.292107 -112.133576 
L 270.867401 -110.720961 
L 277.442695 -110.85262 
L 284.017989 -108.772852 
L 290.593282 -108.885892 
L 297.168576 -109.689465 
L 303.74387 -108.374229 
L 310.319164 -108.081497 
L 316.894457 -108.289863 
L 323.469751 -106.291502 
L 330.045045 -106.111945 
L 336.620339 -103.951399 
L 343.195632 -104.870843 
L 349.770926 -104.381863 
L 356.34622 -104.162374 
L 362.921514 -103.348371 
L 369.496807 -102.950147 
L 376.072101 -101.731873 
L 382.647395 -103.313287 
L 389.222689 -101.661259 
L 395.797982 -100.049965 
L 402.373276 -101.09292 
L 408.94857 -99.945784 
L 415.523864 -97.840625 
L 415.523864 -143.104031 
L 415.523864 -143.104031 
L 408.94857 -143.505963 
L 402.373276 -143.124386 
L 395.797982 -141.574496 
L 389.222689 -141.461639 
L 382.647395 -141.523379 
L 376.072101 -139.304852 
L 369.496807 -139.362577 
L 362.921514 -138.241169 
L 356.34622 -137.92767 
L 349.770926 -136.917446 
L 343.195632 -135.936433 
L 336.620339 -134.143916 
L 330.045045 -134.536467 
L 323.469751 -133.65112 
L 316.894457 -134.205366 
L 310.319164 -133.020921 
L 303.74387 -131.965906 
L 297.168576 -132.013479 
L 290.593282 -129.985889 
L 284.017989 -128.84602 
L 277.442695 -129.302744 
L 270.867401 -128.420261 
L 264.292107 -127.832038 
L 257.716814 -129.172768 
L 251.14152 -126.910047 
L 244.566226 -125.436829 
L 237.990932 -125.263059 
L 231.415639 -125.851897 
L 224.840345 -123.347102 
L 218.265051 -123.102132 
L 211.689757 -123.938921 
L 205.114464 -124.278178 
L 198.53917 -123.982624 
L 191.963876 -123.745617 
L 185.388582 -122.72979 
L 178.813288 -123.324212 
L 172.237995 -122.187256 
L 165.662701 -122.640321 
L 159.087407 -125.559456 
L 152.512113 -126.679451 
L 145.93682 -128.63519 
L 139.361526 -131.598336 
L 132.786232 -131.625947 
L 126.210938 -132.948681 
L 119.635645 -139.034771 
L 113.060351 -144.944031 
L 106.485057 -159.368236 
L 99.909763 -203.277287 
L 93.33447 -462.280369 
z
" style="stroke: #ff0000; stroke-opacity: 0.4"/>
    </defs>
    <g clip-path="url(#p8dd0e64f39)">
     <use xlink:href="#m64b227e5a9" x="0" y="396" style="fill: #ff0000; fill-opacity: 0.4; stroke: #ff0000; stroke-opacity: 0.4"/>
    </g>
   </g>
   <g id="PolyCollection_2">
    <path d="M 93.33447 -1024.377476 
L 93.33447 -113.314319 
L 99.909763 257.713756 
L 106.485057 258.400592 
L 113.060351 261.616959 
L 119.635645 263.775347 
L 126.210938 261.921822 
L 132.786232 261.718834 
L 139.361526 258.784224 
L 145.93682 259.999585 
L 152.512113 261.099644 
L 159.087407 261.585863 
L 165.662701 261.512125 
L 172.237995 259.66456 
L 178.813288 260.967878 
L 185.388582 259.7751 
L 191.963876 260.210525 
L 198.53917 258.548936 
L 205.114464 257.30399 
L 211.689757 257.033158 
L 218.265051 260.470776 
L 224.840345 254.45097 
L 231.415639 257.0648 
L 237.990932 257.42987 
L 244.566226 260.161754 
L 251.14152 256.723285 
L 257.716814 260.766223 
L 264.292107 257.656273 
L 270.867401 259.488026 
L 277.442695 261.165466 
L 284.017989 259.504828 
L 290.593282 259.717716 
L 297.168576 260.273648 
L 303.74387 260.845625 
L 310.319164 262.116393 
L 316.894457 256.808919 
L 323.469751 262.305762 
L 330.045045 263.177264 
L 336.620339 265.523315 
L 343.195632 263.349529 
L 349.770926 264.782675 
L 356.34622 264.528315 
L 362.921514 266.466431 
L 369.496807 264.207041 
L 376.072101 265.21298 
L 382.647395 266.727062 
L 389.222689 266.196613 
L 395.797982 268.237429 
L 402.373276 267.898176 
L 408.94857 269.323208 
L 415.523864 269.999515 
L 415.523864 233.235081 
L 415.523864 233.235081 
L 408.94857 233.832947 
L 402.373276 233.64323 
L 395.797982 234.358867 
L 389.222689 235.005264 
L 382.647395 236.087302 
L 376.072101 235.34378 
L 369.496807 236.271234 
L 362.921514 239.461567 
L 356.34622 238.80271 
L 349.770926 240.019868 
L 343.195632 239.479427 
L 336.620339 242.912915 
L 330.045045 242.091288 
L 323.469751 242.309984 
L 316.894457 240.207949 
L 310.319164 242.545278 
L 303.74387 243.182404 
L 297.168576 244.511655 
L 290.593282 246.407759 
L 284.017989 245.251869 
L 277.442695 246.719647 
L 270.867401 244.858296 
L 264.292107 245.238097 
L 257.716814 250.388478 
L 251.14152 247.595822 
L 244.566226 251.425244 
L 237.990932 247.369197 
L 231.415639 251.151241 
L 224.840345 249.138663 
L 218.265051 248.462242 
L 211.689757 246.737099 
L 205.114464 245.169841 
L 198.53917 246.564969 
L 191.963876 249.304365 
L 185.388582 247.432764 
L 178.813288 246.642232 
L 172.237995 246.408619 
L 165.662701 247.590694 
L 159.087407 246.664945 
L 152.512113 242.229182 
L 145.93682 240.910764 
L 139.361526 236.442345 
L 132.786232 239.097019 
L 126.210938 238.709289 
L 119.635645 238.522658 
L 113.060351 234.188203 
L 106.485057 229.764432 
L 99.909763 160.305077 
L 93.33447 -1024.377476 
z
" clip-path="url(#p8dd0e64f39)" style="fill: #0000ff; fill-opacity: 0.4; stroke: #0000ff; stroke-opacity: 0.4"/>
   </g>
   <g id="PolyCollection_3">
    <defs>
     <path id="m869e706d12" d="M 93.33447 -391.005433 
L 93.33447 -172.167662 
L 99.909763 -97.969774 
L 106.485057 -121.248277 
L 113.060351 -118.96623 
L 119.635645 -117.813952 
L 126.210938 -118.07559 
L 132.786232 -118.537443 
L 139.361526 -118.62797 
L 145.93682 -118.295696 
L 152.512113 -118.925515 
L 159.087407 -118.617312 
L 165.662701 -119.679375 
L 172.237995 -119.59573 
L 178.813288 -119.909011 
L 185.388582 -120.63084 
L 191.963876 -122.69625 
L 198.53917 -120.197087 
L 205.114464 -120.69854 
L 211.689757 -120.322366 
L 218.265051 -119.211734 
L 224.840345 -119.689248 
L 231.415639 -119.062546 
L 237.990932 -117.404555 
L 244.566226 -116.829863 
L 251.14152 -116.717945 
L 257.716814 -116.362798 
L 264.292107 -116.087914 
L 270.867401 -116.423441 
L 277.442695 -116.279674 
L 284.017989 -114.234606 
L 290.593282 -112.900746 
L 297.168576 -113.836458 
L 303.74387 -111.912735 
L 310.319164 -113.235208 
L 316.894457 -112.659609 
L 323.469751 -111.180006 
L 330.045045 -111.060396 
L 336.620339 -111.77939 
L 343.195632 -110.690925 
L 349.770926 -112.085087 
L 356.34622 -108.225987 
L 362.921514 -108.319679 
L 369.496807 -105.091653 
L 376.072101 -107.472518 
L 382.647395 -107.32137 
L 389.222689 -107.012695 
L 395.797982 -106.038286 
L 402.373276 -105.994821 
L 408.94857 -105.472823 
L 415.523864 -102.875909 
L 415.523864 -146.534038 
L 415.523864 -146.534038 
L 408.94857 -147.354327 
L 402.373276 -146.509496 
L 395.797982 -145.792009 
L 389.222689 -144.974211 
L 382.647395 -144.344605 
L 376.072101 -143.432418 
L 369.496807 -140.531953 
L 362.921514 -141.642128 
L 356.34622 -140.686535 
L 349.770926 -142.454973 
L 343.195632 -140.058685 
L 336.620339 -140.645943 
L 330.045045 -138.16151 
L 323.469751 -136.931115 
L 316.894457 -137.186837 
L 310.319164 -136.210534 
L 303.74387 -134.427366 
L 297.168576 -134.51029 
L 290.593282 -133.150058 
L 284.017989 -133.525931 
L 277.442695 -133.48486 
L 270.867401 -132.080691 
L 264.292107 -130.689016 
L 257.716814 -130.29282 
L 251.14152 -128.696283 
L 244.566226 -128.240355 
L 237.990932 -127.561342 
L 231.415639 -128.657549 
L 224.840345 -126.934552 
L 218.265051 -126.973435 
L 211.689757 -128.455023 
L 205.114464 -126.731903 
L 198.53917 -125.686549 
L 191.963876 -127.911614 
L 185.388582 -126.409933 
L 178.813288 -125.81773 
L 172.237995 -125.502625 
L 165.662701 -126.888481 
L 159.087407 -125.772811 
L 152.512113 -127.48427 
L 145.93682 -129.814119 
L 139.361526 -130.958084 
L 132.786232 -131.489826 
L 126.210938 -133.007386 
L 119.635645 -133.417649 
L 113.060351 -137.088015 
L 106.485057 -144.205864 
L 99.909763 -242.406221 
L 93.33447 -391.005433 
z
" style="stroke: #008000; stroke-opacity: 0.4"/>
    </defs>
    <g clip-path="url(#p8dd0e64f39)">
     <use xlink:href="#m869e706d12" x="0" y="396" style="fill: #008000; fill-opacity: 0.4; stroke: #008000; stroke-opacity: 0.4"/>
    </g>
   </g>
   <g id="PolyCollection_4">
    <path d="M 93.33447 -255.504455 
L 93.33447 68.607173 
L 99.909763 64.646188 
L 106.485057 348.682298 
L 113.060351 334.755126 
L 119.635645 302.501988 
L 126.210938 260.450455 
L 132.786232 263.696202 
L 139.361526 265.083625 
L 145.93682 265.171054 
L 152.512113 267.675655 
L 159.087407 267.181032 
L 165.662701 267.206691 
L 172.237995 268.37847 
L 178.813288 268.2463 
L 185.388582 265.918924 
L 191.963876 271.372127 
L 198.53917 271.510577 
L 205.114464 269.514289 
L 211.689757 271.887742 
L 218.265051 274.572353 
L 224.840345 270.542271 
L 231.415639 270.415347 
L 237.990932 268.715085 
L 244.566226 267.969789 
L 251.14152 272.093082 
L 257.716814 269.362914 
L 264.292107 271.723749 
L 270.867401 271.457049 
L 277.442695 270.927866 
L 284.017989 272.774541 
L 290.593282 271.476184 
L 297.168576 273.066786 
L 303.74387 272.820319 
L 310.319164 273.717762 
L 316.894457 273.483229 
L 323.469751 274.050418 
L 330.045045 275.025601 
L 336.620339 274.932051 
L 343.195632 275.610997 
L 349.770926 276.339102 
L 356.34622 277.991966 
L 362.921514 280.247869 
L 369.496807 275.659203 
L 376.072101 278.586912 
L 382.647395 278.823365 
L 389.222689 278.990622 
L 395.797982 279.77417 
L 402.373276 279.023324 
L 408.94857 280.080992 
L 415.523864 280.666522 
L 415.523864 236.828614 
L 415.523864 236.828614 
L 408.94857 234.184511 
L 402.373276 236.589244 
L 395.797982 241.327298 
L 389.222689 242.405049 
L 382.647395 243.47698 
L 376.072101 243.833455 
L 369.496807 241.166733 
L 362.921514 247.359306 
L 356.34622 244.479188 
L 349.770926 245.086865 
L 343.195632 246.156492 
L 336.620339 246.669022 
L 330.045045 246.16378 
L 323.469751 246.165019 
L 316.894457 249.832414 
L 310.319164 247.661026 
L 303.74387 247.476752 
L 297.168576 251.434084 
L 290.593282 249.928188 
L 284.017989 252.319018 
L 277.442695 247.017946 
L 270.867401 251.333775 
L 264.292107 250.088815 
L 257.716814 250.454937 
L 251.14152 251.421797 
L 244.566226 253.865302 
L 237.990932 253.12228 
L 231.415639 251.485993 
L 224.840345 251.494124 
L 218.265051 249.483492 
L 211.689757 253.276191 
L 205.114464 252.565704 
L 198.53917 250.769067 
L 191.963876 249.378845 
L 185.388582 250.865474 
L 178.813288 248.007508 
L 172.237995 251.386722 
L 165.662701 248.916779 
L 159.087407 248.070516 
L 152.512113 245.903362 
L 145.93682 244.594995 
L 139.361526 238.137814 
L 132.786232 240.559183 
L 126.210938 230.988669 
L 119.635645 130.235053 
L 113.060351 -18.757783 
L 106.485057 -382.4284 
L 99.909763 -698.838396 
L 93.33447 -255.504455 
z
" clip-path="url(#p8dd0e64f39)" style="fill: #ff8c00; fill-opacity: 0.4; stroke: #ff8c00; stroke-opacity: 0.4"/>
   </g>
   <g id="matplotlib.axis_1">
    <g id="xtick_1">
     <g id="line2d_1">
      <defs>
       <path id="m8139c77f65" d="M 0 0 
L 0 3.5 
" style="stroke: #000000; stroke-width: 0.8"/>
      </defs>
      <g>
       <use xlink:href="#m8139c77f65" x="93.33447" y="325.4" style="stroke: #000000; stroke-width: 0.8"/>
      </g>
     </g>
     <g id="text_1">
      <!-- 0 -->
      <g transform="translate(86.97197 347.596875) scale(0.2 -0.2)">
       <defs>
        <path id="DejaVuSerif-30" d="M 2034 219 
Q 2513 219 2750 744 
Q 2988 1269 2988 2328 
Q 2988 3391 2750 3916 
Q 2513 4441 2034 4441 
Q 1556 4441 1318 3916 
Q 1081 3391 1081 2328 
Q 1081 1269 1318 744 
Q 1556 219 2034 219 
z
M 2034 -91 
Q 1275 -91 848 546 
Q 422 1184 422 2328 
Q 422 3475 848 4112 
Q 1275 4750 2034 4750 
Q 2797 4750 3222 4112 
Q 3647 3475 3647 2328 
Q 3647 1184 3222 546 
Q 2797 -91 2034 -91 
z
" transform="scale(0.015625)"/>
       </defs>
       <use xlink:href="#DejaVuSerif-30"/>
      </g>
     </g>
    </g>
    <g id="xtick_2">
     <g id="line2d_2">
      <g>
       <use xlink:href="#m8139c77f65" x="224.840345" y="325.4" style="stroke: #000000; stroke-width: 0.8"/>
      </g>
     </g>
     <g id="text_2">
      <!-- 20 -->
      <g transform="translate(212.115345 347.596875) scale(0.2 -0.2)">
       <defs>
        <path id="DejaVuSerif-32" d="M 819 3553 
L 469 3553 
L 469 4384 
Q 803 4563 1142 4656 
Q 1481 4750 1806 4750 
Q 2534 4750 2956 4397 
Q 3378 4044 3378 3438 
Q 3378 2753 2422 1800 
Q 2347 1728 2309 1691 
L 1131 513 
L 3078 513 
L 3078 1088 
L 3444 1088 
L 3444 0 
L 434 0 
L 434 341 
L 1850 1753 
Q 2319 2222 2519 2614 
Q 2719 3006 2719 3438 
Q 2719 3909 2473 4175 
Q 2228 4441 1797 4441 
Q 1350 4441 1106 4219 
Q 863 3997 819 3553 
z
" transform="scale(0.015625)"/>
       </defs>
       <use xlink:href="#DejaVuSerif-32"/>
       <use xlink:href="#DejaVuSerif-30" x="63.623047"/>
      </g>
     </g>
    </g>
    <g id="xtick_3">
     <g id="line2d_3">
      <g>
       <use xlink:href="#m8139c77f65" x="356.34622" y="325.4" style="stroke: #000000; stroke-width: 0.8"/>
      </g>
     </g>
     <g id="text_3">
      <!-- 40 -->
      <g transform="translate(343.62122 347.596875) scale(0.2 -0.2)">
       <defs>
        <path id="DejaVuSerif-34" d="M 2234 1581 
L 2234 4063 
L 641 1581 
L 2234 1581 
z
M 3609 0 
L 1484 0 
L 1484 331 
L 2234 331 
L 2234 1247 
L 197 1247 
L 197 1588 
L 2241 4750 
L 2859 4750 
L 2859 1581 
L 3750 1581 
L 3750 1247 
L 2859 1247 
L 2859 331 
L 3609 331 
L 3609 0 
z
" transform="scale(0.015625)"/>
       </defs>
       <use xlink:href="#DejaVuSerif-34"/>
       <use xlink:href="#DejaVuSerif-30" x="63.623047"/>
      </g>
     </g>
    </g>
    <g id="text_4">
     <!-- Epochs -->
     <g transform="translate(217.535417 370.953125) scale(0.2 -0.2)">
      <defs>
       <path id="DejaVuSerif-45" d="M 353 0 
L 353 331 
L 947 331 
L 947 4331 
L 353 4331 
L 353 4666 
L 4109 4666 
L 4109 3628 
L 3725 3628 
L 3725 4281 
L 1581 4281 
L 1581 2719 
L 3109 2719 
L 3109 3303 
L 3494 3303 
L 3494 1753 
L 3109 1753 
L 3109 2338 
L 1581 2338 
L 1581 384 
L 3775 384 
L 3775 1038 
L 4159 1038 
L 4159 0 
L 353 0 
z
" transform="scale(0.015625)"/>
       <path id="DejaVuSerif-70" d="M 1313 1825 
L 1313 1497 
Q 1313 897 1542 583 
Q 1772 269 2209 269 
Q 2650 269 2876 622 
Q 3103 975 3103 1663 
Q 3103 2353 2876 2703 
Q 2650 3053 2209 3053 
Q 1772 3053 1542 2737 
Q 1313 2422 1313 1825 
z
M 738 2988 
L 184 2988 
L 184 3322 
L 1313 3322 
L 1313 2803 
Q 1481 3116 1742 3264 
Q 2003 3413 2388 3413 
Q 3000 3413 3387 2928 
Q 3775 2444 3775 1663 
Q 3775 881 3387 395 
Q 3000 -91 2388 -91 
Q 2003 -91 1742 57 
Q 1481 206 1313 519 
L 1313 -997 
L 1856 -997 
L 1856 -1331 
L 184 -1331 
L 184 -997 
L 738 -997 
L 738 2988 
z
" transform="scale(0.015625)"/>
       <path id="DejaVuSerif-6f" d="M 1925 219 
Q 2388 219 2623 584 
Q 2859 950 2859 1663 
Q 2859 2375 2623 2739 
Q 2388 3103 1925 3103 
Q 1463 3103 1227 2739 
Q 991 2375 991 1663 
Q 991 950 1228 584 
Q 1466 219 1925 219 
z
M 1925 -91 
Q 1200 -91 759 389 
Q 319 869 319 1663 
Q 319 2456 758 2934 
Q 1197 3413 1925 3413 
Q 2653 3413 3092 2934 
Q 3531 2456 3531 1663 
Q 3531 869 3092 389 
Q 2653 -91 1925 -91 
z
" transform="scale(0.015625)"/>
       <path id="DejaVuSerif-63" d="M 3291 997 
Q 3169 466 2822 187 
Q 2475 -91 1925 -91 
Q 1200 -91 759 389 
Q 319 869 319 1663 
Q 319 2459 759 2936 
Q 1200 3413 1925 3413 
Q 2241 3413 2553 3339 
Q 2866 3266 3181 3116 
L 3181 2266 
L 2847 2266 
Q 2781 2703 2561 2903 
Q 2341 3103 1931 3103 
Q 1466 3103 1228 2742 
Q 991 2381 991 1663 
Q 991 944 1227 581 
Q 1463 219 1931 219 
Q 2303 219 2525 412 
Q 2747 606 2828 997 
L 3291 997 
z
" transform="scale(0.015625)"/>
       <path id="DejaVuSerif-68" d="M 263 0 
L 263 331 
L 781 331 
L 781 4531 
L 231 4531 
L 231 4863 
L 1356 4863 
L 1356 2731 
Q 1516 3069 1770 3241 
Q 2025 3413 2363 3413 
Q 2913 3413 3172 3097 
Q 3431 2781 3431 2113 
L 3431 331 
L 3944 331 
L 3944 0 
L 2356 0 
L 2356 331 
L 2853 331 
L 2853 1931 
Q 2853 2541 2704 2764 
Q 2556 2988 2175 2988 
Q 1775 2988 1565 2697 
Q 1356 2406 1356 1850 
L 1356 331 
L 1856 331 
L 1856 0 
L 263 0 
z
" transform="scale(0.015625)"/>
       <path id="DejaVuSerif-73" d="M 359 184 
L 359 959 
L 691 959 
Q 703 588 923 403 
Q 1144 219 1575 219 
Q 1963 219 2166 364 
Q 2369 509 2369 788 
Q 2369 1006 2220 1140 
Q 2072 1275 1594 1428 
L 1178 1569 
Q 750 1706 558 1912 
Q 366 2119 366 2438 
Q 366 2894 700 3153 
Q 1034 3413 1625 3413 
Q 1888 3413 2178 3344 
Q 2469 3275 2778 3144 
L 2778 2419 
L 2447 2419 
Q 2434 2741 2221 2922 
Q 2009 3103 1644 3103 
Q 1281 3103 1095 2975 
Q 909 2847 909 2591 
Q 909 2381 1050 2254 
Q 1191 2128 1613 1997 
L 2069 1856 
Q 2541 1709 2748 1489 
Q 2956 1269 2956 922 
Q 2956 450 2595 179 
Q 2234 -91 1600 -91 
Q 1278 -91 972 -22 
Q 666 47 359 184 
z
" transform="scale(0.015625)"/>
      </defs>
      <use xlink:href="#DejaVuSerif-45"/>
      <use xlink:href="#DejaVuSerif-70" x="72.998047"/>
      <use xlink:href="#DejaVuSerif-6f" x="137.011719"/>
      <use xlink:href="#DejaVuSerif-63" x="197.216797"/>
      <use xlink:href="#DejaVuSerif-68" x="253.222656"/>
      <use xlink:href="#DejaVuSerif-73" x="317.626953"/>
     </g>
    </g>
   </g>
   <g id="matplotlib.axis_2">
    <g id="ytick_1">
     <g id="line2d_4">
      <defs>
       <path id="mdac53e164a" d="M 0 0 
L -3.5 0 
" style="stroke: #000000; stroke-width: 0.8"/>
      </defs>
      <g>
       <use xlink:href="#mdac53e164a" x="77.225" y="325.4" style="stroke: #000000; stroke-width: 0.8"/>
      </g>
     </g>
     <g id="text_5">
      <!-- 0 -->
      <g transform="translate(57.5 332.998438) scale(0.2 -0.2)">
       <use xlink:href="#DejaVuSerif-30"/>
      </g>
     </g>
    </g>
    <g id="ytick_2">
     <g id="line2d_5">
      <g>
       <use xlink:href="#mdac53e164a" x="77.225" y="255.45" style="stroke: #000000; stroke-width: 0.8"/>
      </g>
     </g>
     <g id="text_6">
      <!-- 20 -->
      <g transform="translate(44.775 263.048437) scale(0.2 -0.2)">
       <use xlink:href="#DejaVuSerif-32"/>
       <use xlink:href="#DejaVuSerif-30" x="63.623047"/>
      </g>
     </g>
    </g>
    <g id="ytick_3">
     <g id="line2d_6">
      <g>
       <use xlink:href="#mdac53e164a" x="77.225" y="185.5" style="stroke: #000000; stroke-width: 0.8"/>
      </g>
     </g>
     <g id="text_7">
      <!-- 40 -->
      <g transform="translate(44.775 193.098438) scale(0.2 -0.2)">
       <use xlink:href="#DejaVuSerif-34"/>
       <use xlink:href="#DejaVuSerif-30" x="63.623047"/>
      </g>
     </g>
    </g>
    <g id="ytick_4">
     <g id="line2d_7">
      <g>
       <use xlink:href="#mdac53e164a" x="77.225" y="115.55" style="stroke: #000000; stroke-width: 0.8"/>
      </g>
     </g>
     <g id="text_8">
      <!-- 60 -->
      <g transform="translate(44.775 123.148438) scale(0.2 -0.2)">
       <defs>
        <path id="DejaVuSerif-36" d="M 2094 219 
Q 2534 219 2771 542 
Q 3009 866 3009 1472 
Q 3009 2078 2771 2401 
Q 2534 2725 2094 2725 
Q 1647 2725 1412 2412 
Q 1178 2100 1178 1509 
Q 1178 888 1415 553 
Q 1653 219 2094 219 
z
M 1075 2569 
Q 1288 2803 1556 2918 
Q 1825 3034 2163 3034 
Q 2859 3034 3264 2615 
Q 3669 2197 3669 1472 
Q 3669 763 3233 336 
Q 2797 -91 2069 -91 
Q 1278 -91 853 498 
Q 428 1088 428 2181 
Q 428 3406 931 4078 
Q 1434 4750 2350 4750 
Q 2597 4750 2869 4703 
Q 3141 4656 3425 4563 
L 3425 3794 
L 3072 3794 
Q 3034 4109 2831 4275 
Q 2628 4441 2284 4441 
Q 1678 4441 1381 3981 
Q 1084 3522 1075 2569 
z
" transform="scale(0.015625)"/>
       </defs>
       <use xlink:href="#DejaVuSerif-36"/>
       <use xlink:href="#DejaVuSerif-30" x="63.623047"/>
      </g>
     </g>
    </g>
    <g id="ytick_5">
     <g id="line2d_8">
      <g>
       <use xlink:href="#mdac53e164a" x="77.225" y="45.6" style="stroke: #000000; stroke-width: 0.8"/>
      </g>
     </g>
     <g id="text_9">
      <!-- 80 -->
      <g transform="translate(44.775 53.198438) scale(0.2 -0.2)">
       <defs>
        <path id="DejaVuSerif-38" d="M 2981 1275 
Q 2981 1775 2732 2051 
Q 2484 2328 2034 2328 
Q 1584 2328 1336 2051 
Q 1088 1775 1088 1275 
Q 1088 772 1336 495 
Q 1584 219 2034 219 
Q 2484 219 2732 495 
Q 2981 772 2981 1275 
z
M 2853 3541 
Q 2853 3966 2637 4203 
Q 2422 4441 2034 4441 
Q 1650 4441 1433 4203 
Q 1216 3966 1216 3541 
Q 1216 3113 1433 2875 
Q 1650 2638 2034 2638 
Q 2422 2638 2637 2875 
Q 2853 3113 2853 3541 
z
M 2516 2484 
Q 3047 2413 3344 2092 
Q 3641 1772 3641 1275 
Q 3641 619 3225 264 
Q 2809 -91 2034 -91 
Q 1263 -91 845 264 
Q 428 619 428 1275 
Q 428 1772 725 2092 
Q 1022 2413 1556 2484 
Q 1084 2569 832 2842 
Q 581 3116 581 3541 
Q 581 4103 968 4426 
Q 1356 4750 2034 4750 
Q 2713 4750 3100 4426 
Q 3488 4103 3488 3541 
Q 3488 3116 3236 2842 
Q 2984 2569 2516 2484 
z
" transform="scale(0.015625)"/>
       </defs>
       <use xlink:href="#DejaVuSerif-38"/>
       <use xlink:href="#DejaVuSerif-30" x="63.623047"/>
      </g>
     </g>
    </g>
    <g id="text_10">
     <!-- FID-Score -->
     <g transform="translate(36.615625 237.142188) rotate(-90) scale(0.2 -0.2)">
      <defs>
       <path id="DejaVuSerif-46" d="M 353 0 
L 353 331 
L 947 331 
L 947 4331 
L 353 4331 
L 353 4666 
L 4172 4666 
L 4172 3628 
L 3788 3628 
L 3788 4281 
L 1581 4281 
L 1581 2719 
L 3175 2719 
L 3175 3303 
L 3559 3303 
L 3559 1753 
L 3175 1753 
L 3175 2338 
L 1581 2338 
L 1581 331 
L 2328 331 
L 2328 0 
L 353 0 
z
" transform="scale(0.015625)"/>
       <path id="DejaVuSerif-49" d="M 1581 331 
L 2175 331 
L 2175 0 
L 353 0 
L 353 331 
L 947 331 
L 947 4331 
L 353 4331 
L 353 4666 
L 2175 4666 
L 2175 4331 
L 1581 4331 
L 1581 331 
z
" transform="scale(0.015625)"/>
       <path id="DejaVuSerif-44" d="M 1581 331 
L 2163 331 
Q 3072 331 3558 850 
Q 4044 1369 4044 2338 
Q 4044 3306 3559 3818 
Q 3075 4331 2163 4331 
L 1581 4331 
L 1581 331 
z
M 353 0 
L 353 331 
L 947 331 
L 947 4331 
L 353 4331 
L 353 4666 
L 2209 4666 
Q 3416 4666 4089 4050 
Q 4763 3434 4763 2338 
Q 4763 1238 4088 619 
Q 3413 0 2209 0 
L 353 0 
z
" transform="scale(0.015625)"/>
       <path id="DejaVuSerif-2d" d="M 281 1959 
L 1881 1959 
L 1881 1472 
L 281 1472 
L 281 1959 
z
" transform="scale(0.015625)"/>
       <path id="DejaVuSerif-53" d="M 594 225 
L 594 1288 
L 953 1284 
Q 969 753 1261 498 
Q 1553 244 2150 244 
Q 2706 244 2998 464 
Q 3291 684 3291 1106 
Q 3291 1444 3114 1625 
Q 2938 1806 2369 1978 
L 1753 2163 
Q 1084 2366 811 2669 
Q 538 2972 538 3500 
Q 538 4094 959 4422 
Q 1381 4750 2144 4750 
Q 2469 4750 2856 4679 
Q 3244 4609 3681 4475 
L 3681 3481 
L 3328 3481 
Q 3275 3975 2998 4195 
Q 2722 4416 2156 4416 
Q 1663 4416 1405 4214 
Q 1147 4013 1147 3628 
Q 1147 3294 1340 3103 
Q 1534 2913 2163 2725 
L 2741 2553 
Q 3375 2363 3645 2067 
Q 3916 1772 3916 1275 
Q 3916 597 3481 253 
Q 3047 -91 2188 -91 
Q 1803 -91 1404 -12 
Q 1006 66 594 225 
z
" transform="scale(0.015625)"/>
       <path id="DejaVuSerif-72" d="M 3059 3328 
L 3059 2497 
L 2728 2497 
Q 2713 2744 2591 2866 
Q 2469 2988 2234 2988 
Q 1809 2988 1582 2694 
Q 1356 2400 1356 1850 
L 1356 331 
L 2022 331 
L 2022 0 
L 263 0 
L 263 331 
L 781 331 
L 781 2994 
L 231 2994 
L 231 3322 
L 1356 3322 
L 1356 2731 
Q 1525 3078 1790 3245 
Q 2056 3413 2438 3413 
Q 2578 3413 2733 3391 
Q 2888 3369 3059 3328 
z
" transform="scale(0.015625)"/>
       <path id="DejaVuSerif-65" d="M 3469 1600 
L 991 1600 
L 991 1575 
Q 991 903 1244 561 
Q 1497 219 1991 219 
Q 2369 219 2611 417 
Q 2853 616 2950 1006 
L 3413 1006 
Q 3275 459 2904 184 
Q 2534 -91 1931 -91 
Q 1203 -91 761 389 
Q 319 869 319 1663 
Q 319 2450 753 2931 
Q 1188 3413 1894 3413 
Q 2647 3413 3050 2948 
Q 3453 2484 3469 1600 
z
M 2791 1931 
Q 2772 2513 2545 2808 
Q 2319 3103 1894 3103 
Q 1497 3103 1269 2806 
Q 1041 2509 991 1931 
L 2791 1931 
z
" transform="scale(0.015625)"/>
      </defs>
      <use xlink:href="#DejaVuSerif-46"/>
      <use xlink:href="#DejaVuSerif-49" x="69.384766"/>
      <use xlink:href="#DejaVuSerif-44" x="108.886719"/>
      <use xlink:href="#DejaVuSerif-2d" x="190.9375"/>
      <use xlink:href="#DejaVuSerif-53" x="224.726562"/>
      <use xlink:href="#DejaVuSerif-63" x="293.232422"/>
      <use xlink:href="#DejaVuSerif-6f" x="349.238281"/>
      <use xlink:href="#DejaVuSerif-72" x="409.443359"/>
      <use xlink:href="#DejaVuSerif-65" x="457.246094"/>
     </g>
    </g>
   </g>
   <g id="line2d_9">
    <path d="M 93.33447 50.290266 
L 99.909763 223.473901 
L 106.485057 252.653592 
L 113.060351 261.798724 
L 119.635645 266.136718 
L 126.210938 270.555371 
L 132.786232 271.031347 
L 139.361526 270.958768 
L 145.93682 273.782521 
L 152.512113 274.117999 
L 159.087407 274.631812 
L 165.662701 276.101913 
L 172.237995 276.196597 
L 178.813288 275.015227 
L 185.388582 275.844909 
L 191.963876 275.417157 
L 198.53917 275.444158 
L 205.114464 275.135295 
L 211.689757 276.568183 
L 218.265051 276.852251 
L 224.840345 277.229693 
L 231.415639 275.02866 
L 237.990932 276.448002 
L 244.566226 276.823411 
L 251.14152 275.875269 
L 257.716814 274.813227 
L 264.292107 276.017193 
L 270.867401 276.429389 
L 277.442695 275.922318 
L 284.017989 277.190564 
L 290.593282 276.56411 
L 297.168576 275.148528 
L 303.74387 275.829933 
L 310.319164 275.448791 
L 316.894457 274.752386 
L 323.469751 276.028689 
L 330.045045 275.675794 
L 336.620339 276.952343 
L 343.195632 275.596362 
L 349.770926 275.350346 
L 356.34622 274.954978 
L 362.921514 275.20523 
L 369.496807 274.843638 
L 376.072101 275.481638 
L 382.647395 273.581667 
L 389.222689 274.438551 
L 395.797982 275.18777 
L 402.373276 273.891347 
L 408.94857 274.274126 
L 415.523864 275.527672 
" clip-path="url(#p8dd0e64f39)" style="fill: none; stroke: #ff0000; stroke-width: 1.5; stroke-linecap: square"/>
   </g>
   <g id="line2d_10">
    <path d="M 98.134532 -1 
L 99.909763 209.009416 
L 106.485057 244.082512 
L 113.060351 247.902581 
L 119.635645 251.149003 
L 126.210938 250.315556 
L 132.786232 250.407927 
L 139.361526 247.613285 
L 145.93682 250.455175 
L 152.512113 251.664413 
L 159.087407 254.125404 
L 165.662701 254.55141 
L 172.237995 253.036589 
L 178.813288 253.805055 
L 185.388582 253.603932 
L 191.963876 254.757445 
L 198.53917 252.556953 
L 205.114464 251.236915 
L 211.689757 251.885129 
L 218.265051 254.466509 
L 224.840345 251.794817 
L 231.415639 254.10802 
L 237.990932 252.399533 
L 244.566226 255.793499 
L 251.14152 252.159553 
L 257.716814 255.577351 
L 264.292107 251.447185 
L 270.867401 252.173161 
L 277.442695 253.942557 
L 284.017989 252.378348 
L 290.593282 253.062737 
L 297.168576 252.392652 
L 303.74387 252.014015 
L 310.319164 252.330836 
L 316.894457 248.508434 
L 323.469751 252.307873 
L 330.045045 252.634276 
L 336.620339 254.218115 
L 343.195632 251.414478 
L 349.770926 252.401271 
L 356.34622 251.665512 
L 362.921514 252.963999 
L 369.496807 250.239138 
L 376.072101 250.27838 
L 382.647395 251.407182 
L 389.222689 250.600938 
L 395.797982 251.298148 
L 402.373276 250.770703 
L 408.94857 251.578078 
L 415.523864 251.617298 
" clip-path="url(#p8dd0e64f39)" style="fill: none; stroke: #0000ff; stroke-width: 1.5; stroke-linecap: square"/>
   </g>
   <g id="line2d_11">
    <path d="M 93.33447 114.413453 
L 99.909763 225.812002 
L 106.485057 263.272929 
L 113.060351 267.972877 
L 119.635645 270.3842 
L 126.210938 270.458512 
L 132.786232 270.986365 
L 139.361526 271.206973 
L 145.93682 271.945092 
L 152.512113 272.795107 
L 159.087407 273.804938 
L 165.662701 272.716072 
L 172.237995 273.450822 
L 178.813288 273.136629 
L 185.388582 272.479613 
L 191.963876 270.696068 
L 198.53917 273.058182 
L 205.114464 272.284779 
L 211.689757 271.611306 
L 218.265051 272.907415 
L 224.840345 272.6881 
L 231.415639 272.139953 
L 237.990932 273.517051 
L 244.566226 273.464891 
L 251.14152 273.292886 
L 257.716814 272.672191 
L 264.292107 272.611535 
L 270.867401 271.747934 
L 277.442695 271.117733 
L 284.017989 272.119732 
L 290.593282 272.974598 
L 297.168576 271.826626 
L 303.74387 272.82995 
L 310.319164 271.277129 
L 316.894457 271.076777 
L 323.469751 271.944439 
L 330.045045 271.389047 
L 336.620339 269.787333 
L 343.195632 270.625195 
L 349.770926 268.72997 
L 356.34622 271.543739 
L 362.921514 271.019097 
L 369.496807 273.188197 
L 376.072101 270.547532 
L 382.647395 270.167012 
L 389.222689 270.006547 
L 395.797982 270.084852 
L 402.373276 269.747842 
L 408.94857 269.586425 
L 415.523864 271.295027 
" clip-path="url(#p8dd0e64f39)" style="fill: none; stroke: #008000; stroke-width: 1.5; stroke-linecap: square"/>
   </g>
   <g id="line2d_12">
    <path d="M 107.081895 -1 
L 113.060351 157.998671 
L 119.635645 216.368521 
L 126.210938 245.719562 
L 132.786232 252.127692 
L 139.361526 251.61072 
L 145.93682 254.883024 
L 152.512113 256.789509 
L 159.087407 257.625774 
L 165.662701 258.061735 
L 172.237995 259.882596 
L 178.813288 258.126904 
L 185.388582 258.392199 
L 191.963876 260.375486 
L 198.53917 261.139822 
L 205.114464 261.039996 
L 211.689757 262.581967 
L 218.265051 262.027922 
L 224.840345 261.018197 
L 231.415639 260.95067 
L 237.990932 260.918682 
L 244.566226 260.917546 
L 251.14152 261.757439 
L 257.716814 259.908926 
L 264.292107 260.906282 
L 270.867401 261.395412 
L 277.442695 258.972906 
L 284.017989 262.546779 
L 290.593282 260.702186 
L 297.168576 262.250435 
L 303.74387 260.148535 
L 310.319164 260.689394 
L 316.894457 261.657822 
L 323.469751 260.107719 
L 330.045045 260.59469 
L 336.620339 260.800536 
L 343.195632 260.883744 
L 349.770926 260.712983 
L 356.34622 261.235577 
L 362.921514 263.803588 
L 369.496807 258.412968 
L 376.072101 261.210183 
L 382.647395 261.150172 
L 389.222689 260.697836 
L 395.797982 260.550734 
L 402.373276 257.806284 
L 408.94857 257.132752 
L 415.523864 258.747568 
" clip-path="url(#p8dd0e64f39)" style="fill: none; stroke: #ff8c00; stroke-width: 1.5; stroke-linecap: square"/>
   </g>
   <g id="patch_3">
    <path d="M 77.225 325.4 
L 77.225 45.6 
" style="fill: none; stroke: #000000; stroke-width: 0.8; stroke-linejoin: miter; stroke-linecap: square"/>
   </g>
   <g id="patch_4">
    <path d="M 431.633333 325.4 
L 431.633333 45.6 
" style="fill: none; stroke: #000000; stroke-width: 0.8; stroke-linejoin: miter; stroke-linecap: square"/>
   </g>
   <g id="patch_5">
    <path d="M 77.225 325.4 
L 431.633333 325.4 
" style="fill: none; stroke: #000000; stroke-width: 0.8; stroke-linejoin: miter; stroke-linecap: square"/>
   </g>
   <g id="patch_6">
    <path d="M 77.225 45.6 
L 431.633333 45.6 
" style="fill: none; stroke: #000000; stroke-width: 0.8; stroke-linejoin: miter; stroke-linecap: square"/>
   </g>
   <g id="text_11">
    <!-- MNIST - 10 experiments -->
    <g transform="translate(104.492917 39.6) scale(0.24 -0.24)">
     <defs>
      <path id="DejaVuSerif-4d" d="M 353 0 
L 353 331 
L 947 331 
L 947 4331 
L 319 4331 
L 319 4666 
L 1678 4666 
L 3316 1344 
L 4953 4666 
L 6228 4666 
L 6228 4331 
L 5606 4331 
L 5606 331 
L 6203 331 
L 6203 0 
L 4378 0 
L 4378 331 
L 4972 331 
L 4972 3938 
L 3372 684 
L 2931 684 
L 1331 3938 
L 1331 331 
L 1925 331 
L 1925 0 
L 353 0 
z
" transform="scale(0.015625)"/>
      <path id="DejaVuSerif-4e" d="M 313 0 
L 313 331 
L 941 331 
L 941 4331 
L 313 4331 
L 313 4666 
L 1509 4666 
L 4306 984 
L 4306 4331 
L 3681 4331 
L 3681 4666 
L 5319 4666 
L 5319 4331 
L 4691 4331 
L 4691 -91 
L 4313 -91 
L 1325 3841 
L 1325 331 
L 1953 331 
L 1953 0 
L 313 0 
z
" transform="scale(0.015625)"/>
      <path id="DejaVuSerif-54" d="M 1222 0 
L 1222 331 
L 1819 331 
L 1819 4294 
L 447 4294 
L 447 3566 
L 63 3566 
L 63 4666 
L 4206 4666 
L 4206 3566 
L 3822 3566 
L 3822 4294 
L 2450 4294 
L 2450 331 
L 3047 331 
L 3047 0 
L 1222 0 
z
" transform="scale(0.015625)"/>
      <path id="DejaVuSerif-20" transform="scale(0.015625)"/>
      <path id="DejaVuSerif-31" d="M 909 0 
L 909 331 
L 1722 331 
L 1722 4213 
L 781 3603 
L 781 4013 
L 1919 4750 
L 2350 4750 
L 2350 331 
L 3163 331 
L 3163 0 
L 909 0 
z
" transform="scale(0.015625)"/>
      <path id="DejaVuSerif-78" d="M 1863 2028 
L 2559 2988 
L 2113 2988 
L 2113 3322 
L 3391 3322 
L 3391 2988 
L 2950 2988 
L 2059 1759 
L 3097 331 
L 3531 331 
L 3531 0 
L 1997 0 
L 1997 331 
L 2419 331 
L 1697 1325 
L 972 331 
L 1403 331 
L 1403 0 
L 141 0 
L 141 331 
L 581 331 
L 1497 1594 
L 488 2988 
L 78 2988 
L 78 3322 
L 1563 3322 
L 1563 2988 
L 1166 2988 
L 1863 2028 
z
" transform="scale(0.015625)"/>
      <path id="DejaVuSerif-69" d="M 622 4353 
Q 622 4497 726 4603 
Q 831 4709 978 4709 
Q 1122 4709 1226 4603 
Q 1331 4497 1331 4353 
Q 1331 4206 1228 4103 
Q 1125 4000 978 4000 
Q 831 4000 726 4103 
Q 622 4206 622 4353 
z
M 1356 331 
L 1900 331 
L 1900 0 
L 231 0 
L 231 331 
L 781 331 
L 781 2988 
L 231 2988 
L 231 3322 
L 1356 3322 
L 1356 331 
z
" transform="scale(0.015625)"/>
      <path id="DejaVuSerif-6d" d="M 3316 2675 
Q 3481 3041 3739 3227 
Q 3997 3413 4341 3413 
Q 4863 3413 5119 3089 
Q 5375 2766 5375 2113 
L 5375 331 
L 5894 331 
L 5894 0 
L 4300 0 
L 4300 331 
L 4800 331 
L 4800 2047 
Q 4800 2556 4650 2772 
Q 4500 2988 4153 2988 
Q 3769 2988 3567 2697 
Q 3366 2406 3366 1850 
L 3366 331 
L 3866 331 
L 3866 0 
L 2291 0 
L 2291 331 
L 2791 331 
L 2791 2069 
Q 2791 2566 2641 2777 
Q 2491 2988 2144 2988 
Q 1759 2988 1557 2697 
Q 1356 2406 1356 1850 
L 1356 331 
L 1856 331 
L 1856 0 
L 263 0 
L 263 331 
L 781 331 
L 781 2994 
L 231 2994 
L 231 3322 
L 1356 3322 
L 1356 2731 
Q 1516 3063 1762 3238 
Q 2009 3413 2322 3413 
Q 2709 3413 2968 3220 
Q 3228 3028 3316 2675 
z
" transform="scale(0.015625)"/>
      <path id="DejaVuSerif-6e" d="M 263 0 
L 263 331 
L 781 331 
L 781 2988 
L 231 2988 
L 231 3322 
L 1356 3322 
L 1356 2731 
Q 1516 3069 1770 3241 
Q 2025 3413 2363 3413 
Q 2913 3413 3172 3097 
Q 3431 2781 3431 2113 
L 3431 331 
L 3944 331 
L 3944 0 
L 2356 0 
L 2356 331 
L 2853 331 
L 2853 1931 
Q 2853 2541 2703 2767 
Q 2553 2994 2175 2994 
Q 1775 2994 1565 2701 
Q 1356 2409 1356 1850 
L 1356 331 
L 1856 331 
L 1856 0 
L 263 0 
z
" transform="scale(0.015625)"/>
      <path id="DejaVuSerif-74" d="M 691 2988 
L 184 2988 
L 184 3322 
L 691 3322 
L 691 4353 
L 1269 4353 
L 1269 3322 
L 2350 3322 
L 2350 2988 
L 1269 2988 
L 1269 878 
Q 1269 456 1350 337 
Q 1431 219 1650 219 
Q 1875 219 1978 351 
Q 2081 484 2088 781 
L 2522 781 
Q 2497 328 2275 118 
Q 2053 -91 1600 -91 
Q 1103 -91 897 129 
Q 691 350 691 878 
L 691 2988 
z
" transform="scale(0.015625)"/>
     </defs>
     <use xlink:href="#DejaVuSerif-4d"/>
     <use xlink:href="#DejaVuSerif-4e" x="102.392578"/>
     <use xlink:href="#DejaVuSerif-49" x="189.892578"/>
     <use xlink:href="#DejaVuSerif-53" x="229.394531"/>
     <use xlink:href="#DejaVuSerif-54" x="297.900391"/>
     <use xlink:href="#DejaVuSerif-20" x="364.599609"/>
     <use xlink:href="#DejaVuSerif-2d" x="396.386719"/>
     <use xlink:href="#DejaVuSerif-20" x="430.175781"/>
     <use xlink:href="#DejaVuSerif-31" x="461.962891"/>
     <use xlink:href="#DejaVuSerif-30" x="525.585938"/>
     <use xlink:href="#DejaVuSerif-20" x="589.208984"/>
     <use xlink:href="#DejaVuSerif-65" x="620.996094"/>
     <use xlink:href="#DejaVuSerif-78" x="680.175781"/>
     <use xlink:href="#DejaVuSerif-70" x="736.572266"/>
     <use xlink:href="#DejaVuSerif-65" x="800.585938"/>
     <use xlink:href="#DejaVuSerif-72" x="859.765625"/>
     <use xlink:href="#DejaVuSerif-69" x="907.568359"/>
     <use xlink:href="#DejaVuSerif-6d" x="939.550781"/>
     <use xlink:href="#DejaVuSerif-65" x="1034.375"/>
     <use xlink:href="#DejaVuSerif-6e" x="1093.554688"/>
     <use xlink:href="#DejaVuSerif-74" x="1157.958984"/>
     <use xlink:href="#DejaVuSerif-73" x="1198.144531"/>
    </g>
   </g>
   <g id="legend_1">
    <g id="patch_7">
     <path d="M 243.636458 179.025 
L 417.633333 179.025 
Q 421.633333 179.025 421.633333 175.025 
L 421.633333 59.6 
Q 421.633333 55.6 417.633333 55.6 
L 243.636458 55.6 
Q 239.636458 55.6 239.636458 59.6 
L 239.636458 175.025 
Q 239.636458 179.025 243.636458 179.025 
z
" style="fill: #ffffff; opacity: 0.8; stroke: #cccccc; stroke-linejoin: miter"/>
    </g>
    <g id="line2d_13">
     <path d="M 247.636458 71.796875 
L 267.636458 71.796875 
L 287.636458 71.796875 
" style="fill: none; stroke: #ff0000; stroke-width: 1.5; stroke-linecap: square"/>
    </g>
    <g id="text_12">
     <!-- GAN -->
     <g transform="translate(303.636458 78.796875) scale(0.2 -0.2)">
      <defs>
       <path id="DejaVuSerif-47" d="M 4097 3272 
Q 3988 3856 3641 4136 
Q 3294 4416 2675 4416 
Q 1869 4416 1472 3897 
Q 1075 3378 1075 2328 
Q 1075 1300 1484 772 
Q 1894 244 2688 244 
Q 3041 244 3362 331 
Q 3684 419 3975 594 
L 3975 1797 
L 3097 1797 
L 3097 2131 
L 4609 2131 
L 4609 391 
Q 4194 150 3714 29 
Q 3234 -91 2688 -91 
Q 1631 -91 995 570 
Q 359 1231 359 2328 
Q 359 3434 996 4092 
Q 1634 4750 2713 4750 
Q 3113 4750 3539 4658 
Q 3966 4566 4447 4378 
L 4447 3272 
L 4097 3272 
z
" transform="scale(0.015625)"/>
       <path id="DejaVuSerif-41" d="M 1281 1691 
L 2994 1691 
L 2138 3909 
L 1281 1691 
z
M -38 0 
L -38 331 
L 372 331 
L 2034 4666 
L 2559 4666 
L 4225 331 
L 4684 331 
L 4684 0 
L 2988 0 
L 2988 331 
L 3506 331 
L 3116 1356 
L 1153 1356 
L 763 331 
L 1275 331 
L 1275 0 
L -38 0 
z
" transform="scale(0.015625)"/>
      </defs>
      <use xlink:href="#DejaVuSerif-47"/>
      <use xlink:href="#DejaVuSerif-41" x="79.882812"/>
      <use xlink:href="#DejaVuSerif-4e" x="152.099609"/>
     </g>
    </g>
    <g id="line2d_14">
     <path d="M 247.636458 101.153125 
L 267.636458 101.153125 
L 287.636458 101.153125 
" style="fill: none; stroke: #0000ff; stroke-width: 1.5; stroke-linecap: square"/>
    </g>
    <g id="text_13">
     <!-- WGAN-SN -->
     <g transform="translate(303.636458 108.153125) scale(0.2 -0.2)">
      <defs>
       <path id="DejaVuSerif-57" d="M 4878 0 
L 4366 0 
L 3297 3794 
L 2228 0 
L 1716 0 
L 494 4331 
L 31 4331 
L 31 4666 
L 1734 4666 
L 1734 4331 
L 1153 4331 
L 2125 884 
L 3188 4666 
L 3694 4666 
L 4775 844 
L 5753 4331 
L 5216 4331 
L 5216 4666 
L 6559 4666 
L 6559 4331 
L 6100 4331 
L 4878 0 
z
" transform="scale(0.015625)"/>
      </defs>
      <use xlink:href="#DejaVuSerif-57"/>
      <use xlink:href="#DejaVuSerif-47" x="102.783203"/>
      <use xlink:href="#DejaVuSerif-41" x="182.666016"/>
      <use xlink:href="#DejaVuSerif-4e" x="254.882812"/>
      <use xlink:href="#DejaVuSerif-2d" x="342.382812"/>
      <use xlink:href="#DejaVuSerif-53" x="376.171875"/>
      <use xlink:href="#DejaVuSerif-4e" x="444.677734"/>
     </g>
    </g>
    <g id="line2d_15">
     <path d="M 247.636458 130.509375 
L 267.636458 130.509375 
L 287.636458 130.509375 
" style="fill: none; stroke: #008000; stroke-width: 1.5; stroke-linecap: square"/>
    </g>
    <g id="text_14">
     <!-- WGAN-WC -->
     <g transform="translate(303.636458 137.509375) scale(0.2 -0.2)">
      <defs>
       <path id="DejaVuSerif-43" d="M 4513 1234 
Q 4306 581 3820 245 
Q 3334 -91 2591 -91 
Q 2134 -91 1743 65 
Q 1353 222 1050 525 
Q 700 875 529 1320 
Q 359 1766 359 2328 
Q 359 3416 987 4083 
Q 1616 4750 2644 4750 
Q 3025 4750 3456 4650 
Q 3888 4550 4384 4347 
L 4384 3272 
L 4031 3272 
Q 3916 3859 3567 4137 
Q 3219 4416 2591 4416 
Q 1844 4416 1459 3886 
Q 1075 3356 1075 2328 
Q 1075 1303 1459 773 
Q 1844 244 2591 244 
Q 3113 244 3450 492 
Q 3788 741 3938 1234 
L 4513 1234 
z
" transform="scale(0.015625)"/>
      </defs>
      <use xlink:href="#DejaVuSerif-57"/>
      <use xlink:href="#DejaVuSerif-47" x="102.783203"/>
      <use xlink:href="#DejaVuSerif-41" x="182.666016"/>
      <use xlink:href="#DejaVuSerif-4e" x="254.882812"/>
      <use xlink:href="#DejaVuSerif-2d" x="342.382812"/>
      <use xlink:href="#DejaVuSerif-57" x="370.671875"/>
      <use xlink:href="#DejaVuSerif-43" x="473.455078"/>
     </g>
    </g>
    <g id="line2d_16">
     <path d="M 247.636458 159.865625 
L 267.636458 159.865625 
L 287.636458 159.865625 
" style="fill: none; stroke: #ff8c00; stroke-width: 1.5; stroke-linecap: square"/>
    </g>
    <g id="text_15">
     <!-- WGAN-GP -->
     <g transform="translate(303.636458 166.865625) scale(0.2 -0.2)">
      <defs>
       <path id="DejaVuSerif-50" d="M 1581 2375 
L 2406 2375 
Q 2872 2375 3115 2626 
Q 3359 2878 3359 3353 
Q 3359 3831 3115 4081 
Q 2872 4331 2406 4331 
L 1581 4331 
L 1581 2375 
z
M 353 0 
L 353 331 
L 947 331 
L 947 4331 
L 353 4331 
L 353 4666 
L 2559 4666 
Q 3259 4666 3668 4311 
Q 4078 3956 4078 3353 
Q 4078 2753 3668 2397 
Q 3259 2041 2559 2041 
L 1581 2041 
L 1581 331 
L 2303 331 
L 2303 0 
L 353 0 
z
" transform="scale(0.015625)"/>
      </defs>
      <use xlink:href="#DejaVuSerif-57"/>
      <use xlink:href="#DejaVuSerif-47" x="102.783203"/>
      <use xlink:href="#DejaVuSerif-41" x="182.666016"/>
      <use xlink:href="#DejaVuSerif-4e" x="254.882812"/>
      <use xlink:href="#DejaVuSerif-2d" x="342.382812"/>
      <use xlink:href="#DejaVuSerif-47" x="376.171875"/>
      <use xlink:href="#DejaVuSerif-50" x="456.054688"/>
     </g>
    </g>
   </g>
  </g>
  <g id="axes_2">
   <g id="patch_8">
    <path d="M 498.608333 325.4 
L 853.016667 325.4 
L 853.016667 45.6 
L 498.608333 45.6 
z
" style="fill: #ffffff"/>
   </g>
   <g id="PolyCollection_5">
    <defs>
     <path id="m3e98ea56b7" d="M 514.717803 -337.681818 
L 514.717803 -195.414966 
L 521.293097 -129.551706 
L 527.868391 -106.854375 
L 534.443684 -105.686262 
L 541.018978 -99.386013 
L 547.594272 -94.313278 
L 554.169566 -90.641584 
L 560.744859 -89.719483 
L 567.320153 -90.15666 
L 573.895447 -90.469306 
L 580.470741 -86.446065 
L 587.046034 -84.736939 
L 593.621328 -87.024235 
L 600.196622 -86.328914 
L 606.771916 -83.318182 
L 613.347209 -84.183722 
L 619.922503 -85.798104 
L 626.497797 -83.547015 
L 633.073091 -83.664684 
L 639.648384 -85.966478 
L 646.223678 -84.940785 
L 652.798972 -83.987394 
L 659.374266 -83.788731 
L 665.949559 -85.888355 
L 672.524853 -85.067649 
L 679.100147 -86.285955 
L 685.675441 -87.19322 
L 692.250734 -84.631466 
L 698.826028 -85.310027 
L 705.401322 -86.933792 
L 711.976616 -88.017404 
L 718.551909 -86.886311 
L 725.127203 -88.502944 
L 731.702497 -88.264023 
L 738.277791 -89.366589 
L 744.853084 -88.070323 
L 751.428378 -89.232611 
L 758.003672 -90.419794 
L 764.578966 -91.058976 
L 771.154259 -90.495331 
L 777.729553 -89.740068 
L 784.304847 -91.469239 
L 790.880141 -93.397663 
L 797.455434 -92.482082 
L 804.030728 -91.569828 
L 810.606022 -93.951994 
L 817.181316 -92.406471 
L 823.756609 -92.678374 
L 830.331903 -95.61685 
L 836.907197 -94.426806 
L 836.907197 -116.553211 
L 836.907197 -116.553211 
L 830.331903 -118.636039 
L 823.756609 -114.752763 
L 817.181316 -114.314437 
L 810.606022 -120.35579 
L 804.030728 -117.375828 
L 797.455434 -119.560672 
L 790.880141 -119.471681 
L 784.304847 -118.448846 
L 777.729553 -116.847007 
L 771.154259 -118.48568 
L 764.578966 -120.537698 
L 758.003672 -120.425342 
L 751.428378 -119.364168 
L 744.853084 -119.626094 
L 738.277791 -122.045893 
L 731.702497 -120.819588 
L 725.127203 -122.661948 
L 718.551909 -121.814826 
L 711.976616 -123.607554 
L 705.401322 -122.248419 
L 698.826028 -120.605227 
L 692.250734 -121.429555 
L 685.675441 -125.630378 
L 679.100147 -125.769801 
L 672.524853 -124.170616 
L 665.949559 -126.212954 
L 659.374266 -124.379866 
L 652.798972 -125.952547 
L 646.223678 -128.316646 
L 639.648384 -129.992303 
L 633.073091 -127.877789 
L 626.497797 -129.012462 
L 619.922503 -133.503566 
L 613.347209 -131.225714 
L 606.771916 -130.9382 
L 600.196622 -136.183309 
L 593.621328 -139.757327 
L 587.046034 -135.805425 
L 580.470741 -139.320224 
L 573.895447 -148.383325 
L 567.320153 -146.914926 
L 560.744859 -147.782691 
L 554.169566 -149.512324 
L 547.594272 -155.246379 
L 541.018978 -164.568418 
L 534.443684 -174.321948 
L 527.868391 -179.557896 
L 521.293097 -222.113839 
L 514.717803 -337.681818 
z
" style="stroke: #ff0000; stroke-opacity: 0.4"/>
    </defs>
    <g clip-path="url(#p58961eea00)">
     <use xlink:href="#m3e98ea56b7" x="0" y="396" style="fill: #ff0000; fill-opacity: 0.4; stroke: #ff0000; stroke-opacity: 0.4"/>
    </g>
   </g>
   <g id="PolyCollection_6">
    <defs>
     <path id="m7770e57d98" d="M 514.717803 -303.117139 
L 514.717803 -185.3553 
L 521.293097 -160.599548 
L 527.868391 -155.205423 
L 534.443684 -145.596049 
L 541.018978 -137.548226 
L 547.594272 -127.946425 
L 554.169566 -120.597029 
L 560.744859 -115.767103 
L 567.320153 -115.238257 
L 573.895447 -112.737593 
L 580.470741 -112.114254 
L 587.046034 -116.612633 
L 593.621328 -112.609105 
L 600.196622 -114.725932 
L 606.771916 -117.945848 
L 613.347209 -114.987603 
L 619.922503 -116.172564 
L 626.497797 -116.909637 
L 633.073091 -117.708206 
L 639.648384 -120.523348 
L 646.223678 -119.472736 
L 652.798972 -123.433715 
L 659.374266 -126.336252 
L 665.949559 -125.235304 
L 672.524853 -125.54404 
L 679.100147 -130.040072 
L 685.675441 -130.12407 
L 692.250734 -130.275437 
L 698.826028 -135.275307 
L 705.401322 -131.844603 
L 711.976616 -131.347507 
L 718.551909 -135.089398 
L 725.127203 -130.965347 
L 731.702497 -130.70066 
L 738.277791 -128.975189 
L 744.853084 -133.683517 
L 751.428378 -133.941492 
L 758.003672 -135.56402 
L 764.578966 -128.145919 
L 771.154259 -128.935151 
L 777.729553 -135.153771 
L 784.304847 -134.034943 
L 790.880141 -135.457545 
L 797.455434 -138.413849 
L 804.030728 -132.778225 
L 810.606022 -135.028244 
L 817.181316 -137.983318 
L 823.756609 -139.287873 
L 830.331903 -140.83848 
L 836.907197 -139.095021 
L 836.907197 -200.905309 
L 836.907197 -200.905309 
L 830.331903 -202.656702 
L 823.756609 -202.264158 
L 817.181316 -201.706095 
L 810.606022 -214.437117 
L 804.030728 -201.630281 
L 797.455434 -203.548214 
L 790.880141 -200.389108 
L 784.304847 -203.725837 
L 777.729553 -219.470288 
L 771.154259 -207.202615 
L 764.578966 -210.502658 
L 758.003672 -199.734323 
L 751.428378 -208.626951 
L 744.853084 -206.876179 
L 738.277791 -206.630726 
L 731.702497 -208.289893 
L 725.127203 -204.242775 
L 718.551909 -215.930081 
L 711.976616 -206.032982 
L 705.401322 -212.504266 
L 698.826028 -217.021462 
L 692.250734 -209.053465 
L 685.675441 -202.774604 
L 679.100147 -204.028833 
L 672.524853 -216.727738 
L 665.949559 -202.694115 
L 659.374266 -203.160941 
L 652.798972 -200.472518 
L 646.223678 -234.333434 
L 639.648384 -205.759575 
L 633.073091 -188.651906 
L 626.497797 -196.416272 
L 619.922503 -202.202317 
L 613.347209 -190.381921 
L 606.771916 -199.441193 
L 600.196622 -196.704359 
L 593.621328 -190.578677 
L 587.046034 -195.391555 
L 580.470741 -189.314576 
L 573.895447 -192.111843 
L 567.320153 -188.577508 
L 560.744859 -191.832217 
L 554.169566 -197.543473 
L 547.594272 -208.89702 
L 541.018978 -226.115068 
L 534.443684 -236.206512 
L 527.868391 -253.463347 
L 521.293097 -264.759385 
L 514.717803 -303.117139 
z
" style="stroke: #0000ff; stroke-opacity: 0.4"/>
    </defs>
    <g clip-path="url(#p58961eea00)">
     <use xlink:href="#m7770e57d98" x="0" y="396" style="fill: #0000ff; fill-opacity: 0.4; stroke: #0000ff; stroke-opacity: 0.4"/>
    </g>
   </g>
   <g id="PolyCollection_7">
    <defs>
     <path id="mec393d7700" d="M 514.717803 -243.069064 
L 514.717803 -147.540126 
L 521.293097 -105.933495 
L 527.868391 -98.081874 
L 534.443684 -93.722242 
L 541.018978 -89.040362 
L 547.594272 -89.155955 
L 554.169566 -85.562275 
L 560.744859 -85.368921 
L 567.320153 -84.788922 
L 573.895447 -84.800483 
L 580.470741 -85.076548 
L 587.046034 -84.4469 
L 593.621328 -83.610551 
L 600.196622 -84.426086 
L 606.771916 -85.273565 
L 613.347209 -86.263275 
L 619.922503 -85.65446 
L 626.497797 -85.123639 
L 633.073091 -86.469878 
L 639.648384 -85.741127 
L 646.223678 -87.697117 
L 652.798972 -87.840111 
L 659.374266 -88.54505 
L 665.949559 -86.628139 
L 672.524853 -87.97612 
L 679.100147 -88.600474 
L 685.675441 -89.892085 
L 692.250734 -91.423719 
L 698.826028 -89.268477 
L 705.401322 -90.659413 
L 711.976616 -92.382412 
L 718.551909 -89.77429 
L 725.127203 -91.387983 
L 731.702497 -91.527675 
L 738.277791 -92.548275 
L 744.853084 -92.925025 
L 751.428378 -93.1582 
L 758.003672 -94.337188 
L 764.578966 -92.479894 
L 771.154259 -93.140913 
L 777.729553 -95.285475 
L 784.304847 -95.17638 
L 790.880141 -94.124662 
L 797.455434 -95.41688 
L 804.030728 -96.340244 
L 810.606022 -95.807341 
L 817.181316 -96.989892 
L 823.756609 -96.418601 
L 830.331903 -98.386291 
L 836.907197 -98.89968 
L 836.907197 -122.332918 
L 836.907197 -122.332918 
L 830.331903 -121.892998 
L 823.756609 -120.690973 
L 817.181316 -121.776225 
L 810.606022 -122.14968 
L 804.030728 -122.650988 
L 797.455434 -122.174473 
L 790.880141 -121.302384 
L 784.304847 -123.227048 
L 777.729553 -124.162363 
L 771.154259 -123.045725 
L 764.578966 -122.731392 
L 758.003672 -126.662818 
L 751.428378 -124.856281 
L 744.853084 -125.076601 
L 738.277791 -125.86451 
L 731.702497 -125.147913 
L 725.127203 -127.53094 
L 718.551909 -124.49502 
L 711.976616 -129.32786 
L 705.401322 -127.920021 
L 698.826028 -126.766061 
L 692.250734 -131.070164 
L 685.675441 -129.958887 
L 679.100147 -129.927497 
L 672.524853 -128.495118 
L 665.949559 -127.429341 
L 659.374266 -131.569621 
L 652.798972 -131.202306 
L 646.223678 -131.500849 
L 639.648384 -129.365271 
L 633.073091 -131.755608 
L 626.497797 -130.479062 
L 619.922503 -132.400708 
L 613.347209 -134.30162 
L 606.771916 -133.586769 
L 600.196622 -133.37969 
L 593.621328 -133.275049 
L 587.046034 -135.29134 
L 580.470741 -138.148551 
L 573.895447 -137.840298 
L 567.320153 -138.730562 
L 560.744859 -140.331414 
L 554.169566 -141.480627 
L 547.594272 -147.897437 
L 541.018978 -148.330932 
L 534.443684 -156.357101 
L 527.868391 -164.391831 
L 521.293097 -180.506181 
L 514.717803 -243.069064 
z
" style="stroke: #008000; stroke-opacity: 0.4"/>
    </defs>
    <g clip-path="url(#p58961eea00)">
     <use xlink:href="#mec393d7700" x="0" y="396" style="fill: #008000; fill-opacity: 0.4; stroke: #008000; stroke-opacity: 0.4"/>
    </g>
   </g>
   <g id="PolyCollection_8">
    <defs>
     <path id="m77b5745ab6" d="M 514.717803 -228.713191 
L 514.717803 -140.865258 
L 521.293097 -110.933926 
L 527.868391 -105.309305 
L 534.443684 -98.387312 
L 541.018978 -92.490933 
L 547.594272 -89.283843 
L 554.169566 -85.840332 
L 560.744859 -85.833837 
L 567.320153 -87.419217 
L 573.895447 -87.02745 
L 580.470741 -88.224788 
L 587.046034 -84.435361 
L 593.621328 -83.933004 
L 600.196622 -83.373809 
L 606.771916 -85.851966 
L 613.347209 -86.372173 
L 619.922503 -86.659238 
L 626.497797 -85.797375 
L 633.073091 -84.956982 
L 639.648384 -86.735317 
L 646.223678 -86.631063 
L 652.798972 -88.071225 
L 659.374266 -87.050296 
L 665.949559 -87.102381 
L 672.524853 -86.748568 
L 679.100147 -85.749185 
L 685.675441 -87.696177 
L 692.250734 -89.661577 
L 698.826028 -88.891097 
L 705.401322 -88.182986 
L 711.976616 -89.640898 
L 718.551909 -89.204696 
L 725.127203 -89.630695 
L 731.702497 -92.098887 
L 738.277791 -92.148911 
L 744.853084 -92.621271 
L 751.428378 -91.522371 
L 758.003672 -92.399913 
L 764.578966 -92.892094 
L 771.154259 -93.554502 
L 777.729553 -93.541133 
L 784.304847 -93.298502 
L 790.880141 -92.867523 
L 797.455434 -92.239423 
L 804.030728 -93.968109 
L 810.606022 -96.313638 
L 817.181316 -94.121146 
L 823.756609 -94.534285 
L 830.331903 -94.922464 
L 836.907197 -96.364169 
L 836.907197 -118.763702 
L 836.907197 -118.763702 
L 830.331903 -117.182715 
L 823.756609 -116.724579 
L 817.181316 -117.032541 
L 810.606022 -122.82867 
L 804.030728 -120.816893 
L 797.455434 -117.665106 
L 790.880141 -119.046512 
L 784.304847 -120.288286 
L 777.729553 -121.359239 
L 771.154259 -122.901171 
L 764.578966 -122.660561 
L 758.003672 -122.501016 
L 751.428378 -123.577096 
L 744.853084 -125.711177 
L 738.277791 -126.519651 
L 731.702497 -126.660229 
L 725.127203 -123.943951 
L 718.551909 -124.155292 
L 711.976616 -125.147823 
L 705.401322 -124.685141 
L 698.826028 -127.777683 
L 692.250734 -127.973449 
L 685.675441 -126.371754 
L 679.100147 -124.324148 
L 672.524853 -126.489724 
L 665.949559 -129.333252 
L 659.374266 -128.783498 
L 652.798972 -132.225169 
L 646.223678 -130.325094 
L 639.648384 -132.153431 
L 633.073091 -129.679646 
L 626.497797 -131.740048 
L 619.922503 -134.438533 
L 613.347209 -135.087787 
L 606.771916 -135.669117 
L 600.196622 -132.115934 
L 593.621328 -133.975759 
L 587.046034 -135.608262 
L 580.470741 -142.091833 
L 573.895447 -142.080929 
L 567.320153 -142.951125 
L 560.744859 -141.884386 
L 554.169566 -141.956696 
L 547.594272 -148.447967 
L 541.018978 -153.783795 
L 534.443684 -163.513186 
L 527.868391 -174.068001 
L 521.293097 -183.929338 
L 514.717803 -228.713191 
z
" style="stroke: #ff8c00; stroke-opacity: 0.4"/>
    </defs>
    <g clip-path="url(#p58961eea00)">
     <use xlink:href="#m77b5745ab6" x="0" y="396" style="fill: #ff8c00; fill-opacity: 0.4; stroke: #ff8c00; stroke-opacity: 0.4"/>
    </g>
   </g>
   <g id="matplotlib.axis_3">
    <g id="xtick_4">
     <g id="line2d_17">
      <g>
       <use xlink:href="#m8139c77f65" x="514.717803" y="325.4" style="stroke: #000000; stroke-width: 0.8"/>
      </g>
     </g>
     <g id="text_16">
      <!-- 0 -->
      <g transform="translate(508.355303 347.596875) scale(0.2 -0.2)">
       <use xlink:href="#DejaVuSerif-30"/>
      </g>
     </g>
    </g>
    <g id="xtick_5">
     <g id="line2d_18">
      <g>
       <use xlink:href="#m8139c77f65" x="646.223678" y="325.4" style="stroke: #000000; stroke-width: 0.8"/>
      </g>
     </g>
     <g id="text_17">
      <!-- 20 -->
      <g transform="translate(633.498678 347.596875) scale(0.2 -0.2)">
       <use xlink:href="#DejaVuSerif-32"/>
       <use xlink:href="#DejaVuSerif-30" x="63.623047"/>
      </g>
     </g>
    </g>
    <g id="xtick_6">
     <g id="line2d_19">
      <g>
       <use xlink:href="#m8139c77f65" x="777.729553" y="325.4" style="stroke: #000000; stroke-width: 0.8"/>
      </g>
     </g>
     <g id="text_18">
      <!-- 40 -->
      <g transform="translate(765.004553 347.596875) scale(0.2 -0.2)">
       <use xlink:href="#DejaVuSerif-34"/>
       <use xlink:href="#DejaVuSerif-30" x="63.623047"/>
      </g>
     </g>
    </g>
    <g id="text_19">
     <!-- Epochs -->
     <g transform="translate(638.91875 370.953125) scale(0.2 -0.2)">
      <use xlink:href="#DejaVuSerif-45"/>
      <use xlink:href="#DejaVuSerif-70" x="72.998047"/>
      <use xlink:href="#DejaVuSerif-6f" x="137.011719"/>
      <use xlink:href="#DejaVuSerif-63" x="197.216797"/>
      <use xlink:href="#DejaVuSerif-68" x="253.222656"/>
      <use xlink:href="#DejaVuSerif-73" x="317.626953"/>
     </g>
    </g>
   </g>
   <g id="matplotlib.axis_4">
    <g id="ytick_6">
     <g id="line2d_20">
      <g>
       <use xlink:href="#mdac53e164a" x="498.608333" y="290.044441" style="stroke: #000000; stroke-width: 0.8"/>
      </g>
     </g>
     <g id="text_20">
      <!-- 75 -->
      <g transform="translate(466.158333 297.642878) scale(0.2 -0.2)">
       <defs>
        <path id="DejaVuSerif-37" d="M 3609 4347 
L 1784 0 
L 1319 0 
L 3059 4153 
L 903 4153 
L 903 3578 
L 538 3578 
L 538 4666 
L 3609 4666 
L 3609 4347 
z
" transform="scale(0.015625)"/>
        <path id="DejaVuSerif-35" d="M 3219 4666 
L 3219 4153 
L 1081 4153 
L 1081 2816 
Q 1244 2928 1461 2984 
Q 1678 3041 1947 3041 
Q 2703 3041 3140 2622 
Q 3578 2203 3578 1478 
Q 3578 738 3136 323 
Q 2694 -91 1894 -91 
Q 1572 -91 1234 -12 
Q 897 66 544 225 
L 544 1131 
L 897 1131 
Q 925 688 1179 453 
Q 1434 219 1894 219 
Q 2388 219 2653 544 
Q 2919 869 2919 1478 
Q 2919 2084 2655 2407 
Q 2391 2731 1894 2731 
Q 1613 2731 1398 2631 
Q 1184 2531 1019 2322 
L 750 2322 
L 750 4666 
L 3219 4666 
z
" transform="scale(0.015625)"/>
       </defs>
       <use xlink:href="#DejaVuSerif-37"/>
       <use xlink:href="#DejaVuSerif-35" x="63.623047"/>
      </g>
     </g>
    </g>
    <g id="ytick_7">
     <g id="line2d_21">
      <g>
       <use xlink:href="#mdac53e164a" x="498.608333" y="238.413951" style="stroke: #000000; stroke-width: 0.8"/>
      </g>
     </g>
     <g id="text_21">
      <!-- 100 -->
      <g transform="translate(453.433333 246.012389) scale(0.2 -0.2)">
       <use xlink:href="#DejaVuSerif-31"/>
       <use xlink:href="#DejaVuSerif-30" x="63.623047"/>
       <use xlink:href="#DejaVuSerif-30" x="127.246094"/>
      </g>
     </g>
    </g>
    <g id="ytick_8">
     <g id="line2d_22">
      <g>
       <use xlink:href="#mdac53e164a" x="498.608333" y="186.783461" style="stroke: #000000; stroke-width: 0.8"/>
      </g>
     </g>
     <g id="text_22">
      <!-- 125 -->
      <g transform="translate(453.433333 194.381899) scale(0.2 -0.2)">
       <use xlink:href="#DejaVuSerif-31"/>
       <use xlink:href="#DejaVuSerif-32" x="63.623047"/>
       <use xlink:href="#DejaVuSerif-35" x="127.246094"/>
      </g>
     </g>
    </g>
    <g id="ytick_9">
     <g id="line2d_23">
      <g>
       <use xlink:href="#mdac53e164a" x="498.608333" y="135.152971" style="stroke: #000000; stroke-width: 0.8"/>
      </g>
     </g>
     <g id="text_23">
      <!-- 150 -->
      <g transform="translate(453.433333 142.751409) scale(0.2 -0.2)">
       <use xlink:href="#DejaVuSerif-31"/>
       <use xlink:href="#DejaVuSerif-35" x="63.623047"/>
       <use xlink:href="#DejaVuSerif-30" x="127.246094"/>
      </g>
     </g>
    </g>
    <g id="ytick_10">
     <g id="line2d_24">
      <g>
       <use xlink:href="#mdac53e164a" x="498.608333" y="83.522482" style="stroke: #000000; stroke-width: 0.8"/>
      </g>
     </g>
     <g id="text_24">
      <!-- 175 -->
      <g transform="translate(453.433333 91.120919) scale(0.2 -0.2)">
       <use xlink:href="#DejaVuSerif-31"/>
       <use xlink:href="#DejaVuSerif-37" x="63.623047"/>
       <use xlink:href="#DejaVuSerif-35" x="127.246094"/>
      </g>
     </g>
    </g>
   </g>
   <g id="line2d_25">
    <path d="M 514.717803 129.451608 
L 521.293097 220.167228 
L 527.868391 252.793864 
L 534.443684 255.995895 
L 541.018978 264.022784 
L 547.594272 271.220171 
L 554.169566 275.923046 
L 560.744859 277.248913 
L 567.320153 277.464207 
L 573.895447 276.573685 
L 580.470741 283.116856 
L 587.046034 285.728818 
L 593.621328 282.609219 
L 600.196622 284.743888 
L 606.771916 288.871809 
L 613.347209 288.295282 
L 619.922503 286.349165 
L 626.497797 289.720261 
L 633.073091 290.228764 
L 639.648384 288.02061 
L 646.223678 289.371284 
L 652.798972 291.03003 
L 659.374266 291.915702 
L 665.949559 289.949346 
L 672.524853 291.380867 
L 679.100147 289.972122 
L 685.675441 289.588201 
L 692.250734 292.96949 
L 698.826028 293.042373 
L 705.401322 291.408894 
L 711.976616 290.187521 
L 718.551909 291.649432 
L 725.127203 290.417554 
L 731.702497 291.458195 
L 738.277791 290.293759 
L 744.853084 292.151791 
L 751.428378 291.70161 
L 758.003672 290.577432 
L 764.578966 290.201663 
L 771.154259 291.509495 
L 777.729553 292.706463 
L 784.304847 291.040958 
L 790.880141 289.565328 
L 797.455434 289.978623 
L 804.030728 291.527172 
L 810.606022 288.846108 
L 817.181316 292.639546 
L 823.756609 292.284432 
L 830.331903 288.873556 
L 836.907197 290.509992 
" clip-path="url(#p58961eea00)" style="fill: none; stroke: #ff0000; stroke-width: 1.5; stroke-linecap: square"/>
   </g>
   <g id="line2d_26">
    <path d="M 514.717803 151.763781 
L 521.293097 183.320533 
L 527.868391 191.665615 
L 534.443684 205.098719 
L 541.018978 214.168353 
L 547.594272 227.578278 
L 554.169566 236.929749 
L 560.744859 242.20034 
L 567.320153 244.092117 
L 573.895447 243.575282 
L 580.470741 245.285585 
L 587.046034 239.997906 
L 593.621328 244.406109 
L 600.196622 240.284854 
L 606.771916 237.30648 
L 613.347209 243.315238 
L 619.922503 236.81256 
L 626.497797 239.337046 
L 633.073091 242.819944 
L 639.648384 232.858538 
L 646.223678 219.096915 
L 652.798972 234.046884 
L 659.374266 231.251403 
L 665.949559 232.035291 
L 672.524853 224.864111 
L 679.100147 228.965547 
L 685.675441 229.550663 
L 692.250734 226.335549 
L 698.826028 219.851615 
L 705.401322 223.825566 
L 711.976616 227.309755 
L 718.551909 220.490261 
L 725.127203 228.395939 
L 731.702497 226.504724 
L 738.277791 228.197042 
L 744.853084 225.720152 
L 751.428378 224.715778 
L 758.003672 228.350829 
L 764.578966 226.675711 
L 771.154259 227.931117 
L 777.729553 218.68797 
L 784.304847 227.11961 
L 790.880141 228.076674 
L 797.455434 225.018969 
L 804.030728 228.795747 
L 810.606022 221.267319 
L 817.181316 226.155293 
L 823.756609 225.223985 
L 830.331903 224.252409 
L 836.907197 225.999835 
" clip-path="url(#p58961eea00)" style="fill: none; stroke: #0000ff; stroke-width: 1.5; stroke-linecap: square"/>
   </g>
   <g id="line2d_27">
    <path d="M 514.717803 200.695405 
L 521.293097 252.780162 
L 527.868391 264.763148 
L 534.443684 270.960329 
L 541.018978 277.314353 
L 547.594272 277.473304 
L 554.169566 282.478549 
L 560.744859 283.149833 
L 567.320153 284.240258 
L 573.895447 284.67961 
L 580.470741 284.387451 
L 587.046034 286.13088 
L 593.621328 287.5572 
L 600.196622 287.097112 
L 606.771916 286.569833 
L 613.347209 285.717552 
L 619.922503 286.972416 
L 626.497797 288.198649 
L 633.073091 286.887257 
L 639.648384 288.446801 
L 646.223678 286.401017 
L 652.798972 286.478792 
L 659.374266 285.942664 
L 665.949559 288.97126 
L 672.524853 287.764381 
L 679.100147 286.736014 
L 685.675441 286.074514 
L 692.250734 284.753058 
L 698.826028 287.982731 
L 705.401322 286.710283 
L 711.976616 285.144864 
L 718.551909 288.865345 
L 725.127203 286.540539 
L 731.702497 287.662206 
L 738.277791 286.793607 
L 744.853084 286.999187 
L 751.428378 286.99276 
L 758.003672 285.499997 
L 764.578966 288.394357 
L 771.154259 287.906681 
L 777.729553 286.276081 
L 784.304847 286.798286 
L 790.880141 288.286477 
L 797.455434 287.204323 
L 804.030728 286.504384 
L 810.606022 287.02149 
L 817.181316 286.616941 
L 823.756609 287.445213 
L 830.331903 285.860356 
L 836.907197 285.383701 
" clip-path="url(#p58961eea00)" style="fill: none; stroke: #008000; stroke-width: 1.5; stroke-linecap: square"/>
   </g>
   <g id="line2d_28">
    <path d="M 514.717803 211.210775 
L 521.293097 248.568368 
L 527.868391 256.311347 
L 534.443684 265.049751 
L 541.018978 272.862636 
L 547.594272 277.134095 
L 554.169566 282.101486 
L 560.744859 282.140889 
L 567.320153 280.814829 
L 573.895447 281.44581 
L 580.470741 280.84169 
L 587.046034 285.978189 
L 593.621328 287.045618 
L 600.196622 288.255129 
L 606.771916 285.239458 
L 613.347209 285.27002 
L 619.922503 285.451115 
L 626.497797 287.231289 
L 633.073091 288.681686 
L 639.648384 286.555626 
L 646.223678 287.521921 
L 652.798972 285.851803 
L 659.374266 288.083103 
L 665.949559 287.782184 
L 672.524853 289.380854 
L 679.100147 290.963333 
L 685.675441 288.966035 
L 692.250734 287.182487 
L 698.826028 287.66561 
L 705.401322 289.565937 
L 711.976616 288.60564 
L 718.551909 289.320006 
L 725.127203 289.212677 
L 731.702497 286.620442 
L 738.277791 286.665719 
L 744.853084 286.833776 
L 751.428378 288.450266 
L 758.003672 288.549536 
L 764.578966 288.223673 
L 771.154259 287.772164 
L 777.729553 288.549814 
L 784.304847 289.206606 
L 790.880141 290.042983 
L 797.455434 291.047735 
L 804.030728 288.607499 
L 810.606022 286.428846 
L 817.181316 290.423156 
L 823.756609 290.370568 
L 830.331903 289.947411 
L 836.907197 288.436065 
" clip-path="url(#p58961eea00)" style="fill: none; stroke: #ff8c00; stroke-width: 1.5; stroke-linecap: square"/>
   </g>
   <g id="patch_9">
    <path d="M 498.608333 325.4 
L 498.608333 45.6 
" style="fill: none; stroke: #000000; stroke-width: 0.8; stroke-linejoin: miter; stroke-linecap: square"/>
   </g>
   <g id="patch_10">
    <path d="M 853.016667 325.4 
L 853.016667 45.6 
" style="fill: none; stroke: #000000; stroke-width: 0.8; stroke-linejoin: miter; stroke-linecap: square"/>
   </g>
   <g id="patch_11">
    <path d="M 498.608333 325.4 
L 853.016667 325.4 
" style="fill: none; stroke: #000000; stroke-width: 0.8; stroke-linejoin: miter; stroke-linecap: square"/>
   </g>
   <g id="patch_12">
    <path d="M 498.608333 45.6 
L 853.016667 45.6 
" style="fill: none; stroke: #000000; stroke-width: 0.8; stroke-linejoin: miter; stroke-linecap: square"/>
   </g>
   <g id="text_25">
    <!-- CIFAR10 - 10 experiments -->
    <g transform="translate(515.456875 39.6) scale(0.24 -0.24)">
     <defs>
      <path id="DejaVuSerif-52" d="M 3066 2316 
Q 3284 2256 3442 2114 
Q 3600 1972 3725 1716 
L 4403 331 
L 4972 331 
L 4972 0 
L 3872 0 
L 3144 1484 
Q 2934 1916 2759 2042 
Q 2584 2169 2278 2169 
L 1581 2169 
L 1581 331 
L 2241 331 
L 2241 0 
L 353 0 
L 353 331 
L 947 331 
L 947 4331 
L 353 4331 
L 353 4666 
L 2719 4666 
Q 3400 4666 3770 4341 
Q 4141 4016 4141 3419 
Q 4141 2938 3870 2661 
Q 3600 2384 3066 2316 
z
M 1581 2503 
L 2503 2503 
Q 2975 2503 3200 2726 
Q 3425 2950 3425 3419 
Q 3425 3888 3200 4109 
Q 2975 4331 2503 4331 
L 1581 4331 
L 1581 2503 
z
" transform="scale(0.015625)"/>
     </defs>
     <use xlink:href="#DejaVuSerif-43"/>
     <use xlink:href="#DejaVuSerif-49" x="76.513672"/>
     <use xlink:href="#DejaVuSerif-46" x="116.015625"/>
     <use xlink:href="#DejaVuSerif-41" x="176.650391"/>
     <use xlink:href="#DejaVuSerif-52" x="248.867188"/>
     <use xlink:href="#DejaVuSerif-31" x="324.160156"/>
     <use xlink:href="#DejaVuSerif-30" x="387.783203"/>
     <use xlink:href="#DejaVuSerif-20" x="451.40625"/>
     <use xlink:href="#DejaVuSerif-2d" x="483.193359"/>
     <use xlink:href="#DejaVuSerif-20" x="516.982422"/>
     <use xlink:href="#DejaVuSerif-31" x="548.769531"/>
     <use xlink:href="#DejaVuSerif-30" x="612.392578"/>
     <use xlink:href="#DejaVuSerif-20" x="676.015625"/>
     <use xlink:href="#DejaVuSerif-65" x="707.802734"/>
     <use xlink:href="#DejaVuSerif-78" x="766.982422"/>
     <use xlink:href="#DejaVuSerif-70" x="823.378906"/>
     <use xlink:href="#DejaVuSerif-65" x="887.392578"/>
     <use xlink:href="#DejaVuSerif-72" x="946.572266"/>
     <use xlink:href="#DejaVuSerif-69" x="994.375"/>
     <use xlink:href="#DejaVuSerif-6d" x="1026.357422"/>
     <use xlink:href="#DejaVuSerif-65" x="1121.181641"/>
     <use xlink:href="#DejaVuSerif-6e" x="1180.361328"/>
     <use xlink:href="#DejaVuSerif-74" x="1244.765625"/>
     <use xlink:href="#DejaVuSerif-73" x="1284.951172"/>
    </g>
   </g>
   <g id="legend_2">
    <g id="patch_13">
     <path d="M 665.019792 179.025 
L 839.016667 179.025 
Q 843.016667 179.025 843.016667 175.025 
L 843.016667 59.6 
Q 843.016667 55.6 839.016667 55.6 
L 665.019792 55.6 
Q 661.019792 55.6 661.019792 59.6 
L 661.019792 175.025 
Q 661.019792 179.025 665.019792 179.025 
z
" style="fill: #ffffff; opacity: 0.8; stroke: #cccccc; stroke-linejoin: miter"/>
    </g>
    <g id="line2d_29">
     <path d="M 669.019792 71.796875 
L 689.019792 71.796875 
L 709.019792 71.796875 
" style="fill: none; stroke: #ff0000; stroke-width: 1.5; stroke-linecap: square"/>
    </g>
    <g id="text_26">
     <!-- GAN -->
     <g transform="translate(725.019792 78.796875) scale(0.2 -0.2)">
      <use xlink:href="#DejaVuSerif-47"/>
      <use xlink:href="#DejaVuSerif-41" x="79.882812"/>
      <use xlink:href="#DejaVuSerif-4e" x="152.099609"/>
     </g>
    </g>
    <g id="line2d_30">
     <path d="M 669.019792 101.153125 
L 689.019792 101.153125 
L 709.019792 101.153125 
" style="fill: none; stroke: #0000ff; stroke-width: 1.5; stroke-linecap: square"/>
    </g>
    <g id="text_27">
     <!-- WGAN-SN -->
     <g transform="translate(725.019792 108.153125) scale(0.2 -0.2)">
      <use xlink:href="#DejaVuSerif-57"/>
      <use xlink:href="#DejaVuSerif-47" x="102.783203"/>
      <use xlink:href="#DejaVuSerif-41" x="182.666016"/>
      <use xlink:href="#DejaVuSerif-4e" x="254.882812"/>
      <use xlink:href="#DejaVuSerif-2d" x="342.382812"/>
      <use xlink:href="#DejaVuSerif-53" x="376.171875"/>
      <use xlink:href="#DejaVuSerif-4e" x="444.677734"/>
     </g>
    </g>
    <g id="line2d_31">
     <path d="M 669.019792 130.509375 
L 689.019792 130.509375 
L 709.019792 130.509375 
" style="fill: none; stroke: #008000; stroke-width: 1.5; stroke-linecap: square"/>
    </g>
    <g id="text_28">
     <!-- WGAN-WC -->
     <g transform="translate(725.019792 137.509375) scale(0.2 -0.2)">
      <use xlink:href="#DejaVuSerif-57"/>
      <use xlink:href="#DejaVuSerif-47" x="102.783203"/>
      <use xlink:href="#DejaVuSerif-41" x="182.666016"/>
      <use xlink:href="#DejaVuSerif-4e" x="254.882812"/>
      <use xlink:href="#DejaVuSerif-2d" x="342.382812"/>
      <use xlink:href="#DejaVuSerif-57" x="370.671875"/>
      <use xlink:href="#DejaVuSerif-43" x="473.455078"/>
     </g>
    </g>
    <g id="line2d_32">
     <path d="M 669.019792 159.865625 
L 689.019792 159.865625 
L 709.019792 159.865625 
" style="fill: none; stroke: #ff8c00; stroke-width: 1.5; stroke-linecap: square"/>
    </g>
    <g id="text_29">
     <!-- WGAN-GP -->
     <g transform="translate(725.019792 166.865625) scale(0.2 -0.2)">
      <use xlink:href="#DejaVuSerif-57"/>
      <use xlink:href="#DejaVuSerif-47" x="102.783203"/>
      <use xlink:href="#DejaVuSerif-41" x="182.666016"/>
      <use xlink:href="#DejaVuSerif-4e" x="254.882812"/>
      <use xlink:href="#DejaVuSerif-2d" x="342.382812"/>
      <use xlink:href="#DejaVuSerif-47" x="376.171875"/>
      <use xlink:href="#DejaVuSerif-50" x="456.054688"/>
     </g>
    </g>
   </g>
  </g>
  <g id="axes_3">
   <g id="patch_14">
    <path d="M 919.991667 325.4 
L 1274.4 325.4 
L 1274.4 45.6 
L 919.991667 45.6 
z
" style="fill: #ffffff"/>
   </g>
   <g id="PolyCollection_9">
    <defs>
     <path id="m152f782d58" d="M 936.101136 -134.92451 
L 936.101136 -101.250605 
L 942.67643 -91.670224 
L 949.251724 -88.9626 
L 955.827018 -85.795446 
L 962.402311 -85.924038 
L 968.977605 -85.354854 
L 975.552899 -84.893379 
L 982.128193 -84.356005 
L 988.703486 -83.800053 
L 995.27878 -83.809117 
L 1001.854074 -83.318182 
L 1008.429368 -83.599601 
L 1015.004661 -85.023979 
L 1021.579955 -83.882181 
L 1028.155249 -84.39337 
L 1034.730543 -83.792575 
L 1041.305836 -84.487938 
L 1047.88113 -83.937943 
L 1054.456424 -85.00345 
L 1061.031718 -86.146712 
L 1067.607011 -86.089659 
L 1074.182305 -86.37787 
L 1080.757599 -86.101771 
L 1087.332893 -86.742166 
L 1093.908186 -87.11746 
L 1100.48348 -86.277623 
L 1107.058774 -86.711147 
L 1113.634068 -86.258656 
L 1120.209361 -86.497944 
L 1126.784655 -87.963483 
L 1133.359949 -89.001696 
L 1139.935243 -87.511551 
L 1146.510536 -88.715464 
L 1153.08583 -88.627473 
L 1159.661124 -89.949154 
L 1166.236418 -88.56301 
L 1172.811712 -89.371468 
L 1179.387005 -89.623073 
L 1185.962299 -90.033977 
L 1192.537593 -90.200308 
L 1199.112887 -89.442155 
L 1205.68818 -90.406833 
L 1212.263474 -90.242541 
L 1218.838768 -91.01095 
L 1225.414062 -90.037835 
L 1231.989355 -91.259561 
L 1238.564649 -90.795907 
L 1245.139943 -90.61406 
L 1251.715237 -90.615295 
L 1258.29053 -93.36672 
L 1258.29053 -98.159763 
L 1258.29053 -98.159763 
L 1251.715237 -96.219611 
L 1245.139943 -95.735418 
L 1238.564649 -97.286298 
L 1231.989355 -100.676628 
L 1225.414062 -98.222465 
L 1218.838768 -98.594111 
L 1212.263474 -95.745286 
L 1205.68818 -97.404108 
L 1199.112887 -96.997478 
L 1192.537593 -99.069711 
L 1185.962299 -98.517842 
L 1179.387005 -100.238405 
L 1172.811712 -98.965206 
L 1166.236418 -97.472842 
L 1159.661124 -99.619619 
L 1153.08583 -98.965057 
L 1146.510536 -99.132857 
L 1139.935243 -96.557591 
L 1133.359949 -99.976786 
L 1126.784655 -99.146547 
L 1120.209361 -99.427755 
L 1113.634068 -98.318928 
L 1107.058774 -99.349692 
L 1100.48348 -97.944535 
L 1093.908186 -100.965297 
L 1087.332893 -99.686401 
L 1080.757599 -99.505411 
L 1074.182305 -101.085146 
L 1067.607011 -100.385377 
L 1061.031718 -100.899298 
L 1054.456424 -99.623065 
L 1047.88113 -98.725627 
L 1041.305836 -100.493485 
L 1034.730543 -99.783593 
L 1028.155249 -100.549257 
L 1021.579955 -100.780541 
L 1015.004661 -102.703656 
L 1008.429368 -101.105729 
L 1001.854074 -101.55545 
L 995.27878 -103.664161 
L 988.703486 -103.200834 
L 982.128193 -104.366712 
L 975.552899 -105.550342 
L 968.977605 -107.263092 
L 962.402311 -109.728078 
L 955.827018 -108.400948 
L 949.251724 -115.899248 
L 942.67643 -118.353627 
L 936.101136 -134.92451 
z
" style="stroke: #ff0000; stroke-opacity: 0.4"/>
    </defs>
    <g clip-path="url(#p71682763a1)">
     <use xlink:href="#m152f782d58" x="0" y="396" style="fill: #ff0000; fill-opacity: 0.4; stroke: #ff0000; stroke-opacity: 0.4"/>
    </g>
   </g>
   <g id="PolyCollection_10">
    <defs>
     <path id="me0fc2adbd5" d="M 936.101136 -304.232301 
L 936.101136 -182.713526 
L 942.67643 -129.281691 
L 949.251724 -104.097722 
L 955.827018 -105.298815 
L 962.402311 -107.548709 
L 968.977605 -100.316264 
L 975.552899 -104.039279 
L 982.128193 -95.124967 
L 988.703486 -104.159122 
L 995.27878 -99.312236 
L 1001.854074 -100.736161 
L 1008.429368 -104.209061 
L 1015.004661 -105.393705 
L 1021.579955 -107.428152 
L 1028.155249 -109.082175 
L 1034.730543 -112.201635 
L 1041.305836 -97.027437 
L 1047.88113 -100.669466 
L 1054.456424 -99.839134 
L 1061.031718 -114.461207 
L 1067.607011 -114.817947 
L 1074.182305 -109.025816 
L 1080.757599 -106.065355 
L 1087.332893 -114.619497 
L 1093.908186 -111.312037 
L 1100.48348 -112.118695 
L 1107.058774 -104.623909 
L 1113.634068 -110.748848 
L 1120.209361 -112.003354 
L 1126.784655 -108.350555 
L 1133.359949 -106.116594 
L 1139.935243 -111.432413 
L 1146.510536 -103.077008 
L 1153.08583 -111.609079 
L 1159.661124 -120.785132 
L 1166.236418 -122.609948 
L 1172.811712 -124.992217 
L 1179.387005 -124.408126 
L 1185.962299 -122.399548 
L 1192.537593 -120.374293 
L 1199.112887 -119.661744 
L 1205.68818 -117.876501 
L 1212.263474 -125.638995 
L 1218.838768 -115.975289 
L 1225.414062 -116.378625 
L 1231.989355 -118.115989 
L 1238.564649 -116.759799 
L 1245.139943 -116.213804 
L 1251.715237 -115.982529 
L 1258.29053 -118.866497 
L 1258.29053 -172.705558 
L 1258.29053 -172.705558 
L 1251.715237 -173.913905 
L 1245.139943 -178.761097 
L 1238.564649 -191.109709 
L 1231.989355 -200.326319 
L 1225.414062 -180.338224 
L 1218.838768 -183.99194 
L 1212.263474 -175.672812 
L 1205.68818 -183.649891 
L 1199.112887 -173.344427 
L 1192.537593 -178.025371 
L 1185.962299 -189.359248 
L 1179.387005 -177.158264 
L 1172.811712 -181.373058 
L 1166.236418 -191.094446 
L 1159.661124 -185.949885 
L 1153.08583 -187.398585 
L 1146.510536 -205.875382 
L 1139.935243 -194.159726 
L 1133.359949 -204.987628 
L 1126.784655 -191.409114 
L 1120.209361 -186.784831 
L 1113.634068 -209.837528 
L 1107.058774 -194.341592 
L 1100.48348 -193.696104 
L 1093.908186 -186.661981 
L 1087.332893 -197.491352 
L 1080.757599 -205.985616 
L 1074.182305 -179.930794 
L 1067.607011 -195.702431 
L 1061.031718 -204.698629 
L 1054.456424 -210.016966 
L 1047.88113 -213.681306 
L 1041.305836 -205.036463 
L 1034.730543 -206.927084 
L 1028.155249 -199.334767 
L 1021.579955 -198.179227 
L 1015.004661 -201.552867 
L 1008.429368 -194.48759 
L 1001.854074 -205.891043 
L 995.27878 -200.546058 
L 988.703486 -180.001702 
L 982.128193 -174.877218 
L 975.552899 -196.432446 
L 968.977605 -205.371222 
L 962.402311 -195.500556 
L 955.827018 -217.817274 
L 949.251724 -209.024358 
L 942.67643 -260.261393 
L 936.101136 -304.232301 
z
" style="stroke: #0000ff; stroke-opacity: 0.4"/>
    </defs>
    <g clip-path="url(#p71682763a1)">
     <use xlink:href="#me0fc2adbd5" x="0" y="396" style="fill: #0000ff; fill-opacity: 0.4; stroke: #0000ff; stroke-opacity: 0.4"/>
    </g>
   </g>
   <g id="PolyCollection_11">
    <defs>
     <path id="m573783b0a0" d="M 936.101136 -128.689999 
L 936.101136 -97.007862 
L 942.67643 -86.102029 
L 949.251724 -85.333804 
L 955.827018 -84.234648 
L 962.402311 -86.133082 
L 968.977605 -84.347984 
L 975.552899 -85.075192 
L 982.128193 -84.762111 
L 988.703486 -83.765266 
L 995.27878 -84.923429 
L 1001.854074 -85.756889 
L 1008.429368 -84.018333 
L 1015.004661 -85.158286 
L 1021.579955 -85.348543 
L 1028.155249 -85.466946 
L 1034.730543 -85.68814 
L 1041.305836 -86.217193 
L 1047.88113 -87.821784 
L 1054.456424 -88.035896 
L 1061.031718 -88.028366 
L 1067.607011 -89.794318 
L 1074.182305 -90.089207 
L 1080.757599 -91.161964 
L 1087.332893 -90.645933 
L 1093.908186 -91.572907 
L 1100.48348 -93.185788 
L 1107.058774 -93.3231 
L 1113.634068 -93.690716 
L 1120.209361 -93.458858 
L 1126.784655 -94.491898 
L 1133.359949 -93.256494 
L 1139.935243 -93.952771 
L 1146.510536 -94.2296 
L 1153.08583 -94.488354 
L 1159.661124 -94.687039 
L 1166.236418 -94.827089 
L 1172.811712 -94.474639 
L 1179.387005 -96.096933 
L 1185.962299 -95.732207 
L 1192.537593 -94.776152 
L 1199.112887 -94.269921 
L 1205.68818 -95.955071 
L 1212.263474 -95.327439 
L 1218.838768 -97.082718 
L 1225.414062 -96.350651 
L 1231.989355 -96.233003 
L 1238.564649 -96.55354 
L 1245.139943 -96.658879 
L 1251.715237 -96.815985 
L 1258.29053 -95.759399 
L 1258.29053 -108.418462 
L 1258.29053 -108.418462 
L 1251.715237 -104.381006 
L 1245.139943 -103.410317 
L 1238.564649 -104.597315 
L 1231.989355 -103.223712 
L 1225.414062 -107.419638 
L 1218.838768 -105.91427 
L 1212.263474 -106.482228 
L 1205.68818 -105.505153 
L 1199.112887 -104.403174 
L 1192.537593 -103.962115 
L 1185.962299 -105.574845 
L 1179.387005 -107.0384 
L 1172.811712 -106.612575 
L 1166.236418 -106.333306 
L 1159.661124 -106.29532 
L 1153.08583 -107.214069 
L 1146.510536 -107.631856 
L 1139.935243 -106.452508 
L 1133.359949 -107.820566 
L 1126.784655 -111.275605 
L 1120.209361 -108.418952 
L 1113.634068 -109.525933 
L 1107.058774 -110.595184 
L 1100.48348 -109.057212 
L 1093.908186 -108.569773 
L 1087.332893 -107.70267 
L 1080.757599 -109.49023 
L 1074.182305 -107.432718 
L 1067.607011 -107.149171 
L 1061.031718 -104.900783 
L 1054.456424 -105.280131 
L 1047.88113 -104.926028 
L 1041.305836 -102.632324 
L 1034.730543 -103.501144 
L 1028.155249 -102.07074 
L 1021.579955 -103.396913 
L 1015.004661 -103.049758 
L 1008.429368 -102.385831 
L 1001.854074 -104.569166 
L 995.27878 -104.197151 
L 988.703486 -103.213965 
L 982.128193 -104.94817 
L 975.552899 -107.047327 
L 968.977605 -105.175023 
L 962.402311 -108.926417 
L 955.827018 -107.109621 
L 949.251724 -109.25019 
L 942.67643 -110.568767 
L 936.101136 -128.689999 
z
" style="stroke: #008000; stroke-opacity: 0.4"/>
    </defs>
    <g clip-path="url(#p71682763a1)">
     <use xlink:href="#m573783b0a0" x="0" y="396" style="fill: #008000; fill-opacity: 0.4; stroke: #008000; stroke-opacity: 0.4"/>
    </g>
   </g>
   <g id="PolyCollection_12">
    <defs>
     <path id="me5e6dde02e" d="M 936.101136 -337.681818 
L 936.101136 -189.736458 
L 942.67643 -171.020009 
L 949.251724 -140.313688 
L 955.827018 -130.305518 
L 962.402311 -115.597234 
L 968.977605 -106.872233 
L 975.552899 -99.634611 
L 982.128193 -98.043629 
L 988.703486 -94.197358 
L 995.27878 -93.253522 
L 1001.854074 -91.701931 
L 1008.429368 -93.171043 
L 1015.004661 -89.510576 
L 1021.579955 -91.289492 
L 1028.155249 -89.122158 
L 1034.730543 -89.666647 
L 1041.305836 -89.875067 
L 1047.88113 -88.502734 
L 1054.456424 -90.146264 
L 1061.031718 -89.952283 
L 1067.607011 -89.570387 
L 1074.182305 -90.264155 
L 1080.757599 -89.196661 
L 1087.332893 -90.095777 
L 1093.908186 -89.433077 
L 1100.48348 -90.986873 
L 1107.058774 -92.254465 
L 1113.634068 -92.243871 
L 1120.209361 -85.681996 
L 1126.784655 -91.717102 
L 1133.359949 -90.522845 
L 1139.935243 -90.520817 
L 1146.510536 -92.700023 
L 1153.08583 -92.414857 
L 1159.661124 -90.3961 
L 1166.236418 -93.282759 
L 1172.811712 -92.750197 
L 1179.387005 -94.270639 
L 1185.962299 -89.384291 
L 1192.537593 -92.487583 
L 1199.112887 -94.481591 
L 1205.68818 -92.426199 
L 1212.263474 -92.563606 
L 1218.838768 -92.988143 
L 1225.414062 -94.122948 
L 1231.989355 -94.607445 
L 1238.564649 -94.162708 
L 1245.139943 -95.117793 
L 1251.715237 -96.184164 
L 1258.29053 -95.320224 
L 1258.29053 -104.528603 
L 1258.29053 -104.528603 
L 1251.715237 -104.453388 
L 1245.139943 -102.67852 
L 1238.564649 -102.090735 
L 1231.989355 -103.130399 
L 1225.414062 -100.185241 
L 1218.838768 -99.111935 
L 1212.263474 -102.659851 
L 1205.68818 -101.055257 
L 1199.112887 -105.789619 
L 1192.537593 -101.784807 
L 1185.962299 -120.32507 
L 1179.387005 -106.05389 
L 1172.811712 -106.556806 
L 1166.236418 -103.570608 
L 1159.661124 -101.063823 
L 1153.08583 -104.385469 
L 1146.510536 -108.09409 
L 1139.935243 -102.043171 
L 1133.359949 -103.349873 
L 1126.784655 -104.410888 
L 1120.209361 -122.553942 
L 1113.634068 -107.698026 
L 1107.058774 -107.648272 
L 1100.48348 -106.191291 
L 1093.908186 -110.892809 
L 1087.332893 -106.018516 
L 1080.757599 -110.503834 
L 1074.182305 -106.817722 
L 1067.607011 -112.300952 
L 1061.031718 -107.955534 
L 1054.456424 -108.15809 
L 1047.88113 -114.877636 
L 1041.305836 -112.557501 
L 1034.730543 -107.752975 
L 1028.155249 -117.532268 
L 1021.579955 -119.77877 
L 1015.004661 -116.193502 
L 1008.429368 -126.894772 
L 1001.854074 -116.892333 
L 995.27878 -122.497668 
L 988.703486 -127.36183 
L 982.128193 -145.8992 
L 975.552899 -157.30988 
L 968.977605 -170.376979 
L 962.402311 -198.17619 
L 955.827018 -221.055946 
L 949.251724 -242.611824 
L 942.67643 -277.420953 
L 936.101136 -337.681818 
z
" style="stroke: #ff8c00; stroke-opacity: 0.4"/>
    </defs>
    <g clip-path="url(#p71682763a1)">
     <use xlink:href="#me5e6dde02e" x="0" y="396" style="fill: #ff8c00; fill-opacity: 0.4; stroke: #ff8c00; stroke-opacity: 0.4"/>
    </g>
   </g>
   <g id="matplotlib.axis_5">
    <g id="xtick_7">
     <g id="line2d_33">
      <g>
       <use xlink:href="#m8139c77f65" x="936.101136" y="325.4" style="stroke: #000000; stroke-width: 0.8"/>
      </g>
     </g>
     <g id="text_30">
      <!-- 0 -->
      <g transform="translate(929.738636 347.596875) scale(0.2 -0.2)">
       <use xlink:href="#DejaVuSerif-30"/>
      </g>
     </g>
    </g>
    <g id="xtick_8">
     <g id="line2d_34">
      <g>
       <use xlink:href="#m8139c77f65" x="1067.607011" y="325.4" style="stroke: #000000; stroke-width: 0.8"/>
      </g>
     </g>
     <g id="text_31">
      <!-- 20 -->
      <g transform="translate(1054.882011 347.596875) scale(0.2 -0.2)">
       <use xlink:href="#DejaVuSerif-32"/>
       <use xlink:href="#DejaVuSerif-30" x="63.623047"/>
      </g>
     </g>
    </g>
    <g id="xtick_9">
     <g id="line2d_35">
      <g>
       <use xlink:href="#m8139c77f65" x="1199.112887" y="325.4" style="stroke: #000000; stroke-width: 0.8"/>
      </g>
     </g>
     <g id="text_32">
      <!-- 40 -->
      <g transform="translate(1186.387887 347.596875) scale(0.2 -0.2)">
       <use xlink:href="#DejaVuSerif-34"/>
       <use xlink:href="#DejaVuSerif-30" x="63.623047"/>
      </g>
     </g>
    </g>
    <g id="text_33">
     <!-- Epochs -->
     <g transform="translate(1060.302083 370.953125) scale(0.2 -0.2)">
      <use xlink:href="#DejaVuSerif-45"/>
      <use xlink:href="#DejaVuSerif-70" x="72.998047"/>
      <use xlink:href="#DejaVuSerif-6f" x="137.011719"/>
      <use xlink:href="#DejaVuSerif-63" x="197.216797"/>
      <use xlink:href="#DejaVuSerif-68" x="253.222656"/>
      <use xlink:href="#DejaVuSerif-73" x="317.626953"/>
     </g>
    </g>
   </g>
   <g id="matplotlib.axis_6">
    <g id="ytick_11">
     <g id="line2d_36">
      <g>
       <use xlink:href="#mdac53e164a" x="919.991667" y="303.973618" style="stroke: #000000; stroke-width: 0.8"/>
      </g>
     </g>
     <g id="text_34">
      <!-- 50 -->
      <g transform="translate(887.541667 311.572056) scale(0.2 -0.2)">
       <use xlink:href="#DejaVuSerif-35"/>
       <use xlink:href="#DejaVuSerif-30" x="63.623047"/>
      </g>
     </g>
    </g>
    <g id="ytick_12">
     <g id="line2d_37">
      <g>
       <use xlink:href="#mdac53e164a" x="919.991667" y="245.731654" style="stroke: #000000; stroke-width: 0.8"/>
      </g>
     </g>
     <g id="text_35">
      <!-- 100 -->
      <g transform="translate(874.816667 253.330092) scale(0.2 -0.2)">
       <use xlink:href="#DejaVuSerif-31"/>
       <use xlink:href="#DejaVuSerif-30" x="63.623047"/>
       <use xlink:href="#DejaVuSerif-30" x="127.246094"/>
      </g>
     </g>
    </g>
    <g id="ytick_13">
     <g id="line2d_38">
      <g>
       <use xlink:href="#mdac53e164a" x="919.991667" y="187.489691" style="stroke: #000000; stroke-width: 0.8"/>
      </g>
     </g>
     <g id="text_36">
      <!-- 150 -->
      <g transform="translate(874.816667 195.088128) scale(0.2 -0.2)">
       <use xlink:href="#DejaVuSerif-31"/>
       <use xlink:href="#DejaVuSerif-35" x="63.623047"/>
       <use xlink:href="#DejaVuSerif-30" x="127.246094"/>
      </g>
     </g>
    </g>
    <g id="ytick_14">
     <g id="line2d_39">
      <g>
       <use xlink:href="#mdac53e164a" x="919.991667" y="129.247727" style="stroke: #000000; stroke-width: 0.8"/>
      </g>
     </g>
     <g id="text_37">
      <!-- 200 -->
      <g transform="translate(874.816667 136.846164) scale(0.2 -0.2)">
       <use xlink:href="#DejaVuSerif-32"/>
       <use xlink:href="#DejaVuSerif-30" x="63.623047"/>
       <use xlink:href="#DejaVuSerif-30" x="127.246094"/>
      </g>
     </g>
    </g>
    <g id="ytick_15">
     <g id="line2d_40">
      <g>
       <use xlink:href="#mdac53e164a" x="919.991667" y="71.005763" style="stroke: #000000; stroke-width: 0.8"/>
      </g>
     </g>
     <g id="text_38">
      <!-- 250 -->
      <g transform="translate(874.816667 78.604201) scale(0.2 -0.2)">
       <use xlink:href="#DejaVuSerif-32"/>
       <use xlink:href="#DejaVuSerif-35" x="63.623047"/>
       <use xlink:href="#DejaVuSerif-30" x="127.246094"/>
      </g>
     </g>
    </g>
   </g>
   <g id="line2d_41">
    <path d="M 936.101136 277.912443 
L 942.67643 290.988074 
L 949.251724 293.569076 
L 955.827018 298.901803 
L 962.402311 298.173942 
L 968.977605 299.691027 
L 975.552899 300.77814 
L 982.128193 301.638641 
L 988.703486 302.499556 
L 995.27878 302.263361 
L 1001.854074 303.563184 
L 1008.429368 303.647335 
L 1015.004661 302.136183 
L 1021.579955 303.668639 
L 1028.155249 303.528686 
L 1034.730543 304.211916 
L 1041.305836 303.509289 
L 1047.88113 304.668215 
L 1054.456424 303.686742 
L 1061.031718 302.476995 
L 1067.607011 302.762482 
L 1074.182305 302.268492 
L 1080.757599 303.196409 
L 1087.332893 302.785717 
L 1093.908186 301.958621 
L 1100.48348 303.888921 
L 1107.058774 302.969581 
L 1113.634068 303.711208 
L 1120.209361 303.037151 
L 1126.784655 302.444985 
L 1133.359949 301.510759 
L 1139.935243 303.965429 
L 1146.510536 302.075839 
L 1153.08583 302.203735 
L 1159.661124 301.215613 
L 1166.236418 302.982074 
L 1172.811712 301.831663 
L 1179.387005 301.069261 
L 1185.962299 301.72409 
L 1192.537593 301.36499 
L 1199.112887 302.780184 
L 1205.68818 302.09453 
L 1212.263474 303.006086 
L 1218.838768 301.197469 
L 1225.414062 301.86985 
L 1231.989355 300.031906 
L 1238.564649 301.958897 
L 1245.139943 302.825261 
L 1251.715237 302.582547 
L 1258.29053 300.236758 
" clip-path="url(#p71682763a1)" style="fill: none; stroke: #ff0000; stroke-width: 1.5; stroke-linecap: square"/>
   </g>
   <g id="line2d_42">
    <path d="M 936.101136 152.527087 
L 942.67643 201.228458 
L 949.251724 239.43896 
L 955.827018 234.441955 
L 962.402311 244.475367 
L 968.977605 243.156257 
L 975.552899 245.764137 
L 982.128193 260.998907 
L 988.703486 253.919588 
L 995.27878 246.070853 
L 1001.854074 242.686398 
L 1008.429368 246.651675 
L 1015.004661 242.526714 
L 1021.579955 243.196311 
L 1028.155249 241.791529 
L 1034.730543 236.435641 
L 1041.305836 244.96805 
L 1047.88113 238.824614 
L 1054.456424 241.07195 
L 1061.031718 236.420082 
L 1067.607011 240.739811 
L 1074.182305 251.521695 
L 1080.757599 239.974515 
L 1087.332893 239.944576 
L 1093.908186 247.012991 
L 1100.48348 243.092601 
L 1107.058774 246.51725 
L 1113.634068 235.706812 
L 1120.209361 246.605908 
L 1126.784655 246.120166 
L 1133.359949 240.447889 
L 1139.935243 243.20393 
L 1146.510536 241.523805 
L 1153.08583 246.496168 
L 1159.661124 242.632492 
L 1166.236418 239.147803 
L 1172.811712 242.817363 
L 1179.387005 245.216805 
L 1185.962299 240.120602 
L 1192.537593 246.800168 
L 1199.112887 249.496915 
L 1205.68818 245.236804 
L 1212.263474 245.344096 
L 1218.838768 246.016386 
L 1225.414062 247.641576 
L 1231.989355 236.778846 
L 1238.564649 242.065246 
L 1245.139943 248.512549 
L 1251.715237 251.051783 
L 1258.29053 250.213973 
" clip-path="url(#p71682763a1)" style="fill: none; stroke: #0000ff; stroke-width: 1.5; stroke-linecap: square"/>
   </g>
   <g id="line2d_43">
    <path d="M 936.101136 283.151069 
L 942.67643 297.664602 
L 949.251724 298.708003 
L 955.827018 300.327865 
L 962.402311 298.47025 
L 968.977605 301.238496 
L 975.552899 299.938741 
L 982.128193 301.14486 
L 988.703486 302.510384 
L 995.27878 301.43971 
L 1001.854074 300.836972 
L 1008.429368 302.797918 
L 1015.004661 301.895978 
L 1021.579955 301.627272 
L 1028.155249 302.231157 
L 1034.730543 301.405358 
L 1041.305836 301.575242 
L 1047.88113 299.626094 
L 1054.456424 299.341986 
L 1061.031718 299.535425 
L 1067.607011 297.528256 
L 1074.182305 297.239037 
L 1080.757599 295.673903 
L 1087.332893 296.825699 
L 1093.908186 295.92866 
L 1100.48348 294.8785 
L 1107.058774 294.040858 
L 1113.634068 294.391675 
L 1120.209361 295.061095 
L 1126.784655 293.116248 
L 1133.359949 295.46147 
L 1139.935243 295.79736 
L 1146.510536 295.069272 
L 1153.08583 295.148788 
L 1159.661124 295.508821 
L 1166.236418 295.419802 
L 1172.811712 295.456393 
L 1179.387005 294.432334 
L 1185.962299 295.346474 
L 1192.537593 296.630866 
L 1199.112887 296.663452 
L 1205.68818 295.269888 
L 1212.263474 295.095167 
L 1218.838768 294.501506 
L 1225.414062 294.114856 
L 1231.989355 296.271643 
L 1238.564649 295.424572 
L 1245.139943 295.965402 
L 1251.715237 295.401505 
L 1258.29053 293.911069 
" clip-path="url(#p71682763a1)" style="fill: none; stroke: #008000; stroke-width: 1.5; stroke-linecap: square"/>
   </g>
   <g id="line2d_44">
    <path d="M 936.101136 132.290862 
L 942.67643 171.779519 
L 949.251724 204.537244 
L 955.827018 220.319268 
L 962.402311 239.113288 
L 968.977605 257.375394 
L 975.552899 267.527754 
L 982.128193 274.028586 
L 988.703486 285.220406 
L 995.27878 288.124405 
L 1001.854074 291.702868 
L 1008.429368 285.967092 
L 1015.004661 293.147961 
L 1021.579955 290.465869 
L 1028.155249 292.672787 
L 1034.730543 297.290189 
L 1041.305836 294.783716 
L 1047.88113 294.309815 
L 1054.456424 296.847823 
L 1061.031718 297.046091 
L 1067.607011 295.064331 
L 1074.182305 297.459061 
L 1080.757599 296.149753 
L 1087.332893 297.942853 
L 1093.908186 295.837057 
L 1100.48348 297.410918 
L 1107.058774 296.048631 
L 1113.634068 296.029052 
L 1120.209361 291.882031 
L 1126.784655 297.936005 
L 1133.359949 299.063641 
L 1139.935243 299.718006 
L 1146.510536 295.602943 
L 1153.08583 297.599837 
L 1159.661124 300.270039 
L 1166.236418 297.573317 
L 1172.811712 296.346499 
L 1179.387005 295.837735 
L 1185.962299 291.14532 
L 1192.537593 298.863805 
L 1199.112887 295.864395 
L 1205.68818 299.259272 
L 1212.263474 298.388272 
L 1218.838768 299.949961 
L 1225.414062 298.845906 
L 1231.989355 297.131078 
L 1238.564649 297.873279 
L 1245.139943 297.101843 
L 1251.715237 295.681224 
L 1258.29053 296.075587 
" clip-path="url(#p71682763a1)" style="fill: none; stroke: #ff8c00; stroke-width: 1.5; stroke-linecap: square"/>
   </g>
   <g id="patch_15">
    <path d="M 919.991667 325.4 
L 919.991667 45.6 
" style="fill: none; stroke: #000000; stroke-width: 0.8; stroke-linejoin: miter; stroke-linecap: square"/>
   </g>
   <g id="patch_16">
    <path d="M 1274.4 325.4 
L 1274.4 45.6 
" style="fill: none; stroke: #000000; stroke-width: 0.8; stroke-linejoin: miter; stroke-linecap: square"/>
   </g>
   <g id="patch_17">
    <path d="M 919.991667 325.4 
L 1274.4 325.4 
" style="fill: none; stroke: #000000; stroke-width: 0.8; stroke-linejoin: miter; stroke-linecap: square"/>
   </g>
   <g id="patch_18">
    <path d="M 919.991667 45.6 
L 1274.4 45.6 
" style="fill: none; stroke: #000000; stroke-width: 0.8; stroke-linejoin: miter; stroke-linecap: square"/>
   </g>
   <g id="text_39">
    <!-- CelebA - 10 experiments -->
    <g transform="translate(947.437708 39.6) scale(0.24 -0.24)">
     <defs>
      <path id="DejaVuSerif-6c" d="M 1313 331 
L 1856 331 
L 1856 0 
L 184 0 
L 184 331 
L 738 331 
L 738 4531 
L 184 4531 
L 184 4863 
L 1313 4863 
L 1313 331 
z
" transform="scale(0.015625)"/>
      <path id="DejaVuSerif-62" d="M 738 331 
L 738 4531 
L 184 4531 
L 184 4863 
L 1313 4863 
L 1313 2803 
Q 1481 3116 1742 3264 
Q 2003 3413 2388 3413 
Q 3000 3413 3387 2928 
Q 3775 2444 3775 1663 
Q 3775 881 3387 395 
Q 3000 -91 2388 -91 
Q 2003 -91 1742 57 
Q 1481 206 1313 519 
L 1313 0 
L 184 0 
L 184 331 
L 738 331 
z
M 1313 1497 
Q 1313 897 1542 583 
Q 1772 269 2209 269 
Q 2650 269 2876 622 
Q 3103 975 3103 1663 
Q 3103 2353 2876 2703 
Q 2650 3053 2209 3053 
Q 1772 3053 1542 2737 
Q 1313 2422 1313 1825 
L 1313 1497 
z
" transform="scale(0.015625)"/>
     </defs>
     <use xlink:href="#DejaVuSerif-43"/>
     <use xlink:href="#DejaVuSerif-65" x="76.513672"/>
     <use xlink:href="#DejaVuSerif-6c" x="135.693359"/>
     <use xlink:href="#DejaVuSerif-65" x="167.675781"/>
     <use xlink:href="#DejaVuSerif-62" x="226.855469"/>
     <use xlink:href="#DejaVuSerif-41" x="290.869141"/>
     <use xlink:href="#DejaVuSerif-20" x="363.085938"/>
     <use xlink:href="#DejaVuSerif-2d" x="394.873047"/>
     <use xlink:href="#DejaVuSerif-20" x="428.662109"/>
     <use xlink:href="#DejaVuSerif-31" x="460.449219"/>
     <use xlink:href="#DejaVuSerif-30" x="524.072266"/>
     <use xlink:href="#DejaVuSerif-20" x="587.695312"/>
     <use xlink:href="#DejaVuSerif-65" x="619.482422"/>
     <use xlink:href="#DejaVuSerif-78" x="678.662109"/>
     <use xlink:href="#DejaVuSerif-70" x="735.058594"/>
     <use xlink:href="#DejaVuSerif-65" x="799.072266"/>
     <use xlink:href="#DejaVuSerif-72" x="858.251953"/>
     <use xlink:href="#DejaVuSerif-69" x="906.054688"/>
     <use xlink:href="#DejaVuSerif-6d" x="938.037109"/>
     <use xlink:href="#DejaVuSerif-65" x="1032.861328"/>
     <use xlink:href="#DejaVuSerif-6e" x="1092.041016"/>
     <use xlink:href="#DejaVuSerif-74" x="1156.445312"/>
     <use xlink:href="#DejaVuSerif-73" x="1196.630859"/>
    </g>
   </g>
   <g id="legend_3">
    <g id="patch_19">
     <path d="M 1086.403125 179.025 
L 1260.4 179.025 
Q 1264.4 179.025 1264.4 175.025 
L 1264.4 59.6 
Q 1264.4 55.6 1260.4 55.6 
L 1086.403125 55.6 
Q 1082.403125 55.6 1082.403125 59.6 
L 1082.403125 175.025 
Q 1082.403125 179.025 1086.403125 179.025 
z
" style="fill: #ffffff; opacity: 0.8; stroke: #cccccc; stroke-linejoin: miter"/>
    </g>
    <g id="line2d_45">
     <path d="M 1090.403125 71.796875 
L 1110.403125 71.796875 
L 1130.403125 71.796875 
" style="fill: none; stroke: #ff0000; stroke-width: 1.5; stroke-linecap: square"/>
    </g>
    <g id="text_40">
     <!-- GAN -->
     <g transform="translate(1146.403125 78.796875) scale(0.2 -0.2)">
      <use xlink:href="#DejaVuSerif-47"/>
      <use xlink:href="#DejaVuSerif-41" x="79.882812"/>
      <use xlink:href="#DejaVuSerif-4e" x="152.099609"/>
     </g>
    </g>
    <g id="line2d_46">
     <path d="M 1090.403125 101.153125 
L 1110.403125 101.153125 
L 1130.403125 101.153125 
" style="fill: none; stroke: #0000ff; stroke-width: 1.5; stroke-linecap: square"/>
    </g>
    <g id="text_41">
     <!-- WGAN-SN -->
     <g transform="translate(1146.403125 108.153125) scale(0.2 -0.2)">
      <use xlink:href="#DejaVuSerif-57"/>
      <use xlink:href="#DejaVuSerif-47" x="102.783203"/>
      <use xlink:href="#DejaVuSerif-41" x="182.666016"/>
      <use xlink:href="#DejaVuSerif-4e" x="254.882812"/>
      <use xlink:href="#DejaVuSerif-2d" x="342.382812"/>
      <use xlink:href="#DejaVuSerif-53" x="376.171875"/>
      <use xlink:href="#DejaVuSerif-4e" x="444.677734"/>
     </g>
    </g>
    <g id="line2d_47">
     <path d="M 1090.403125 130.509375 
L 1110.403125 130.509375 
L 1130.403125 130.509375 
" style="fill: none; stroke: #008000; stroke-width: 1.5; stroke-linecap: square"/>
    </g>
    <g id="text_42">
     <!-- WGAN-WC -->
     <g transform="translate(1146.403125 137.509375) scale(0.2 -0.2)">
      <use xlink:href="#DejaVuSerif-57"/>
      <use xlink:href="#DejaVuSerif-47" x="102.783203"/>
      <use xlink:href="#DejaVuSerif-41" x="182.666016"/>
      <use xlink:href="#DejaVuSerif-4e" x="254.882812"/>
      <use xlink:href="#DejaVuSerif-2d" x="342.382812"/>
      <use xlink:href="#DejaVuSerif-57" x="370.671875"/>
      <use xlink:href="#DejaVuSerif-43" x="473.455078"/>
     </g>
    </g>
    <g id="line2d_48">
     <path d="M 1090.403125 159.865625 
L 1110.403125 159.865625 
L 1130.403125 159.865625 
" style="fill: none; stroke: #ff8c00; stroke-width: 1.5; stroke-linecap: square"/>
    </g>
    <g id="text_43">
     <!-- WGAN-GP -->
     <g transform="translate(1146.403125 166.865625) scale(0.2 -0.2)">
      <use xlink:href="#DejaVuSerif-57"/>
      <use xlink:href="#DejaVuSerif-47" x="102.783203"/>
      <use xlink:href="#DejaVuSerif-41" x="182.666016"/>
      <use xlink:href="#DejaVuSerif-4e" x="254.882812"/>
      <use xlink:href="#DejaVuSerif-2d" x="342.382812"/>
      <use xlink:href="#DejaVuSerif-47" x="376.171875"/>
      <use xlink:href="#DejaVuSerif-50" x="456.054688"/>
     </g>
    </g>
   </g>
  </g>
 </g>
 <defs>
  <clipPath id="p8dd0e64f39">
   <rect x="77.225" y="45.6" width="354.408333" height="279.8"/>
  </clipPath>
  <clipPath id="p58961eea00">
   <rect x="498.608333" y="45.6" width="354.408333" height="279.8"/>
  </clipPath>
  <clipPath id="p71682763a1">
   <rect x="919.991667" y="45.6" width="354.408333" height="279.8"/>
  </clipPath>
 </defs>
</svg>
